<?xml version="1.0" standalone="no"?><!DOCTYPE svg PUBLIC "-//W3C//DTD SVG 1.1//EN" "http://www.w3.org/Graphics/SVG/1.1/DTD/svg11.dtd"><svg t="1632736989305" class="icon" viewBox="0 0 1024 1024" version="1.1" xmlns="http://www.w3.org/2000/svg" p-id="2508" xmlns:xlink="http://www.w3.org/1999/xlink" width="200" height="200"><defs><style type="text/css"></style></defs><path d="M772.133547 723.152213h97.768106a24.48384 24.48384 0 0 1 24.528214 24.53504c0 13.520213-11.127467 24.528213-24.528214 24.528214h-97.768106v99.321173c0 12.68736-10.407253 23.094613-23.094614 23.094613h-2.874026c-12.8 0-23.094613-10.407253-23.094614-23.094613v-99.321173h-97.76128a24.490667 24.490667 0 0 1-24.53504-24.528214c0-13.52704 11.127467-24.53504 24.53504-24.53504h97.76128v-99.314346c0-12.68736 10.41408-23.094613 23.094614-23.094614h2.874026c12.806827 0 23.094613 10.407253 23.094614 23.094614v99.314346zM4.297387 159.085227c0 55.64416 73.710933 106.97728 193.365333 134.73792 119.657813 27.764053 267.076267 27.764053 386.730667 0 119.6544-27.76064 193.358507-79.213227 193.358506-134.73792 0-85.9136-173.14816-155.66848-386.730666-155.66848C177.442133 3.413333 4.297387 73.171627 4.297387 159.085227z m529.124693 338.629973c55.52128-42.717867 115.705173-77.172053 221.119147-80.88576 18.0736-15.07328 24.05376-30.153387 25.37472-53.6064V222.027093c-5.38624 83.879253-176.141653 151.606613-386.730667 151.606614-210.715307 0-388.765013-69.761707-388.765013-155.671894v134.13376c0 86.514347 173.38368 156.27264 386.730666 156.27264 56.118613 0.361813 95.842987-1.55648 142.271147-10.653013zM4.297387 405.940907v134.137173c0 85.9136 173.380267 155.671893 386.730666 155.671893h28.238507c3.47136-47.148373 28.95872-96.79872 61.98272-137.24672-33.024 3.587413-56.961707 5.741227-90.22464 5.741227-213.346987 0.003413-386.727253-69.75488-386.727253-158.303573z m386.37568 349.637973c-214.306133 0-387.211947-67.007147-387.211947-155.439787v134.02112c0 85.80096 173.622613 155.439787 387.211947 155.439787h53.367466c-22.132053-39.0144-28.955307-82.326187-28.955306-134.02112h-24.41216z m357.055146-280.715947c-110.32576 0-209.87904 66.532693-252.11904 168.47872s-18.906453 219.333973 59.10528 297.345707c78.01856 78.011733 195.39968 101.352107 297.352534 59.112107 101.946027-42.24 168.471893-141.79328 168.471893-252.11904 0.12288-150.64064-122.1632-272.817493-272.810667-272.817494z" p-id="2509" fill="#333333"></path></svg>