<?xml version="1.0" standalone="no"?><!DOCTYPE svg PUBLIC "-//W3C//DTD SVG 1.1//EN" "http://www.w3.org/Graphics/SVG/1.1/DTD/svg11.dtd"><svg t="1641702046162" class="icon" viewBox="0 0 1024 1024" version="1.1" xmlns="http://www.w3.org/2000/svg" p-id="119210" xmlns:xlink="http://www.w3.org/1999/xlink" width="200" height="200"><defs><style type="text/css"></style></defs><path d="M593.3 347.3H427.6c-25.1 0-45.6-20.5-45.6-45.6V136c0-25.1 20.5-45.6 45.6-45.6h165.7c25.1 0 45.6 20.5 45.6 45.6v165.7c-0.1 25.1-20.6 45.6-45.6 45.6zM269.4 666.5h-48.2v-96.4h257v-64.3h-257c-17.4 0-32.5 6.4-45.2 19.1-12.7 12.7-19.1 27.8-19.1 45.2v96.4h-48.2c-13.4 0-24.8 4.7-34.1 14.1-9.4 9.4-14.1 20.8-14.1 34.1v160.6c0 13.4 4.7 24.8 14.1 34.1 9.4 9.4 20.7 14.1 34.1 14.1h160.6c13.4 0 24.8-4.7 34.1-14.1 9.4-9.4 14.1-20.8 14.1-34.1V714.7c0-13.4-4.7-24.8-14.1-34.1-9.2-9.4-20.6-14.1-34-14.1zM946.1 680.6c-9.4-9.4-20.8-14.1-34.1-14.1h-48.2v-96.4c0-17.4-6.4-32.5-19.1-45.2-12.7-12.7-27.8-19.1-45.2-19.1h-257v64.3h257v96.4h-48.2c-13.4 0-24.8 4.7-34.1 14.1-9.4 9.4-14.1 20.8-14.1 34.1v160.6c0 13.4 4.7 24.8 14.1 34.1 9.4 9.4 20.7 14.1 34.1 14.1H912c13.4 0 24.8-4.7 34.1-14.1 9.4-9.4 14.1-20.8 14.1-34.1V714.7c0-13.4-4.7-24.8-14.1-34.1z" fill="#2C6DF8" p-id="119211"></path><path d="M221.3 664.5h-64.6v-99.3c0-33.6 27.3-60.9 60.9-60.9h3.7v160.2zM863.8 666.5h-64.3V505.1c35.5 0 64.3 28.8 64.3 64.3v97.1zM478.3 347.3h64.3v319.2h-64.3z" fill="#15BFCC" p-id="119212"></path><path d="M590.7 666.5H430c-13.4 0-24.8 4.7-34.1 14.1-9.4 9.4-14.1 20.8-14.1 34.1v160.6c0 13.4 4.7 24.8 14.1 34.1 9.4 9.4 20.7 14.1 34.1 14.1h160.6c13.4 0 24.8-4.7 34.1-14.1 9.4-9.4 14.1-20.8 14.1-34.1V714.7c0-13.4-4.7-24.8-14.1-34.1-9.2-9.4-20.6-14.1-34-14.1z" fill="#2C6DF8" p-id="119213"></path><path d="M213.7 504.9h585.8v64.9H213.7z" fill="#15BFCC" p-id="119214"></path></svg>