<?xml version="1.0" standalone="no"?><!DOCTYPE svg PUBLIC "-//W3C//DTD SVG 1.1//EN" "http://www.w3.org/Graphics/SVG/1.1/DTD/svg11.dtd"><svg t="1641701976418" class="icon" viewBox="0 0 1024 1024" version="1.1" xmlns="http://www.w3.org/2000/svg" p-id="110622" xmlns:xlink="http://www.w3.org/1999/xlink" width="200" height="200"><defs><style type="text/css"></style></defs><path d="M884.363636 581.818182h-27.927272V349.090909c0-34.909091-27.927273-65.163636-65.163637-65.163636h-93.090909v34.909091h93.090909c16.290909 0 27.927273 13.963636 27.927273 27.927272v232.727273H744.727273c-39.563636 0-69.818182 30.254545-69.818182 69.818182v74.472727h-134.981818V674.909091c0-41.890909-34.909091-74.472727-74.472728-74.472727H186.181818c-41.890909 0-74.472727 34.909091-74.472727 74.472727v162.909091c0 41.890909 34.909091 74.472727 74.472727 74.472727h279.272727c41.890909 0 74.472727-34.909091 74.472728-74.472727v-74.472727H674.909091V814.545455c0 39.563636 30.254545 69.818182 69.818182 69.818181h139.636363c39.563636 0 69.818182-30.254545 69.818182-69.818181v-162.909091c0-39.563636-30.254545-69.818182-69.818182-69.818182zM484.072727 837.818182c0 9.309091-6.981818 18.618182-18.618182 18.618182H186.181818c-9.309091 0-18.618182-6.981818-18.618182-18.618182v-162.909091c0-9.309091 6.981818-18.618182 18.618182-18.618182h279.272727c9.309091 0 18.618182 6.981818 18.618182 18.618182v162.909091zM907.636364 814.545455c0 13.963636-9.309091 23.272727-23.272728 23.272727h-139.636363c-13.963636 0-23.272727-9.309091-23.272728-23.272727v-162.909091c0-13.963636 9.309091-23.272727 23.272728-23.272728h139.636363c13.963636 0 23.272727 9.309091 23.272728 23.272728v162.909091z" fill="#0079F2" p-id="110623"></path><path d="M628.363636 88.436364H256C214.109091 88.436364 181.527273 121.018182 181.527273 162.909091v279.272727c0 41.890909 34.909091 74.472727 74.472727 74.472727h372.363636c41.890909 0 74.472727-34.909091 74.472728-74.472727V162.909091c0-41.890909-32.581818-74.472727-74.472728-74.472727z m18.618182 353.745454c0 9.309091-6.981818 18.618182-18.618182 18.618182H256c-9.309091 0-18.618182-6.981818-18.618182-18.618182V162.909091c0-9.309091 6.981818-18.618182 18.618182-18.618182h372.363636c9.309091 0 18.618182 6.981818 18.618182 18.618182v279.272727z" fill="#FF6F00" p-id="110624"></path><path d="M488.727273 283.927273h-93.090909c-9.309091 0-18.618182 6.981818-18.618182 18.618182s6.981818 18.618182 18.618182 18.618181h93.090909c9.309091 0 18.618182-6.981818 18.618182-18.618181s-9.309091-18.618182-18.618182-18.618182z" fill="#FF6F00" p-id="110625"></path></svg>