<?xml version="1.0" standalone="no"?><!DOCTYPE svg PUBLIC "-//W3C//DTD SVG 1.1//EN" "http://www.w3.org/Graphics/SVG/1.1/DTD/svg11.dtd"><svg t="1641701874234" class="icon" viewBox="0 0 1024 1024" version="1.1" xmlns="http://www.w3.org/2000/svg" p-id="103340" xmlns:xlink="http://www.w3.org/1999/xlink" width="200" height="200"><defs><style type="text/css"></style></defs><path d="M743.35080683 708.91532223h136.0887094v136.08871024H743.35080683z" fill="#D3EAFF" p-id="103341"></path><path d="M607.26209659 137.34274188H416.73790341c-14.96975813 0-27.21774187 12.24798377-27.21774188 27.21774189v190.52419399c0 14.96975813 12.24798377 27.21774187 27.21774188 27.21774189h68.04435472v272.17741882h-68.04435472c-14.96975813 0-27.21774187 12.24798377-27.21774188 27.21774188v190.524194c0 14.96975813 12.24798377 27.21774187 27.21774188 27.21774188h190.52419318c14.96975813 0 27.21774187-12.24798377 27.21774188-27.21774188V681.69758035c0-14.96975813-12.24798377-27.21774187-27.21774188-27.21774188h-68.04435472V382.30241965h68.04435472c14.96975813 0 27.21774187-12.24798377 27.21774188-27.21774189V164.56048377c0-14.96975813-12.24798377-27.21774187-27.21774188-27.21774189z m-27.21774188 707.66129059H443.95564529V708.91532223h136.08870942v136.08871024z m0-517.13709659H443.95564529V191.77822565h136.08870942v136.08871023zM906.65725812 654.47983847H716.13306412c-14.96975813 0-27.21774187 12.24798377-27.21774189 27.21774188v190.524194c0 14.96975813 12.24798377 27.21774187 27.21774189 27.21774188h190.52419401c14.96975813 0 27.21774187-12.24798377 27.21774187-27.21774188V681.69758035c0-14.96975813-12.24798377-27.21774187-27.21774187-27.21774188z m-27.21774189 190.524194H743.35080683V708.91532223h136.0887094v136.08871024zM307.86693588 654.47983847H117.34274188c-14.96975813 0-27.21774187 12.24798377-27.21774188 27.21774188v190.524194c0 14.96975813 12.24798377 27.21774187 27.21774188 27.21774188h190.524194c14.96975813 0 27.21774187-12.24798377 27.21774189-27.21774188V681.69758035c0-14.96975813-12.24798377-27.21774187-27.21774189-27.21774188z m-27.21774271 190.524194H144.56048377V708.91532223h136.08870941v136.08871024z" fill="#1890FF" p-id="103342"></path><path d="M811.39516152 477.56451623H185.38709658v176.91532224h54.43548377v-126.5625h544.3548393V654.47983847h54.43548377V477.56451623z" fill="#FFC13D" p-id="103343"></path></svg>