<?xml version="1.0" standalone="no"?><!DOCTYPE svg PUBLIC "-//W3C//DTD SVG 1.1//EN" "http://www.w3.org/Graphics/SVG/1.1/DTD/svg11.dtd"><svg t="1642921019633" class="icon" viewBox="0 0 1024 1024" version="1.1" xmlns="http://www.w3.org/2000/svg" p-id="64448" xmlns:xlink="http://www.w3.org/1999/xlink" width="200" height="200"><defs><style type="text/css"></style></defs><path d="M913.066667 605.866667c-25.6 0-46.933333 21.333333-46.933334 46.933333v166.4c0 21.333333-34.133333 46.933333-59.733333 46.933333h-597.333333c-29.866667 0-55.466667-25.6-55.466667-46.933333V192c0-21.333333 25.6-34.133333 55.466667-34.133333h486.4c25.6 0 46.933333-21.333333 46.933333-46.933334s-21.333333-46.933333-46.933333-46.933333H209.066667c-81.066667 0-145.066667 55.466667-145.066667 128v631.466667c0 72.533333 68.266667 140.8 145.066667 140.8h593.066666c81.066667 0 153.6-68.266667 153.6-140.8v-166.4c4.266667-29.866667-17.066667-51.2-42.666666-51.2z" fill="#1890FF" p-id="64449"></path><path d="M716.8 396.8c-4.266667-21.333333-12.8-42.666667-21.333333-55.466667-12.8-21.333333-17.066667-25.6-55.466667-25.6h-68.266667v332.8c0 51.2 4.266667 59.733333 68.266667 64v17.066667h-200.533333v-17.066667c64-4.266667 68.266667-12.8 68.266666-64V315.733333h-64c-29.866667 0-42.666667 4.266667-55.466666 25.6-4.266667 12.8-12.8 29.866667-21.333334 55.466667h-21.333333c4.266667-42.666667 8.533333-85.333333 8.533333-123.733333h17.066667c12.8 17.066667 21.333333 17.066667 38.4 17.066666h268.8c17.066667 0 25.6-4.266667 34.133333-17.066666h17.066667c0 34.133333 4.266667 81.066667 4.266667 119.466666l-17.066667 4.266667z" fill="#42C6AF" p-id="64450"></path></svg>