<?xml version="1.0" standalone="no"?><!DOCTYPE svg PUBLIC "-//W3C//DTD SVG 1.1//EN" "http://www.w3.org/Graphics/SVG/1.1/DTD/svg11.dtd"><svg t="1642682129342" class="icon" viewBox="0 0 1024 1024" version="1.1" xmlns="http://www.w3.org/2000/svg" p-id="7877" xmlns:xlink="http://www.w3.org/1999/xlink" width="200" height="200"><defs><style type="text/css"></style></defs><path d="M240.19613625 313.70349102C301.51725262 230.1408445 400.42591588 175.79228599 511.78671701 175.79228599c51.03187171 0 99.43952126 11.41109253 142.82140439 31.8167009l15.32816561-35.40962133a372.57757657 372.57757657 0 0 0-12.12046901-5.37716587C611.55884721 147.25280993 562.42584868 137.33187729 511.78671701 137.33187729c-50.63349338 0-99.76649192 9.92093265-146.02910023 29.4903224-44.67379317 18.8938377-84.79348538 45.9403351-119.23816651 80.38877513a377.26415797 377.26415797 0 0 0-39.40655686 46.29549339l33.08324284 20.20078168v-0.00375887z m448.34647977-87.68078742c95.91143168 59.39875373 159.93287532 165.58815502 159.93287533 286.45553795 0 56.33011445-13.90659387 109.46756547-38.46228814 156.17459092l32.99868142 20.14440715a377.3994564 377.3994564 0 0 0 14.43275367-30.28895774c19.56563167-46.26354764 29.49220106-95.39278807 29.49220185-146.03004033 0-50.63443347-9.92281208-99.76743202-29.49220185-146.03003954-18.89195903-44.67379317-45.93845644-84.79254527-80.38877513-119.23722719-22.10153429-22.10623172-46.54541957-41.15415987-73.02065691-56.96526447l-15.49259024 35.77699325z m101.65596946 475.59216711c-60.65590004 88.99806636-162.82111747 147.55308529-278.41186847 147.55308452-49.88089686 0-97.26347437-10.90842218-139.88900212-30.45901992l-15.32346739 35.39458817a359.07499855 359.07499855 0 0 0 9.18336928 4.03357871c46.26260831 19.566571 95.39184874 29.49032241 146.02910023 29.4903224 50.63913091 0 99.76649192-9.92375141 146.02910099-29.4903224 44.67379317-18.8938377 84.79254527-45.94315387 119.24098528-80.38783502 17.27589635-17.28059378 32.69050203-35.98745748 46.15455743-55.97777492l-33.01277523-20.15662154zM337.81194936 800.64004116C240.36150023 741.58329122 175.10170153 634.51257184 175.10170153 512.47824156c0-60.5290579 16.05633256-117.37687585 44.13353954-166.50987439l-32.96955441-20.13125265a375.63869965 375.63869965 0 0 0-20.13407219 40.61108749c-19.56938977 46.26260831-29.49032241 95.39184874-29.49032163 146.03003954 0 50.63725224 9.92093265 99.76649192 29.49032163 146.03004034 18.8938377 44.67379317 45.93939577 84.79254527 80.3878358 119.24098528 22.88043904 22.87949893 48.2667136 42.49023007 75.82621707 58.619849l15.46628202-35.72907501z m1e-8 0" fill="#706EE7" p-id="7878"></path><path d="M544.02152683 699.01601668a340.72799057 340.72799057 0 0 0-9.05088961-17.11804857 357.69007001 357.69007001 0 0 0-2.87884575 45.40384035c0 45.95161015 8.67412132 90.573727 25.78841176 132.72946947a357.01076063 357.01076063 0 0 0 10.95164223-1.90732948c-16.72718642-40.32921634-25.97256778-84.51349288-25.97256777-130.82120066a346.24139497 346.24139497 0 0 1 1.16224914-28.28673111z m25.13353118-129.40714591c3.88136845 0.3297894 7.74770451 0.73004717 11.61028169 1.18855737a343.02524286 343.02524286 0 0 1 31.57804902-50.05659733 342.03211578 342.03211578 0 0 1-8.6741213-6.68316974 351.36863543 351.36863543 0 0 0-34.51420941 55.5512097z m45.52128607-60.83441851a339.69258357 339.69258357 0 0 1-3.40594564-4.37464394c-0.28281126 0.34858065-0.56374308 0.69340322-0.84561425 1.04292397a346.33535202 346.33535202 0 0 0 4.25155989 3.33171997z m20.87257487-31.24074344a357.65248749 357.65248749 0 0 0-17.13026219 18.37707353 327.58151018 327.58151018 0 0 0 6.85605069 8.80096344c51.95171243-60.60610313 124.67640436-102.91217643 207.02324673-115.76175249a339.65969847 339.65969847 0 0 0-4.03357948-10.30615727c-27.59238856 4.47047965-54.49701067 12.22194226-80.43951212 23.19613462-42.06272475 17.78984176-79.83724643 43.25691965-112.27594363 75.69373817zM537.58170564 664.83911286a354.10090845 354.10090845 0 0 1 8.59049998 14.7428125 339.76023239 339.76023239 0 0 1 29.51193244-98.5225001 336.39468878 336.39468878 0 0 0-11.50974778-1.04480342 348.20134088 348.20134088 0 0 0-4.32202751 9.79878871c-10.25448014 24.24187735-17.69024717 49.32467074-22.27441523 75.02664165h0.0037581z m0 0" fill="#FF7272" p-id="7879"></path><path d="M603.67302552 514.05672174a333.7056358 333.7056358 0 0 0 8.6713033 6.68316974 349.34573811 349.34573811 0 0 0 32.50916402 21.54060996 353.55125919 353.55125919 0 0 1-30.17245057-33.50604918 320.2650691 320.2650691 0 0 1-4.25531799-3.33171996c-33.88187817-26.94314472-62.56229018-60.15510836-84.26638547-97.87325627a359.39539232 359.39539232 0 0 1-10.54292893 3.5337279c15.66641052 27.71359317 35.02439672 53.16281914 57.82779053 75.96997103a356.51748513 356.51748513 0 0 0 30.22882511 26.98354678zM497.74482547 374.79441257a354.90612065 354.90612065 0 0 0 12.56676481 26.58328901 342.35908642 342.35908642 0 0 0 10.50910451-3.45386391c-25.56385372-47.929408-40.06519631-102.61527211-40.06519631-160.62252043 0-26.48463375 3.02072182-52.27492495 8.73895214-77.04859964-3.74419134 0.13529843-7.48744336 0.32697064-11.2269373 0.57971557-5.50212934 24.92776437-8.28419927 50.48692065-8.28419926 76.46888406 0 47.68323993 9.34121708 93.94209014 27.76151141 137.49309534zM651.02835548 533.23712879a343.27610836 343.27610836 0 0 0 33.10673151 28.85141353c0.52709914 0.22361796 1.05325971 0.45381277 1.58411771 0.67837082 43.54912654 18.42123367 89.80985618 27.76151141 137.49309534 27.76151065 7.59925235 0 15.15998208-0.23865111 22.68031054-0.71219448a349.69525886 349.69525886 0 0 0 2.29161397-10.96291729c-8.30956816 0.60226493-16.64074633 0.90668621-24.97192451 0.90668621-62.72765494 0-121.56830312-16.9602-172.18394456-46.52286944z m-239.26933085 22.50554938a343.9244121 343.9244121 0 0 1 35.71874005 24.51623231 349.54210851 349.54210851 0 0 1 13.37385644-3.29507601 350.86408565 350.86408565 0 0 0-43.21651838-30.4345919 351.27467838 351.27467838 0 0 1-5.87889688 9.2134356h0.00281877z m150.37085907 156.72799828a352.98187857 352.98187857 0 0 0-24.55099683-47.63532168c-14.38577476-23.34928496-31.48033387-44.97821445-51.14180126-64.63968261a361.33748555 361.33748555 0 0 0-15.21259774-14.34913159 341.62809993 341.62809993 0 0 0-13.27520196 2.95401232c30.83296946 26.16611942 56.98781382 57.68215713 77.01759322 93.09835456a340.38222869 340.38222869 0 0 1 9.0546477 17.11804856c22.46514811 45.56168812 35.10144196 96.80496339 35.10144196 150.94775588 0 2.01913845-0.02536812 4.02982137-0.05731387 6.03768477 3.61546978-0.80239419 7.21590717-1.66304083 10.8050695-2.57912267 0.01127507-1.15003553 0.01973136-2.30100961 0.01973059-3.45856209 0.00093933-47.68417926-9.33745898-93.94209014-27.76057131-137.49403545zM408.15858724 541.06939472a353.61421059 353.61421059 0 0 0-33.99650591-16.57121807 355.70663542 355.70663542 0 0 0-15.05850806-5.96157964 349.89538735 349.89538735 0 0 1 11.1311008 16.09391585 341.65065004 341.65065004 0 0 1 32.02246616 15.64198173 351.30192592 351.30192592 0 0 0 5.90144701-9.20309987z m-55.7090575-13.41144049a342.29801445 342.29801445 0 0 0-11.72303-15.35259361C307.19508165 501.96256018 272.32853273 496.73666524 236.66898521 496.73666524c-29.49408051 0-58.43663308 3.5788266-86.53638943 10.66225411a357.12914647 357.12914647 0 0 0-0.03288508 4.81154487c0 2.12812867 0.02630822 4.24592237 0.0629514 6.36653407 27.64312557-7.22248403 56.63077686-11.07284683 86.50632311-11.07284683 40.61484558 0.00093933 79.59953542 7.11725192 115.78054454 20.15380277z m102.77593866-113.98878136a335.89671587 335.89671587 0 0 0 11.17620028-1.73256987 356.79465886 356.79465886 0 0 0 3.58164538-50.59778952c0-47.67948184-9.34027774-93.93833204-27.75775333-137.49215678a353.28817929 353.28817929 0 0 0-27.77936256-52.7813534 344.36225238 344.36225238 0 0 0-11.06533063 3.04233183c35.29217482 53.84588739 55.83777907 118.18396749 55.83777907 187.23493644a344.03152365 344.03152365 0 0 1-3.99317821 52.3266013zM293.86914269 667.04522608c20.57473122-19.87850847 43.26067852-37.01159019 67.86898845-51.24045649a382.70615467 382.70615467 0 0 0 4.78993409-4.69409838 358.40508402 358.40508402 0 0 0 20.77673838-22.64084783 332.88257092 332.88257092 0 0 0-5.10187156-10.9920435C336.27856944 633.77125038 272.84247813 675.2364084 200.28221007 693.49227733a358.67943898 358.67943898 0 0 0 6.01231665 9.64281959 351.41937166 351.41937166 0 0 0 47.95853422-16.32505 353.73729386 353.73729386 0 0 0 39.61608175-19.76482084z m0 0" fill="#29C287" p-id="7880"></path><path d="M402.25714023 550.27343393c-4.05518949 6.10721303-8.30581007 12.08288572-12.73870642 17.91856332a341.09254449 341.09254449 0 0 1 2.54999645 5.15542734c0.93957129 1.94491276 1.86129067 3.90485791 2.76797688 5.86856191a351.35266216 351.35266216 0 0 0 22.7986956-32.68674393 353.26375051 353.26375051 0 0 0 24.590458-47.69451499c10.33152537-24.42885212 17.80769369-49.70895601 22.37776869-75.61293407a356.44138 356.44138 0 0 1-11.29364679 1.61136448c-7.89051913 41.92084946-23.44512068 81.1733174-45.1510954 116.23529663a351.40245984 351.40245984 0 0 1-5.90144701 9.20497931z m137.36719331-237.25958803c1.61136449 24.68911326 5.73514292 48.87179729 12.29898748 72.36859509a334.48453978 334.48453978 0 0 0 10.0195879-4.81154411c-19.04604872-69.86933564-15.79137399-144.92886236 10.53353331-213.55044735a340.42732816 340.42732816 0 0 0-10.84171268-2.01444102 357.48618341 357.48618341 0 0 0-4.85570426 13.68955278c-14.37262104 43.35181681-20.14064904 88.54331348-17.15469175 134.32204271v-0.0037581z m126.61098215 234.40798982a344.86022529 344.86022529 0 0 1-15.20790032-14.18470693 341.61494619 341.61494619 0 0 1-32.6096987-37.32634644c-24.12443084-32.04783505-41.95937208-67.5532921-53.39019519-104.72179075a343.19248627 343.19248627 0 0 1-9.98482339 4.71946573 352.95463102 352.95463102 0 0 0 19.05356493 48.05812957c10.38320171 21.47014237 22.808092 41.66058832 37.17319607 60.43322142a353.25999241 353.25999241 0 0 0 33.58215508 37.88069312 360.79441392 360.79441392 0 0 0 14.2824221 13.23480069c49.08508028 43.06900554 108.73188077 71.40365568 172.21682965 82.4765025a364.23794209 364.23794209 0 0 0 3.74701012-10.28454724 342.15989724 342.15989724 0 0 1-150.9646677-65.61871507 345.92194053 345.92194053 0 0 1-17.89789265-14.6667066z m0 0" fill="#FFC107" p-id="7881"></path><path d="M561.94290892 380.57089688a334.48453978 334.48453978 0 0 1-10.0195879 4.81154411 341.98607697 341.98607697 0 0 1-31.10356556 12.54139668 342.69827144 342.69827144 0 0 1-65.59522639 15.7453352 342.58646246 342.58646246 0 0 1-46.84984007 3.21897088c-78.03984727 0-153.52499989-26.66785043-214.20720815-75.38273926a348.40992567 348.40992567 0 0 0-5.16482298 9.65315453c62.3208203 49.44775477 139.54887774 76.50082904 219.37203113 76.50082905a357.27196109 357.27196109 0 0 0 44.93405432-2.82247199 349.88035421 349.88035421 0 0 0 62.30296836-13.73371215c3.53090835-1.12278797 7.04678433-2.30100961 10.54292894-3.5337279a355.98005105 355.98005105 0 0 0 25.66344829-10.20374314 405.71437518 405.71437518 0 0 0 3.22460918-1.45351669 358.20871362 358.20871362 0 0 0 9.98106452-4.72322459c41.48770738-20.44694899 78.10373801-48.58616804 108.99590077-83.79472078 19.00940555-21.66087524 35.09956252-45.18022239 48.15114652-70.30999468a367.59878826 367.59878826 0 0 0-8.70982515-6.74893991c-12.61656248 24.6740801-28.44176091 48.19718534-47.53854663 69.95765515a342.10446281 342.10446281 0 0 1-103.9795292 80.27790549z m-165.86626808 229.72516651a345.50289228 345.50289228 0 0 0-3.87197282-10.18119379 352.666183 352.666183 0 0 0-30.46653688 15.68989999c-24.60455182 14.22980641-47.29425722 31.36194803-67.86898845 51.24045649a361.39949762 361.39949762 0 0 0-20.51647725 21.52933491c-14.5379858 16.57027796-27.37252871 34.22764006-38.44537631 52.8612174a354.61673252 354.61673252 0 0 0 7.54945545 8.51909228 342.97544517 342.97544517 0 0 1 38.99220602-54.27996958c32.12863838-36.61603063 71.30875852-65.50784619 114.62769023-85.3788377z m375.75614616 45.73926727c-53.91729509-47.31023048-120.57705548-76.83531665-191.06650797-85.23790252a352.16163323 352.16163323 0 0 0-41.76488111-2.48422628c-26.55604146 0-52.67706139 2.89951643-78.14883748 8.65063261a351.28689277 351.28689277 0 0 0-13.37385643 3.29507601 353.17167212 353.17167212 0 0 0-45.48088558 15.57715167 358.90211761 358.90211761 0 0 1 3.88700676 10.14079173 342.80350356 342.80350356 0 0 1 133.11657273-26.89522647 345.95012819 345.95012819 0 0 1 36.68743833 1.97309963c69.7462516 7.52502589 135.8009283 36.35670882 189.04079189 83.07500934a343.4734181 343.4734181 0 0 1 35.45190206 36.03819449 372.22241827 372.22241827 0 0 0 5.92023825-9.70107279 358.33555575 358.33555575 0 0 0-34.26898145-34.43152742z m0 0" fill="#FF7272" p-id="7882"></path><path d="M426.53566077 704.29734606c-2.20893199-33.8828175-9.1420279-66.8185475-20.65553379-98.32049218a347.67893918 347.67893918 0 0 0-3.88324789-10.14079173 359.86329892 359.86329892 0 0 0-9.92844883-22.48769822 359.6284059 359.6284059 0 0 0-2.54999645-5.15542735 351.06139538 351.06139538 0 0 0-19.28375974-33.56148439 349.89538735 349.89538735 0 0 0-11.1311008-16.09391585c-15.12145947-20.6113744-32.51856042-39.58225657-52.07291702-56.74164573-39.21300522-34.40427987-85.16367605-59.4090887-134.42539539-73.71969844a353.77017895 353.77017895 0 0 0-3.64741553 10.1558249 342.43988974 342.43988974 0 0 1 130.97059216 71.65733993 346.74500542 346.74500542 0 0 1 40.79806225 42.41600362 342.29801445 342.29801445 0 0 1 11.72303 15.35259361 338.37624395 338.37624395 0 0 1 43.62711109 82.63904849c10.88587206 30.08601048 17.57280067 61.89049699 19.71596249 94.70220361 3.21897088 49.34346277-4.05518949 97.76426604-20.94586123 142.70489723a343.98736349 343.98736349 0 0 0 10.24790328 3.10998067 347.82927 347.82927 0 0 0 4.29008252-12.19657413c14.36886294-43.35463557 20.13876961-88.54425358 17.15093288-134.32016404z m-1e-8 0" fill="#FFC107" p-id="7883"></path></svg>