<?xml version="1.0" standalone="no"?><!DOCTYPE svg PUBLIC "-//W3C//DTD SVG 1.1//EN" "http://www.w3.org/Graphics/SVG/1.1/DTD/svg11.dtd"><svg t="1642656659380" class="icon" viewBox="0 0 1024 1024" version="1.1" xmlns="http://www.w3.org/2000/svg" p-id="3135" xmlns:xlink="http://www.w3.org/1999/xlink" width="200" height="200"><defs><style type="text/css"></style></defs><path d="M753.1 670.8h-481c-10.4 0-18.8 8.4-18.8 18.8s8.4 18.8 18.8 18.8h481c10.4 0 18.8-8.4 18.8-18.8s-8.4-18.8-18.8-18.8z" fill="#4E30DC" p-id="3136"></path><path d="M753.1 713.9h-481c-13.4 0-24.3-10.9-24.3-24.3s10.9-24.3 24.3-24.3h481c13.4 0 24.3 10.9 24.3 24.3 0.1 13.4-10.8 24.3-24.3 24.3z m-480.9-37.6c-7.3 0-13.3 6-13.3 13.3 0 7.3 6 13.3 13.3 13.3h481c7.3 0 13.3-6 13.3-13.3 0-7.3-6-13.3-13.3-13.3h-481z" fill="#4E30DC" p-id="3137"></path><path d="M322.9 425.9c-13.4 0-24.3 10.9-24.3 24.3V606c0 13.4 10.9 24.3 24.3 24.3s24.3-10.9 24.3-24.3V450.2c0-13.4-10.9-24.3-24.3-24.3zM708.1 527.9c-13.4 0-24.3 10.9-24.3 24.3V606c0 13.4 10.9 24.3 24.3 24.3s24.3-10.9 24.3-24.3v-53.8c0.1-13.4-10.9-24.3-24.3-24.3zM451.3 252.9c-13.4 0-24.3 10.9-24.3 24.3V606c0 13.4 10.9 24.3 24.3 24.3s24.3-10.9 24.3-24.3V277.2c0-13.4-10.9-24.3-24.3-24.3zM579.7 344c-13.4 0-24.3 10.9-24.3 24.3V606c0 13.4 10.9 24.3 24.3 24.3S604 619.4 604 606V368.3c0-13.4-10.9-24.3-24.3-24.3z" fill="#FF4E7D" p-id="3138"></path><path d="M932 437c-8.5-46.5-24.6-91-47.9-132.3-22.8-40.3-51.8-76.5-86.3-107.5-34.9-31.5-74.4-56.8-117.4-75.2-43.8-18.8-90.1-29.9-137.8-33.2-43.2-3-86.4 0.6-128.3 10.6-38.7 9.2-75.8 23.9-110.5 43.6-33.9 19.2-65 43-92.5 70.7-27.7 27.9-51.3 59.3-70.3 93.5a422.74 422.74 0 0 0-42.5 110.5c-9.7 42.2-12.9 85.6-9.5 129.1 3.2 40.3 12 79.8 26.3 117.4 14 36.8 33.1 71.5 56.7 103.2 23.3 31.2 50.7 59.1 81.5 82.9 31.1 24 65.3 43.6 101.6 58.2 37.5 15 76.9 24.6 117.2 28.5 13.5 1.3 27.3 1.9 40.9 1.9h6.3l-1.9 0.9 27.9-2.1c47.6-3.6 93.9-15.1 137.6-34.2 42.9-18.8 82.3-44.4 117.1-76.3 34.3-31.4 63.1-68 85.6-108.6 23.2-41.9 38.9-87 46.9-134.1 8.5-49.1 8.2-98.7-0.7-147.5z m-69.7 218.7c-25.2 61.8-66.7 116-119.9 156.8-54.1 41.5-118.3 67.5-185.8 75.2-17.5 2-35.4 2.8-53.2 2.3-77.6-2-154.4-28.9-216.3-75.6C223 766 175.2 697.7 152.4 622c-24.9-82.7-20.6-172.1 12.2-251.7 28.5-69.3 78.9-130.2 141.9-171.7 73.7-48.5 162.4-69.8 249.9-59.8 79.1 9 154.9 43.9 213.5 98.3 58.3 54.2 98.6 126.7 113.6 204.3 13.6 71.4 6.1 147.5-21.2 214.3z" fill="#4E30DC" p-id="3139"></path></svg>