<?xml version="1.0" standalone="no"?><!DOCTYPE svg PUBLIC "-//W3C//DTD SVG 1.1//EN" "http://www.w3.org/Graphics/SVG/1.1/DTD/svg11.dtd"><svg t="1642682162818" class="icon" viewBox="0 0 1024 1024" version="1.1" xmlns="http://www.w3.org/2000/svg" p-id="9618" xmlns:xlink="http://www.w3.org/1999/xlink" width="200" height="200"><defs><style type="text/css"></style></defs><path d="M165.8 592.9h117V835h-117zM357.6 519.8h117V835h-117zM549.4 457.5h117v377.6h-117zM741.2 389.1h117v446h-117z" fill="#6F2AFF" p-id="9619"></path><path d="M907 833.1H117c-11 0-20 9-20 20s9 20 20 20h66.9v30c0 11 9 20 20 20s20-9 20-20v-30h112.4v30c0 11 9 20 20 20s20-9 20-20v-30h112.5v30c0 11 9 20 20 20s20-9 20-20v-30h112.4v30c0 11 9 20 20 20s20-9 20-20v-30h112.4v30c0 11 9 20 20 20s20-9 20-20v-30H907c11 0 20-9 20-20s-9-20-20-20z" fill="#FAD60E" p-id="9620"></path><path d="M862.9 144.5c-2.3-4.8-6.3-8.6-11.3-10.4l-87.4-32c-10.4-3.8-21.9 1.5-25.7 11.9-3.8 10.4 1.5 21.9 11.9 25.7l41.9 15.3-621.5 288.4c-10 4.7-14.3 16.6-9.7 26.6 3.4 7.3 10.7 11.6 18.2 11.6 2.8 0 5.7-0.6 8.4-1.9l621.6-288.4-15.4 42c-3.8 10.4 1.5 21.9 11.9 25.7 2.3 0.8 4.6 1.2 6.9 1.2 8.2 0 15.8-5 18.8-13.1l32-87.3c1.9-5 1.6-10.5-0.6-15.3z" fill="#F5461A" p-id="9621"></path></svg>