<?xml version="1.0" standalone="no"?><!DOCTYPE svg PUBLIC "-//W3C//DTD SVG 1.1//EN" "http://www.w3.org/Graphics/SVG/1.1/DTD/svg11.dtd"><svg t="1642682177525" class="icon" viewBox="0 0 1024 1024" version="1.1" xmlns="http://www.w3.org/2000/svg" p-id="10241" xmlns:xlink="http://www.w3.org/1999/xlink" width="200" height="200"><defs><style type="text/css"></style></defs><path d="M268.3 371.3v281.4l-120 69.3V302z" fill="#3282FE" p-id="10242"></path><path d="M512 793.4V932L148.3 722l120-69.3z" fill="#5E9902" p-id="10243"></path><path d="M875.7 722L512 932V793.4l243.7-140.7z" fill="#A6DB20" p-id="10244"></path><path d="M875.7 302v420l-120-69.3V371.3z" fill="#F9980D" p-id="10245"></path><path d="M875.7 302l-120 69.3L512 230.6V92z" fill="#FAD60E" p-id="10246"></path><path d="M512 92v138.6L268.3 371.3l-120-69.3z" fill="#0752D8" p-id="10247"></path><path d="M357 406.3h56c6.6 0 12 5.4 12 12v16c0 6.6-5.4 12-12 12h-56c-6.6 0-12-5.4-12-12v-16c0-6.6 5.4-12 12-12zM474.3 406.3H667c6.6 0 12 5.4 12 12v16c0 6.6-5.4 12-12 12H474.3c-6.6 0-12-5.4-12-12v-16c0-6.6 5.4-12 12-12zM357 492h56c6.6 0 12 5.4 12 12v16c0 6.6-5.4 12-12 12h-56c-6.6 0-12-5.4-12-12v-16c0-6.6 5.4-12 12-12zM474.3 492H667c6.6 0 12 5.4 12 12v16c0 6.6-5.4 12-12 12H474.3c-6.6 0-12-5.4-12-12v-16c0-6.6 5.4-12 12-12z" fill="#F5461A" p-id="10248"></path><path d="M357 577.7h56c6.6 0 12 5.4 12 12v16c0 6.6-5.4 12-12 12h-56c-6.6 0-12-5.4-12-12v-16c0-6.6 5.4-12 12-12zM474.3 577.7H667c6.6 0 12 5.4 12 12v16c0 6.6-5.4 12-12 12H474.3c-6.6 0-12-5.4-12-12v-16c0-6.6 5.4-12 12-12z" fill="#F5461A" p-id="10249"></path></svg>