<?xml version="1.0" standalone="no"?><!DOCTYPE svg PUBLIC "-//W3C//DTD SVG 1.1//EN" "http://www.w3.org/Graphics/SVG/1.1/DTD/svg11.dtd"><svg t="1642682078053" class="icon" viewBox="0 0 1024 1024" version="1.1" xmlns="http://www.w3.org/2000/svg" p-id="5484" xmlns:xlink="http://www.w3.org/1999/xlink" width="200" height="200"><defs><style type="text/css"></style></defs><path d="M468.16142222 526.53700741L423.49985185 485.75905185c-2.91271111-2.91271111-4.85451852 0-7.76722963 2.91271111L372.04195555 523.6242963c-2.91271111 2.91271111-7.76722963 2.91271111-10.67994075 0l-88.35223703-106.79940742c-2.91271111-2.91271111-7.76722963-2.91271111-10.67994075 0l-75.73048888 69.90506667c-2.91271111 2.91271111-2.91271111 2.91271111-2.91271112 5.82542223V611.00562963h286.4165926v-78.6432c0.9709037-2.91271111 0.9709037-5.82542222-1.9418074-5.82542222z m-49.5160889-118.45025186c0 17.47626667 10.67994075 29.12711111 26.2144 29.12711111s26.2144-11.65084445 26.2144-29.12711111-10.67994075-29.12711111-26.2144-29.12711111-26.2144 11.65084445-26.2144 29.12711111z" fill="#FFC107" p-id="5485"></path><path d="M105.04343702 261.4802963v436.90666666h436.90666667V261.4802963h-436.90666667z m393.216 382.53605925h-349.52533333V315.8509037h349.52533333v328.16545185z" fill="#29C287" p-id="5486"></path><path d="M913.80622222 636.70044445h-40.96L735.40266666 395.49155555v241.2088889h-45.51111111V293.54666667h40.96l137.44355556 241.20888888V293.54666667h45.51111111v343.15377778z" fill="#706EE7" p-id="5487"></path></svg>