<?xml version="1.0" standalone="no"?><!DOCTYPE svg PUBLIC "-//W3C//DTD SVG 1.1//EN" "http://www.w3.org/Graphics/SVG/1.1/DTD/svg11.dtd"><svg t="1642682169839" class="icon" viewBox="0 0 1024 1024" version="1.1" xmlns="http://www.w3.org/2000/svg" p-id="9940" xmlns:xlink="http://www.w3.org/1999/xlink" width="200" height="200"><defs><style type="text/css"></style></defs><path d="M369.9 270.7l-70-121.3c-64 37.5-117.2 91.5-153.8 156.2C111.7 366.6 92 437 92 512v4.9c0.9 76.2 22 147.5 58.3 208.8C187.5 788.5 240.6 840.8 304 877l70-121.3c-42.2-23.9-77.6-58.5-102.5-100.1-24.4-40.7-38.7-88.1-39.6-138.8v-4.9c0-49.5 12.8-96 35.4-136.3 24.3-43.3 59.8-79.6 102.6-104.9z" fill="#FAD60E" p-id="9941"></path><path d="M512 232V92c-77.4 0-149.9 20.9-212.2 57.5l70 121.3C411.5 246.1 460.1 232 512 232z" fill="#F5461A" p-id="9942"></path><path d="M877.9 305.7C841.4 241 788.2 187 724.2 149.5 661.9 112.9 589.4 92 512 92v140c51.9 0 100.5 14.1 142.1 38.7 42.8 25.2 78.2 61.5 102.5 105l121.3-70z" fill="#3282FE" p-id="9943"></path><path d="M932 512c0-75-19.7-145.4-54.1-206.3l-121.3 70C779.2 416 792 462.5 792 512v4.9c-0.9 50.7-15.2 98.1-39.6 138.8-24.9 41.6-60.3 76.1-102.5 100.1l70 121.3c63.4-36.2 116.5-88.5 153.7-151.3 36.3-61.3 57.5-132.6 58.3-208.8 0.1-1.7 0.1-3.4 0.1-5z" fill="#A6DB20" p-id="9944"></path><path d="M719.9 877l-70-121.3C609.2 778.8 562.1 792 512 792s-97.2-13.2-137.9-36.3l-70 121.3c61.3 35 132.3 55 207.9 55s146.6-20 207.9-55z" fill="#F9980D" p-id="9945"></path><path d="M512 516.9L411 342c-30.3 18-55.3 43.9-72.4 74.8-15.5 28.2-24.4 60.7-24.4 95.2 0 1.6 0 3.3 0.1 4.9 0.9 35.7 11.2 69 28.6 97.6 17.7 29.1 42.6 53.2 72.3 69.9L512 516.9z" fill="#FAD60E" p-id="9946"></path><path d="M608.7 684.5L512 516.9l-96.7 167.6c28.6 16.1 61.6 25.2 96.7 25.2s68.2-9.2 96.7-25.2z" fill="#F9980D" p-id="9947"></path><path d="M709.7 512c0-34.5-8.8-66.9-24.4-95.2L512 516.9l96.7 167.6c29.7-16.7 54.7-40.9 72.3-69.9 17.4-28.6 27.7-61.9 28.6-97.6 0.1-1.7 0.1-3.4 0.1-5z" fill="#A6DB20" p-id="9948"></path><path d="M685.3 416.8c-17-30.9-42.1-56.8-72.4-74.8-29.5-17.6-64.1-27.7-101-27.7v202.6l173.4-100.1z" fill="#3282FE" p-id="9949"></path><path d="M500.9 475.3V272.7c-36.9 0-71.4 10.1-101 27.7l101 174.9z" fill="#F5461A" p-id="9950"></path></svg>