<?xml version="1.0" standalone="no"?><!DOCTYPE svg PUBLIC "-//W3C//DTD SVG 1.1//EN" "http://www.w3.org/Graphics/SVG/1.1/DTD/svg11.dtd"><svg t="1642682143572" class="icon" viewBox="0 0 1024 1024" version="1.1" xmlns="http://www.w3.org/2000/svg" p-id="9014" xmlns:xlink="http://www.w3.org/1999/xlink" width="200" height="200"><defs><style type="text/css"></style></defs><path d="M867 796.9H426V530.8h386c11 0 20-9 20-20s-9-20-20-20H426V224.6h441c11 0 20-9 20-20s-9-20-20-20H418c-17.6 0-32 13.6-32 30.4v275.8H244c-11 0-20 9-20 20s9 20 20 20h142v275.7c0 16.8 14.4 30.4 32 30.4h449c11 0 20-9 20-20s-9-20-20-20z" fill="#FAD60E" p-id="9015"></path><path d="M252 640.9H137.2c-6.6 0-12-5.4-12-12V392.6c0-6.6 5.4-12 12-12H252c6.6 0 12 5.4 12 12V629c0 6.5-5.4 11.9-12 11.9z" fill="#F5461A" p-id="9016"></path><path d="M671.1 334.8H556.2c-6.6 0-12-5.4-12-12V86.4c0-6.6 5.4-12 12-12h114.9c6.6 0 12 5.4 12 12v236.4c0 6.6-5.4 12-12 12z" fill="#A6DB20" p-id="9017"></path><path d="M886.8 334.8H772c-6.6 0-12-5.4-12-12V86.4c0-6.6 5.4-12 12-12h114.9c6.6 0 12 5.4 12 12v236.4c-0.1 6.6-5.5 12-12.1 12z" fill="#69B209" p-id="9018"></path><path d="M671.1 640.9H556.2c-6.6 0-12-5.4-12-12V392.6c0-6.6 5.4-12 12-12h114.9c6.6 0 12 5.4 12 12V629c0 6.5-5.4 11.9-12 11.9z" fill="#F9AB10" p-id="9019"></path><path d="M886.8 640.9H772c-6.6 0-12-5.4-12-12V392.6c0-6.6 5.4-12 12-12h114.9c6.6 0 12 5.4 12 12V629c-0.1 6.5-5.5 11.9-12.1 11.9z" fill="#F9980D" p-id="9020"></path><path d="M671.1 949.6H556.2c-6.6 0-12-5.4-12-12V701.2c0-6.6 5.4-12 12-12h114.9c6.6 0 12 5.4 12 12v236.4c0 6.6-5.4 12-12 12z" fill="#3282FE" p-id="9021"></path><path d="M886.8 949.6H772c-6.6 0-12-5.4-12-12V701.2c0-6.6 5.4-12 12-12h114.9c6.6 0 12 5.4 12 12v236.4c-0.1 6.6-5.5 12-12.1 12z" fill="#0A62E2" p-id="9022"></path></svg>