<?xml version="1.0" standalone="no"?><!DOCTYPE svg PUBLIC "-//W3C//DTD SVG 1.1//EN" "http://www.w3.org/Graphics/SVG/1.1/DTD/svg11.dtd"><svg t="1642682150784" class="icon" viewBox="0 0 1024 1024" version="1.1" xmlns="http://www.w3.org/2000/svg" p-id="9315" xmlns:xlink="http://www.w3.org/1999/xlink" width="200" height="200"><defs><style type="text/css"></style></defs><path d="M268.4 512c0-34.3-23.2-63.3-54.8-72.1V332.2c31.6-8.8 54.8-37.8 54.8-72.1s-23.2-63.3-54.8-72.1v-71c0-11-8.9-20-20-20-11 0-20 9-20 20v71c-31.6 8.8-54.8 37.8-54.8 72.1s23.2 63.3 54.8 72.1v107.7c-31.6 8.8-54.8 37.8-54.8 72.1s23.2 63.3 54.8 72.1v107.7c-31.6 8.8-54.8 37.8-54.8 72.1s23.2 63.3 54.8 72.1v71c0 11 9 20 20 20 11.1 0 20-9 20-20v-71c31.6-8.8 54.8-37.8 54.8-72.1s-23.2-63.3-54.8-72.1V584.1c31.6-8.8 54.8-37.8 54.8-72.1zM158.8 260.1c0-11.8 5.9-22.2 14.8-28.5 5.7-4 12.6-6.3 20-6.3s14.3 2.3 20 6.3c8.9 6.3 14.8 16.7 14.8 28.5s-5.9 22.2-14.8 28.5c-5.7 4-12.6 6.3-20 6.3s-14.3-2.3-20-6.3c-8.9-6.3-14.8-16.8-14.8-28.5z m69.6 503.8c0 11.8-5.9 22.2-14.8 28.5-5.7 4-12.6 6.3-20 6.3s-14.3-2.3-20-6.3c-8.9-6.3-14.8-16.7-14.8-28.5s5.9-22.2 14.8-28.5c5.7-4 12.6-6.3 20-6.3s14.3 2.3 20 6.3c8.9 6.3 14.8 16.8 14.8 28.5z m-34.8-217.1c-7.4 0-14.3-2.3-20-6.3-8.9-6.3-14.8-16.7-14.8-28.5s5.9-22.2 14.8-28.5c5.7-4 12.6-6.3 20-6.3s14.3 2.3 20 6.3c8.9 6.3 14.8 16.7 14.8 28.5s-5.9 22.2-14.8 28.5c-5.7 4-12.6 6.3-20 6.3z" fill="#FAD60E" p-id="9316"></path><path d="M873.1 414.7H373.9c-6.6 0-12 5.4-12 12v47.2l-39.4 28.4c-6.7 4.8-6.7 14.7 0 19.5l39.4 28.4v47.2c0 6.6 5.4 12 12 12h499.2c6.6 0 12-5.4 12-12V426.7c0-6.6-5.4-12-12-12z" fill="#A6DB20" p-id="9317"></path><path d="M873.1 162.7H373.9c-6.6 0-12 5.4-12 12v47.2l-39.4 28.4c-6.7 4.8-6.7 14.7 0 19.5l39.4 28.4v47.2c0 6.6 5.4 12 12 12h499.2c6.6 0 12-5.4 12-12V174.7c0-6.6-5.4-12-12-12z" fill="#6F2AFF" p-id="9318"></path><path d="M873.1 666.6H373.9c-6.6 0-12 5.4-12 12v47.2l-39.4 28.4c-6.7 4.8-6.7 14.7 0 19.5l39.4 28.4v47.2c0 6.6 5.4 12 12 12h499.2c6.6 0 12-5.4 12-12V678.6c0-6.6-5.4-12-12-12z" fill="#3282FE" p-id="9319"></path><path d="M402.7 203.9h332.2v40H402.7zM402.7 276h427.7v40H402.7zM402.7 455.9h332.2v40H402.7zM402.7 528.1h427.7v40H402.7z" fill="#FFFFFF" p-id="9320"></path><path d="M402.7 707.9h332.2v40H402.7zM402.7 780h427.7v40H402.7z" fill="#FFFFFF" p-id="9321"></path></svg>