<?xml version="1.0" standalone="no"?><!DOCTYPE svg PUBLIC "-//W3C//DTD SVG 1.1//EN" "http://www.w3.org/Graphics/SVG/1.1/DTD/svg11.dtd"><svg t="1642682154110" class="icon" viewBox="0 0 1024 1024" version="1.1" xmlns="http://www.w3.org/2000/svg" p-id="9465" xmlns:xlink="http://www.w3.org/1999/xlink" width="200" height="200"><defs><style type="text/css"></style></defs><path d="M512 92v320c-26.7 0-51.8 10.4-70.7 29.3-1.9 1.9-3.7 3.9-5.4 5.9L266 277.3l-56.6-56.6C285.8 141.4 393.1 92 512 92z" fill="#FAD60E" p-id="9466"></path><path d="M412 512c0 3.8 0.2 7.6 0.6 11.4H172.2c-0.1-3.8-0.2-7.6-0.2-11.4 0-88.1 33.3-171.2 94-234.7l169.9 169.9C420.4 465.3 412 488 412 512z" fill="#4325D6" p-id="9467"></path><path d="M447.2 588.2L220.8 814.6C143.9 740.7 95.2 637.7 92.2 523.4h320.5c2.5 22.4 12.5 43.2 28.6 59.4 1.9 1.8 3.9 3.6 5.9 5.4z" fill="#6F2AFF" p-id="9468"></path><path d="M512 612v160c-66.8 0-129.7-25-178.1-70.6l113.3-113.3C465.3 603.6 488 612 512 612z" fill="#0A62E2" p-id="9469"></path><path d="M746.7 758c-63.5 60.7-146.5 94-234.7 94V612c24 0 46.7-8.4 64.8-23.8l113.3 113.3 56.6 56.5z" fill="#3282FE" p-id="9470"></path><path d="M771.8 523.4c-2.8 65.2-29.5 126.1-75.9 172.5-1.9 1.9-3.8 3.8-5.8 5.6L576.8 588.2c2-1.7 4-3.5 5.9-5.4 16.2-16.2 26.1-36.9 28.6-59.4h160.5z" fill="#69B209" p-id="9471"></path><path d="M692 512c0 3.8-0.1 7.6-0.3 11.4h-80.3c0.4-3.7 0.6-7.5 0.6-11.4 0-24-8.4-46.7-23.8-64.8l56.7-56.7C675.3 423.8 692 466.6 692 512z" fill="#F9980D" p-id="9472"></path><path d="M644.8 390.5l-56.7 56.7C603.6 465.3 612 488 612 512c0 3.8-0.2 7.6-0.6 11.4h80.3c0.2-3.8 0.3-7.5 0.3-11.4 0-45.4-16.7-88.2-47.2-121.5z" fill="#A6DB20" p-id="9473"></path><path d="M701.4 333.9L588.2 447.2c-1.7-2-3.5-4-5.4-5.9-18.9-18.9-44-29.3-70.7-29.3V252c69.5 0 134.7 27 183.8 76.2 1.9 1.8 3.7 3.8 5.5 5.7z" fill="#F9AB10" p-id="9474"></path></svg>