<?xml version="1.0" standalone="no"?><!DOCTYPE svg PUBLIC "-//W3C//DTD SVG 1.1//EN" "http://www.w3.org/Graphics/SVG/1.1/DTD/svg11.dtd"><svg t="1642682173602" class="icon" viewBox="0 0 1024 1024" version="1.1" xmlns="http://www.w3.org/2000/svg" p-id="10094" xmlns:xlink="http://www.w3.org/1999/xlink" width="200" height="200"><defs><style type="text/css"></style></defs><path d="M766.1 624.9h117V867h-117zM584.3 551.8h117V867h-117zM402.5 489.5h117v377.6h-117zM220.7 421.1h117v446h-117z" fill="#3282FE" p-id="10095"></path><path d="M932 862H162V92c0-11-9-20-20-20s-20 9-20 20v66.9H92c-11 0-20 9-20 20s9 20 20 20h30v112.4H92c-11 0-20 9-20 20s9 20 20 20h30v112.5H92c-11 0-20 9-20 20s9 20 20 20h30v112.4H92c-11 0-20 9-20 20s9 20 20 20h30v112.4H92c-11 0-20 9-20 20s9 20 20 20h30V882c0 11 9 20 20 20h66.9v30c0 11 9 20 20 20s20-9 20-20v-30h112.4v30c0 11 9 20 20 20s20-9 20-20v-30h112.5v30c0 11 9 20 20 20s20-9 20-20v-30h112.4v30c0 11 9 20 20 20s20-9 20-20v-30h112.4v30c0 11 9 20 20 20s20-9 20-20v-30H932c11 0 20-9 20-20s-9-20-20-20z" fill="#FAD60E" p-id="10096"></path><path d="M888.9 496.7c0-0.1 0.1-0.3 0.1-0.4 0.1-0.6 0.2-1.2 0.3-1.7v-0.2c0.1-0.6 0.1-1.2 0.2-1.8v-0.2-1.7-0.3c0-0.5-0.1-1-0.2-1.5 0-0.1 0-0.3-0.1-0.4-0.1-0.5-0.2-0.9-0.3-1.4 0-0.2-0.1-0.4-0.1-0.5-0.2-0.6-0.4-1.3-0.6-1.9l-32-87.3c-3.8-10.4-15.3-15.7-25.7-11.9-10.4 3.8-15.7 15.3-11.9 25.7l15.4 41.9-621.4-288.3c-10-4.6-21.9-0.3-26.6 9.7s-0.3 21.9 9.7 26.6l621.6 288.4-42.1 15.4c-10.4 3.8-15.7 15.3-11.9 25.7 3 8.1 10.6 13.1 18.8 13.1 2.3 0 4.6-0.4 6.9-1.2l87.4-32c0.5-0.2 1.1-0.4 1.6-0.7 0.1-0.1 0.3-0.1 0.4-0.2 0.5-0.2 0.9-0.5 1.3-0.7 0.1 0 0.1-0.1 0.2-0.1 0.5-0.3 1-0.7 1.5-1 0.1 0 0.1-0.1 0.2-0.1 0.4-0.3 0.8-0.7 1.3-1l0.2-0.2c0.9-0.8 1.7-1.7 2.4-2.7 0.1-0.1 0.1-0.2 0.2-0.3 0.3-0.4 0.6-0.8 0.8-1.2 0.1-0.1 0.2-0.3 0.2-0.4 0.3-0.5 0.6-1 0.8-1.6 0.3-0.6 0.5-1.2 0.7-1.8 0.5-0.8 0.6-1.3 0.7-1.8z" fill="#A6DB20" p-id="10097"></path></svg>