<?xml version="1.0" standalone="no"?><!DOCTYPE svg PUBLIC "-//W3C//DTD SVG 1.1//EN" "http://www.w3.org/Graphics/SVG/1.1/DTD/svg11.dtd"><svg t="1642682184834" class="icon" viewBox="0 0 1024 1024" version="1.1" xmlns="http://www.w3.org/2000/svg" p-id="10393" xmlns:xlink="http://www.w3.org/1999/xlink" width="200" height="200"><defs><style type="text/css"></style></defs><path d="M280 331.9H104c-6.6 0-12-5.4-12-12v-176c0-6.6 5.4-12 12-12h176c6.6 0 12 5.4 12 12v176c0 6.6-5.4 12-12 12z" fill="#A6DB20" p-id="10394"></path><path d="M104 411.5h176c6.6 0 12 5.4 12 12v177c0 6.6-5.4 12-12 12H104c-6.6 0-12-5.4-12-12v-177c0-6.6 5.4-12 12-12zM932 433.5v36c0 6.6-5.4 12-12 12H384c-6.6 0-12-5.4-12-12v-36c0-6.6 5.4-12 12-12h536c6.6 0 12 5.4 12 12zM932 554.5v36c0 6.6-5.4 12-12 12H384c-6.6 0-12-5.4-12-12v-36c0-6.6 5.4-12 12-12h536c6.6 0 12 5.4 12 12z" fill="#FAD60E" p-id="10395"></path><path d="M932 713.6v36c0 6.6-5.4 12-12 12H384c-6.6 0-12-5.4-12-12v-36c0-6.6 5.4-12 12-12h536c6.6 0 12 5.3 12 12zM932 834.6v36c0 6.6-5.4 12-12 12H384c-6.6 0-12-5.4-12-12v-36c0-6.6 5.4-12 12-12h536c6.6 0 12 5.3 12 12z" fill="#F9980D" p-id="10396"></path><path d="M932 153.4v36c0 6.6-5.4 12-12 12H384c-6.6 0-12-5.4-12-12v-36c0-6.6 5.4-12 12-12h536c6.6 0 12 5.4 12 12zM932 274.4v36c0 6.6-5.4 12-12 12H384c-6.6 0-12-5.4-12-12v-36c0-6.6 5.4-12 12-12h536c6.6 0 12 5.4 12 12z" fill="#A6DB20" p-id="10397"></path><path d="M106.1 692.1H280c6.6 0 12 5.4 12 12v176c0 6.6-5.4 12-12 12H106.1c-6.6 0-12-5.4-12-12v-176c0-6.6 5.4-12 12-12z" fill="#F9980D" p-id="10398"></path></svg>