<?xml version="1.0" standalone="no"?><!DOCTYPE svg PUBLIC "-//W3C//DTD SVG 1.1//EN" "http://www.w3.org/Graphics/SVG/1.1/DTD/svg11.dtd"><svg t="1642682070631" class="icon" viewBox="0 0 1397 1024" version="1.1" xmlns="http://www.w3.org/2000/svg" p-id="5187" xmlns:xlink="http://www.w3.org/1999/xlink" width="272.8515625" height="200"><defs><style type="text/css"></style></defs><path d="M1073.829679 695.804334s-21.138543-1.249159-29.369112 30.35456c-4.719045 12.949613-13.879543 30.632151 0 37.558042s15.79492 10.395777 15.794919 10.395778a68.564941 68.564941 0 0 0 13.574193-36.655873c-2.220727-14.823352 15.18422-29.993692 0-41.638628z m128.552324-531.281135a153.355067 153.355067 0 0 0 14.198773-74.838494c-6.939771-6.939771-44.553332 32.838998-60.972831 30.340681s4.719045-33.810566-37.280452-38.529611c-15.17034-1.582268-22.720811-2.206847-26.190697-2.498318-4.094465-9.146619-29.660583-67.912602-40.403349-70.119449a42.318726 42.318726 0 0 0-18.931696 0 32.797359 32.797359 0 0 0-30.34068-7.911339 70.174968 70.174968 0 0 0-38.529611 25.579997c-9.590764 12.630384 29.036003 3.469886 12.616505 22.110111s-16.08639 49.272376-39.77877 52.742262-19.889385-8.244448-19.889384-8.244448-16.08639 46.774059-10.395778 53.71383 24.663947-6.939771 25.899227 0c28.133833-18.654105 55.976196 17.654778 40.708698 24.650068a36.336643 36.336643 0 0 1-29.660582 0 129.648808 129.648808 0 0 0-23.98385 16.419499c-1.249159 3.469886-10.395777 30.632151-26.815276 15.17034l-18.931697 21.138544s-20.819314-3.456006-25.566117-9.479728-24.663947 21.138543-6.023722 31.589839c6.648301 7.89746-7.89746 12.949613-7.89746 12.949613a56.239907 56.239907 0 0 1-27.162265 21.138544c-16.433379 4.719045-39.792649-6.939771-50.243944 0s-32.838998 16.433379-31.589839 19.903264-41.999496-19.903264-54.962989-19.903264 0.971568-16.419499-63.193558-16.419499a154.854058 154.854058 0 0 1-34.088157-8.244449l-16.419499-31.589839-24.289199-23.37315-51.493104-15.17034 5.690613-22.096232 3.469885-21.152423a65.636357 65.636357 0 0 1-9.160498-19.889384c0-6.023722-14.198772-12.949613-16.419499-16.419499s-14.198772-15.17034-11.700454-23.359271a12.227877 12.227877 0 0 0-6.023722-12.949613C442.032897 67.213726 429.235958 87.450099 425.488482 87.450099s-22.110111 13.879543-20.819314 24.316959-35.059725 6.023722-39.77877-5.676733-26.856915 31.617598-24.705586 35.045845-32.838998 6.939771-37.558042 4.719044c-2.498318-1.582268-1.249159 6.315192-0.346989 14.837232a69.897377 69.897377 0 0 1 0.346989 18.043405c-2.220727 10.395777-17.391067 20.819314-17.391067 20.819314v12.963493a281.241173 281.241173 0 0 0-58.418995 11.700454c-2.498318 4.719045-9.493607-3.456006-22.443221 8.188931s-12.963493-13.879543-12.963492-13.879543-35.059725-4.719045-39.487299 5.676733-16.433379 28.133833 5.676733 39.778769c3.802995 18.931696-4.719045 24.608429-4.719045 24.608429s-7.550471-8.244448-8.522039 0 15.461811 20.819314 16.766487 25.579998a49.369533 49.369533 0 0 0 30.340681 41.083446 105.845392 105.845392 0 0 1-3.469886 21.138543c-1.859859 6.939771 21.152423 6.939771 18.931696 12.616505s-10.742766 2.498318-12.963493 0 10.409657 47.05165-1.249158 48.009338c-9.146619 0.971568-8.230569-6.634421-7.550472-10.104307a62.124833 62.124833 0 0 0-5.343624 19.570155c0 8.18893-4.441454 21.152423 12.949614 25.579997 7.27288 4.719045 6.023722 32.838998 26.829156 29.369112 11.367345-1.873738 11.700454-4.080586 10.742766-5.329744 0.333109 0.333109 0.624579 0.624579 0.957688 0.624579 8.244448 3.469886 15.461811 37.558042 25.913106 37.558043s13.879543 29.036003 32.852878 36.308883a11.339586 11.339586 0 0 1 2.845306 1.263039c16.419499 7.27288 23.692379 19.597914 39.15419 20.819314 16.419499 1.249159 12.949613 0 22.110112 14.212652s12.949613-22.4571 27.162265-14.212652 29.036003 7.564351 36.308883 17.391067a26.260095 26.260095 0 0 1 3.469886 21.138543 45.413864 45.413864 0 0 0 36.017413 6.023722l3.816874-0.971568c20.819314-5.676733 38.862719-21.471653 45.455503-21.471653a174.243779 174.243779 0 0 1 32.852877 10.742766c3.456006 0.957688 5.676733-17.682537 9.146619-15.184219s35.351195 45.469382 14.823351 68.204072c-19.875505 21.138543-55.518171 47.05165-10.728886 45.802491a33.491336 33.491336 0 0 0 5.399142-0.346988 39.76489 39.76489 0 0 1 5.329744 23.35927h9.785078l-9.785078 23.35927h13.241084l14.212652 21.138544 10.395777-6.023722 6.939771 14.198772h12.949614l-3.456006-32.838998 11.700454 4.719045s4.719045-11.714334 10.395778-11.714334 4.719045 10.395777 10.742766 10.395777a45.982925 45.982925 0 0 0 16.433378-6.939771 83.846317 83.846317 0 0 0 17.377188 4.719045c4.719045 0 10.742766-12.963493 18.931696-12.963493a73.464419 73.464419 0 0 1 26.815276 6.134758 131.439269 131.439269 0 0 0 25.579997 33.185986 24.788863 24.788863 0 0 0 22.443221 5.343624c28.133833-6.939771 16.08639-10.742766 25.566118 8.244448s11.714334 31.589839-2.206848 30.340681-34.102036 34.102036-11.714334 37.571922 35.059725-23.35927 44.220223-30.632151-11.714334-12.616504-11.714334-22.110111a49.494449 49.494449 0 0 0-5.676733-19.889385c-3.275572-6.148637 59.682034-10.395777 63.193558-18.640226a68.315109 68.315109 0 0 1 18.640226-18.917817 128.774397 128.774397 0 0 0 53.991421-3.469885 233.648221 233.648221 0 0 0 51.479224-43.248655 161.321925 161.321925 0 0 0 18.640225-53.699951v-6.023721a93.673034 93.673034 0 0 0 21.138544-18.640226 89.745123 89.745123 0 0 0 18.640226-36.308884v-25.621636a59.001936 59.001936 0 0 1-25.913106-7.28676 8.980064 8.980064 0 0 1 1.873738-1.596147c11.991925-9.479728 31.603719-3.802995 17.044078-18.293237-15.447931-15.17034 3.469886-12.602625 3.469886-12.602625s-34.157555-68.204073-51.479224-70.424799 43.234775-64.095728 43.234776-72.340177c0-4.163863-20.513964-6.648301-41.638628-8.522039-22.734691-2.206847-46.093961-3.178415-46.093962-3.178415L953.494044 368.996622l-3.816874-6.66218a86.275237 86.275237 0 0 0 39.778769-25.274648c0.971568-0.971568 1.596147-1.887618 2.498318-2.845306 18.043405-21.485532 48.647797-46.774059 36.947343 4.094465-0.360868 1.387954-0.693977 2.706511-0.971568 4.080586-13.879543 56.212148 12.949613-13.879543 48.023217-16.419499a27.92564 27.92564 0 0 1 2.498318-4.080586 40.66706 40.66706 0 0 1 20.819314-20.236373 6.67606 6.67606 0 0 0 3.192295-1.873738 44.719886 44.719886 0 0 0 12.283395-24.011609h29.063762l-9.146618-12.963493s26.829156-11.700454 27.759085-32.505889c11.991925 5.690612 11.991925 5.690612 19.889385-8.230569a35.073604 35.073604 0 0 0 0-37.571922c-5.551817-5.787769 15.642245-20.000421 20.069818-20.000421z m0 0" fill="#706EE7" p-id="5188"></path><path d="M803.164717 626.71197a9.535246 9.535246 0 0 1-8.757991-5.690612A167.345646 167.345646 0 0 0 632.737813 512.025309a9.493607 9.493607 0 0 1 0-18.917816 185.305774 185.305774 0 0 1 179.0461 120.640985 9.340932 9.340932 0 0 1-5.052153 12.325034 8.577557 8.577557 0 0 1-3.580922 0.638458z m0 0" fill="#29C287" p-id="5189"></path><path d="M633.306874 512.080828a9.327053 9.327053 0 0 1-6.079239-2.206848 9.41033 9.41033 0 0 1-1.138123-13.296602 191.912437 191.912437 0 0 0 39.778769-176.173035 9.493607 9.493607 0 0 1 18.043406-5.676733 211.191121 211.191121 0 0 1-43.165378 194.216441 9.465848 9.465848 0 0 1-7.439435 3.122897z m0 0" fill="#29C287" p-id="5190"></path><path d="M628.421275 507.819808a9.368691 9.368691 0 0 1-6.315192-2.387281c-78.585971-69.49487-133.410164-85.58126-265.945917-78.530453a9.618523 9.618523 0 0 1-10.00715-8.980064 9.493607 9.493607 0 0 1 8.980064-9.951632c138.545595-7.383917 196.284493 9.71568 279.533989 83.277256a9.479728 9.479728 0 0 1-6.301312 16.530535z m0 0" fill="#29C287" p-id="5191"></path><path d="M645.742944 731.016734h-0.90217a9.424209 9.424209 0 0 1-8.577557-10.284741 639.846917 639.846917 0 0 0-87.066371-398.20408 9.493607 9.493607 0 0 1 16.030871-10.104307 659.125602 659.125602 0 0 1 89.84228 409.987811 9.507487 9.507487 0 0 1-9.327053 8.577558z m0 0" fill="#29C287" p-id="5192"></path><path d="M708.99202 677.677651a8.452641 8.452641 0 0 1-8.910666-7.217362v-1.81822c-9.493607-64.206764-20.291891-137.004966-71.035499-161.904865a149.899061 149.899061 0 0 1-52.742263-56.253787A171.676063 171.676063 0 0 0 435.828741 356.713227a9.493607 9.493607 0 0 1-8.591437-10.284741 9.0911 9.0911 0 0 1 10.298621-8.577558 189.747228 189.747228 0 0 1 154.451551 102.29223 135.214505 135.214505 0 0 0 45.469381 49.785919c59.682034 29.258076 71.257572 107.288865 81.431277 176.159156a10.298621 10.298621 0 0 1-7.841941 11.714334z m0 0" fill="#29C287" p-id="5193"></path><path d="M632.959886 511.622803a9.368691 9.368691 0 0 1-8.52204-5.676733 9.493607 9.493607 0 0 1 4.427575-12.616505 298.132577 298.132577 0 0 1 28.994364-11.367345 132.521873 132.521873 0 0 0 96.601617-75.810062 9.493607 9.493607 0 0 1 18.043406 5.690612 149.60759 149.60759 0 0 1-108.260433 87.801987 283.253707 283.253707 0 0 0-27.106747 10.395778 9.146619 9.146619 0 0 1-4.163863 1.582268z m0 0" fill="#29C287" p-id="5194"></path><path d="M590.918751 500.616325a44.844802 44.844802 0 1 0 44.830923-44.830923 44.844802 44.844802 0 0 0-44.830923 44.830923z m0 0" fill="#29C287" p-id="5195"></path></svg>