<?xml version="1.0" standalone="no"?><!DOCTYPE svg PUBLIC "-//W3C//DTD SVG 1.1//EN" "http://www.w3.org/Graphics/SVG/1.1/DTD/svg11.dtd"><svg t="1642682090773" class="icon" viewBox="0 0 1024 1024" version="1.1" xmlns="http://www.w3.org/2000/svg" p-id="6080" xmlns:xlink="http://www.w3.org/1999/xlink" width="200" height="200"><defs><style type="text/css"></style></defs><path d="M812.06439437 520.62870357c-1.27456409 156.08503312-128.33876189 283.05118823-284.32575156 284.32575155-156.08503312 1.27456409-283.05118823-130.29962938-284.32575234-284.32575155-0.58825993-65.39492331-101.96509745-65.39492331-101.47488018 0 0.78434684 99.9061865 39.11930153 194.32194515 107.45552531 267.07011957C317.14149943 859.85873842 412.63573448 900.15456059 510.58105427 905.93911883c99.80814306 5.88260168 197.16520214-32.06017923 272.36446132-96.27858267 75.39534608-64.31644612 118.14225223-157.84981371 128.73093494-255.10882933 1.27456409-11.27498687 1.56869367-22.54997371 1.66673712-33.92300326 0.68630338-65.492966-100.7885768-65.39492331-101.27879328 0z m-1e-8 0" fill="#6E72DF" p-id="6081"></path><path d="M243.31484702 502.2945944c1.27456409-156.08503312 128.33876189-283.05118823 284.32575233-284.32575157 65.39492331-0.58825993 65.39492331-101.96509745 0-101.47488095C426.06767495 117.37635217 329.69104961 156.98587096 256.74678749 227.67513524c-73.72860896 71.37556844-113.92638769 172.55631826-114.80877719 274.61945916-0.58825993 65.492966 100.88662025 65.39492331 101.37683671 0z m-1e-8 0" fill="#6E72DF" p-id="6082"></path><path d="M543.13144999 621.51532381c-70.78730773 3.52956115-120.49529274-37.55060786-128.73093494-106.86726537-7.74542571-64.80666261 46.57059767-116.47551509 113.04399741-122.06398717 27.5501851-2.35304051 44.90385976-34.51126396 40.09973526-59.41427744-5.68651477-29.31496568-31.96213655-42.45277579-59.41427818-40.09973528-111.27921682 9.31411938-200.20454681 110.59291342-194.61607473 222.16625983 5.78455822 116.27942819 104.31813795 213.44040037 223.04865012 207.45975526 27.5501851-1.37260677 51.96298207-17.35367543 53.92384955-47.35494373 1.56869367-25.19714458-19.70671595-55.19841287-47.35494449-53.8258061z m-104.71031099-27.84431545" fill="#5EBE8B" p-id="6083"></path><path d="M633.33134408 566.80712742c-23.13823366 32.84452684-44.02147025 46.17842386-80.68968782 54.41406603 4.50999489-0.88239029 3.62760461-0.88239029-2.54912741 0.09804346-5.39238519 0.68630338-10.7847696 0.78434684-16.17715479 0.98043374-11.37303031 0.29413035-8.13759874 0.1960869-19.31454214-1.76478058-19.80475939-3.4315177-31.1777897-9.21607592-49.60994156-21.27540962-23.13823366-15.09867759-56.66906387-0.49021648-68.23818031 22.15779991-13.52998391 26.56975136-0.98043375 53.13950272 22.15779991 68.23818032 93.4353249 61.08101531 225.79386443 35.98191419 290.11030978-55.39449978 15.88302442-22.54997371 18.33410917-51.66885249-4.11782109-71.57165536-18.82432567-16.86345818-55.59058668-18.62823875-71.57165457 4.11782188z m0 0" fill="#5EBE8B" p-id="6084"></path></svg>