<?xml version="1.0" standalone="no"?><!DOCTYPE svg PUBLIC "-//W3C//DTD SVG 1.1//EN" "http://www.w3.org/Graphics/SVG/1.1/DTD/svg11.dtd"><svg t="1642682081548" class="icon" viewBox="0 0 1060 1024" version="1.1" xmlns="http://www.w3.org/2000/svg" p-id="5633" xmlns:xlink="http://www.w3.org/1999/xlink" width="207.03125" height="200"><defs><style type="text/css"></style></defs><path d="M802.0178915 784.52508384c-71.77759362 78.95313661-172.26506847 122.01795765-287.10844643 122.01795765-21.53530229 0-43.06674914 0-64.60205142-7.1755422l28.71084526-107.66783653h43.06674837c78.95699126 0 143.55422321-28.71084449 193.80037076-78.95313583l86.13253346 71.7785569z m35.88638746-43.06771241l-93.30904048-71.77759365c35.88638746-43.06674914 50.24229135-100.48651079 50.24229134-165.0895255 0-143.55422321-107.6639811-265.57410896-244.04266133-279.92904879V116.99336697C751.77174473 138.52866926 909.6818726 303.61433932 909.6818726 511.77061397c0 86.13157018-28.71084449 165.08470679-71.77759363 229.68675746zM400.0651023 892.18906493C292.39726577 856.30075014 206.26473231 784.52508384 163.19894722 691.21122464l100.48747408-43.06482105c35.89120617 64.59915928 86.13253423 107.66783652 157.91012786 129.19735528l-21.53144686 114.84530606zM141.66750036 640.96893329c-14.35590388-43.06674914-21.53530229-86.13253423-21.53530228-129.19831932 0-215.33181684 172.26506847-387.59784937 380.42134235-394.777247v114.84337873C349.81895552 239.01614332 234.9755768 361.03602907 234.9755768 511.77061397c0 28.71180853 7.17939763 64.59626791 14.35590388 93.30807643l-107.66398031 35.89024289z m0 0" fill="#706EE7" p-id="5634"></path><path d="M141.66750036 640.96893329c-14.35590388-43.06674914-21.53530229-86.13253423-21.53530228-129.19831932 0-215.33181684 172.26506847-387.59784937 387.59688531-394.777247v114.84337873c-150.72976619 0-272.7535066 129.19928338-272.75350659 279.93386827 0 28.71180853 7.17939763 64.59626791 14.35590388 93.30807643l-107.66398031 35.89024289z m308.63989328 258.39760195l21.53530229-107.66783577h43.06674914c78.95217255 0 157.90916382-35.88445936 208.15145517-86.13253422l78.95699126 78.95891859c-71.77759362 78.95313661-172.26506847 122.01795765-287.10844643 122.01795765-21.53530229 0-43.06674914 0-64.60205142-7.17650625z m1e-8 0" fill="#29C287" p-id="5635"></path><path d="M299.57762746 583.54724354c-7.18036168-21.53530229-14.35590388-50.24614677-14.35590389-71.77662957 0-122.02374041 93.30904048-215.33181684 215.33181685-222.51217852v114.84434199c-57.42168975 0-100.48843812 50.24518272-100.48843812 107.66783653 0 14.3549406 7.17650625 21.53048281 7.17650625 35.88542341L299.57762746 583.54724354z m21.53048358 43.0657851l107.66783575-43.06674838c21.53144685 28.71084449 50.24229135 43.06674914 86.13349829 43.06674838 64.59723195 0 114.84337872-50.24614677 114.84337872-114.84241467 0-50.24614677-28.71084449-93.31289591-71.77759363-107.66783653V289.25843545c107.6639811 21.53530229 186.62097235 107.66783652 186.62097235 222.51217852 0 122.0189217-100.48843812 222.50639577-222.51121524 222.50639576-93.30904048 0-165.08567007-43.06578509-200.97687624-107.66398109z m0 0" fill="#29C287" p-id="5636"></path><path d="M299.57762746 583.54724354c-7.18036168-21.53530229-14.35590388-50.24614677-14.35590389-71.77662957 0-122.02374041 93.30904048-222.51217852 215.33181685-222.51217852v114.84434199c-50.24614677 0-100.48843812 50.24518272-100.48843812 107.66783653 0 14.3549406 7.17650625 21.53048281 7.17650625 35.88542341L299.57762746 583.54724354z m0 0" fill="#29C287" p-id="5637"></path></svg>