<?xml version="1.0" standalone="no"?><!DOCTYPE svg PUBLIC "-//W3C//DTD SVG 1.1//EN" "http://www.w3.org/Graphics/SVG/1.1/DTD/svg11.dtd"><svg t="1642682061385" class="icon" viewBox="0 0 1184 1024" version="1.1" xmlns="http://www.w3.org/2000/svg" p-id="4898" xmlns:xlink="http://www.w3.org/1999/xlink" width="231.25" height="200"><defs><style type="text/css"></style></defs><path d="M311.946237 0h417.34722v227.379506H311.946237z" fill="#29C287" p-id="4899"></path><path d="M311.946237 339.993257h872.626498v227.379506h-872.626498z" fill="#706EE7" p-id="4900"></path><path d="M314.311078 698.787003h569.099097v227.379506H314.311078z" fill="#F6C244" p-id="4901"></path><path d="M183.91372 56.850789a19.3917 19.013325 0 1 0 38.7834 0 19.3917 19.013325 0 1 0-38.7834 0Z" fill="#29C287" p-id="4902"></path><path d="M183.91372 387.763054a19.3917 19.013325 0 1 0 38.7834 0 19.3917 19.013325 0 1 0-38.7834 0Z" fill="#706EE7" p-id="4903"></path><path d="M183.91372 787.232073a19.3917 19.013325 0 1 0 38.7834 0 19.3917 19.013325 0 1 0-38.7834 0Z" fill="#F6C244" p-id="4904"></path></svg>