<?xml version="1.0" standalone="no"?><!DOCTYPE svg PUBLIC "-//W3C//DTD SVG 1.1//EN" "http://www.w3.org/Graphics/SVG/1.1/DTD/svg11.dtd"><svg t="1642775457858" class="icon" viewBox="0 0 1905 1024" version="1.1" xmlns="http://www.w3.org/2000/svg" p-id="39968" xmlns:xlink="http://www.w3.org/1999/xlink" width="372.0703125" height="200"><defs><style type="text/css"></style></defs><path d="M35.723947 0h1833.6768a35.723947 35.723947 0 0 1 35.723946 35.723947v952.558933a35.723947 35.723947 0 0 1-35.723946 35.723947H35.723947A35.723947 35.723947 0 0 1 0 988.28288V35.723947A35.723947 35.723947 0 0 1 35.723947 0z" fill="#E8F5FF" p-id="39969"></path><path d="M94.754133 190.511787h617.888427v119.07072H94.754133V190.511787z" fill="#2196F3" opacity=".803" p-id="39970"></path><path d="M94.754133 428.653227h285.764267v71.441066H94.754133V428.653227zM94.754133 666.371413h285.764267v71.441067H94.754133V666.371413zM725.824853 428.653227h285.764267v71.441066h-285.764267V428.653227zM725.824853 666.371413h285.764267v71.441067h-285.764267V666.371413zM95.259307 523.48928h535.811413v71.441067H95.259307V523.48928zM95.259307 761.63072h535.811413v71.441067H95.259307v-71.441067zM726.3232 523.48928h535.811413v71.441067h-535.811413V523.48928zM726.3232 761.63072h535.811413v71.441067h-535.811413v-71.441067z" fill="#BBDEFB" opacity=".803" p-id="39971"></path><path d="M1357.39392 190.09536h452.46464v642.976427h-452.46464V190.09536z" fill="#BBDEFB" p-id="39972"></path></svg>