<?xml version="1.0" standalone="no"?><!DOCTYPE svg PUBLIC "-//W3C//DTD SVG 1.1//EN" "http://www.w3.org/Graphics/SVG/1.1/DTD/svg11.dtd"><svg t="1642775193005" class="icon" viewBox="0 0 1995 1024" version="1.1" xmlns="http://www.w3.org/2000/svg" p-id="32449" xmlns:xlink="http://www.w3.org/1999/xlink" width="389.6484375" height="200"><defs><style type="text/css"></style></defs><path d="M1943.893727 0H22.580907A22.711795 22.711795 0 0 0 0.000394 22.843077v977.132308a22.711795 22.711795 0 0 0 22.580513 22.843077H157.538855a22.711795 22.711795 0 0 0 22.449231-22.843077v-22.711795h886.941539a22.580513 22.580513 0 0 0 16.01641-6.826667l108.045128-136.927179a23.236923 23.236923 0 0 0 6.564103-16.278975V155.044103h746.338461a22.711795 22.711795 0 0 0 22.580513-22.711795V22.843077A22.711795 22.711795 0 0 0 1943.893727 0zM135.352189 977.26359H45.030137V155.044103h90.322052z m0-867.905641H45.030137V45.554872h90.322052z m1017.042051 698.551795L1057.608599 932.102564h-13.128205V794.518974h108.045128z m0-59.208206h-130.494359a22.711795 22.711795 0 0 0-22.711795 22.974359V932.102564H180.513214V155.044103h971.48718z m769.050256-639.343589H180.513214V45.554872h1740.931282z" fill="#299CED" p-id="32450"></path><path d="M696.451676 234.994872h368.771282v138.24H696.451676zM273.067061 442.289231h368.771282v138.24H273.067061zM696.451676 442.289231h368.771282v138.24H696.451676zM273.067061 649.58359h368.771282v138.24H273.067061zM696.451676 649.58359h245.76v138.24H696.451676zM1533.506035 401.854359a19.167179 19.167179 0 0 0-4.857436 19.298462l121.567179 391.614358a18.904615 18.904615 0 0 0 16.672821 13.128206h1.444103a18.773333 18.773333 0 0 0 16.935384-10.896411L1761.01783 656.410256l124.586666 126.162052a19.035897 19.035897 0 0 0 26.256411 0 19.298462 19.298462 0 0 0 0-27.044103l-125.111795-126.687179 150.317949-68.791795a19.298462 19.298462 0 0 0-1.837949-35.708718l-383.212308-126.818462a18.379487 18.379487 0 0 0-18.510769 4.332308z m42.27282 43.323077l301.948718 100.036923-129.181538 58.683077a19.298462 19.298462 0 0 0-9.189744 9.058461l-67.347692 141.653334z" fill="#BEE2F4" p-id="32451"></path><path d="M1981.309112 581.579487a18.904615 18.904615 0 1 0-37.809231 0 18.904615 18.904615 0 1 0 37.809231 0zM1981.309112 315.864615V315.076923a18.904615 18.904615 0 1 0-38.334359 0v1.312821a18.904615 18.904615 0 1 0 37.809231 0zM1981.309112 493.357949v-1.181539a18.904615 18.904615 0 1 0-37.809231 0v1.181539a18.904615 18.904615 0 1 0 37.809231 0zM1981.309112 404.611282v-1.181538a18.904615 18.904615 0 1 0-37.809231 0v1.181538a18.904615 18.904615 0 1 0 37.809231 0zM1981.309112 227.117949v-0.656411a18.904615 18.904615 0 0 0-18.904616-19.167179 18.904615 18.904615 0 0 0-19.429743 19.167179 19.167179 19.167179 0 0 0 5.77641 13.784616 18.510769 18.510769 0 0 0 13.128205 5.907692 18.904615 18.904615 0 0 0 19.429744-19.035897zM1447.385009 226.461538a19.167179 19.167179 0 0 0 18.904616 19.16718h1.181538a19.167179 19.167179 0 0 0 0-38.334359h-1.181538a19.035897 19.035897 0 0 0-18.904616 19.167179zM1735.155266 226.461538a19.035897 19.035897 0 0 0-18.904616-19.167179h-1.181538a19.167179 19.167179 0 0 0 0 38.334359h1.181538a19.167179 19.167179 0 0 0 18.904616-19.16718zM1364.546035 226.461538a19.035897 19.035897 0 0 0 18.904615 19.16718h1.050257a19.167179 19.167179 0 0 0 0-38.334359h-1.050257a18.904615 18.904615 0 0 0-18.904615 19.167179zM1569.214753 226.461538a18.904615 18.904615 0 0 0-18.773334-19.167179h-1.31282a19.167179 19.167179 0 0 0 0 38.334359h1.181538a19.035897 19.035897 0 0 0 18.904616-19.16718zM1652.185009 226.461538a18.904615 18.904615 0 0 0-18.904615-19.167179h-1.181539a19.167179 19.167179 0 0 0 0 38.334359h1.181539a19.035897 19.035897 0 0 0 18.904615-19.16718zM1897.419881 226.461538a18.904615 18.904615 0 0 0-18.904615-19.167179H1877.333727a19.167179 19.167179 0 0 0 0 38.334359h1.050257a19.035897 19.035897 0 0 0 19.035897-19.16718zM1814.580907 226.461538a19.035897 19.035897 0 0 0-18.904616-19.167179h-1.181538a19.167179 19.167179 0 0 0 0 38.334359h1.181538a19.167179 19.167179 0 0 0 18.904616-19.16718zM1282.100907 226.461538v0.656411a19.035897 19.035897 0 0 0 18.904615 19.035897 18.510769 18.510769 0 0 0 13.128205-5.907692 18.773333 18.773333 0 0 0 5.907692-13.784616 19.035897 19.035897 0 0 0-18.904615-19.167179h-0.131282a19.035897 19.035897 0 0 0-18.904615 19.167179zM1282.100907 492.832821v1.181538a18.904615 18.904615 0 1 0 37.80923 0v-1.181538a18.904615 18.904615 0 1 0-37.80923 0zM1282.100907 581.710769v1.312821a18.904615 18.904615 0 1 0 37.80923 0v-1.312821a18.904615 18.904615 0 1 0-37.80923 0zM1282.100907 403.82359v1.181538a18.904615 18.904615 0 1 0 37.80923 0v-1.181538a18.904615 18.904615 0 1 0-37.80923 0zM1282.100907 315.076923v1.312821a18.904615 18.904615 0 1 0 37.80923 0V315.076923a18.904615 18.904615 0 1 0-37.80923 0zM1282.100907 759.729231V761.435897a18.904615 18.904615 0 1 0 37.80923 0v-1.181538a18.904615 18.904615 0 1 0-37.80923 0zM1282.100907 670.72v1.312821a18.904615 18.904615 0 1 0 37.80923 0v-1.312821a18.904615 18.904615 0 1 0-37.80923 0zM1282.100907 848.738462a19.035897 19.035897 0 0 0 18.904615 19.167179h0.65641a19.167179 19.167179 0 0 0 13.128205-32.951795 18.510769 18.510769 0 0 0-13.128205-5.907692 19.035897 19.035897 0 0 0-19.561025 19.692308zM1385.288599 849.26359a19.035897 19.035897 0 0 0 19.429744 19.167179h1.444102a19.167179 19.167179 0 0 0 0-38.203077H1404.718343a19.035897 19.035897 0 0 0-19.429744 19.035898zM1489.395266 849.26359a18.904615 18.904615 0 0 0 18.904615 19.167179 19.167179 19.167179 0 0 0 0-38.203077 18.904615 18.904615 0 0 0-18.904615 19.035898z" fill="#BEE2F4" p-id="32452"></path><path d="M578.429112 304.705641a101.74359 101.74359 0 0 0-35.314872 81.92 95.048205 95.048205 0 0 0 13.128205 43.191795A89.009231 89.009231 0 0 0 590.769625 459.487179a124.324103 124.324103 0 0 0 90.059487 6.957949 68.923077 68.923077 0 0 0 35.577436-25.337436 59.733333 59.733333 0 0 0 9.452307-41.485128 56.188718 56.188718 0 0 0-20.217436-37.021538 54.350769 54.350769 0 0 0-40.303589-10.502564 56.713846 56.713846 0 0 0-36.758975 20.348717 70.498462 70.498462 0 0 0-14.178461 41.091283 182.613333 182.613333 0 0 0 19.82359 90.847179A203.749744 203.749744 0 0 0 692.907061 577.641026a380.717949 380.717949 0 0 0 176.968205 69.316923 550.465641 550.465641 0 0 0 192.328205-6.170257A461.587692 461.587692 0 0 0 1237.858855 564.512821a612.168205 612.168205 0 0 0 72.205129-64.065642q34.527179-34.658462 66.428718-71.548717a11.290256 11.290256 0 0 1 17.066666 14.703589c-21.792821 25.074872-44.504615 49.099487-67.87282 72.467693a626.740513 626.740513 0 0 1-75.224616 65.641025 482.855385 482.855385 0 0 1-183.794871 77.718975 568.713846 568.713846 0 0 1-200.205129 5.907692A396.996923 396.996923 0 0 1 681.879368 590.769231a219.897436 219.897436 0 0 1-63.934359-78.769231 198.498462 198.498462 0 0 1-20.742564-99.643077 120.779487 120.779487 0 0 1 4.857436-26.25641 73.649231 73.649231 0 0 1 13.128205-24.155898 72.861538 72.861538 0 0 1 47.392821-26.25641 70.104615 70.104615 0 0 1 52.51282 14.178462 71.154872 71.154872 0 0 1 26.25641 47.261538 74.699487 74.699487 0 0 1-12.340512 52.512821 84.414359 84.414359 0 0 1-43.191795 30.851282 133.12 133.12 0 0 1-51.593846 5.382564 130.494359 130.494359 0 0 1-49.88718-13.128205 102.925128 102.925128 0 0 1-39.384615-35.18359 109.883077 109.883077 0 0 1-15.491282-49.88718 115.003077 115.003077 0 0 1 40.172307-91.897435 6.695385 6.695385 0 0 1 9.321026 0.65641 6.432821 6.432821 0 0 1-0.525128 8.270769z" fill="#FF9600" p-id="32453"></path><path d="M1412.332702 474.584615l12.20923-89.928205-84.020513 34.264616 71.811283 55.663589z" fill="#FF9600" p-id="32454"></path></svg>