<svg xml:space="preserve" style="enable-background:new 0 0 2000 2000;" viewBox="0 0 2000 2000" y="0px" x="0px" xmlns:xlink="http://www.w3.org/1999/xlink" xmlns="http://www.w3.org/2000/svg" id="图层_1" version="1.1">
<style type="text/css">
	.st0{opacity:0.5;}
	.st1{fill:#FFFFFF;}
	.st2{opacity:0.57;}
	.st3{fill:url(#SVGID_1_);}
	.st4{fill:url(#SVGID_00000056410164064001748280000016506390706155481736_);}
	.st5{fill:url(#SVGID_00000121251583751089443910000000478009322530179742_);}
	.st6{fill:url(#SVGID_00000139987672003697561310000018439780655030661310_);}
	.st7{fill:url(#SVGID_00000028299619656762677220000008672204595069967549_);}
	.st8{opacity:0.68;}
	.st9{fill:url(#SVGID_00000106122534441948002150000004075450960080290461_);}
	.st10{fill:url(#SVGID_00000091712254910940788090000004413735309762413236_);}
	.st11{opacity:0.79;}
	.st12{fill:url(#SVGID_00000018207982543145097630000002655630059453749428_);}
	.st13{fill:url(#SVGID_00000165224187893084363850000005139915775263901601_);}
	.st14{fill:url(#SVGID_00000121256233675005786230000012532606605424939411_);}
	.st15{fill:url(#SVGID_00000160151903850850054370000014884192207004481434_);}
	.st16{fill:url(#SVGID_00000041263096011363331480000012648003014153267340_);}
	.st17{fill:url(#SVGID_00000067204485718381895300000018020717934399666335_);}
	.st18{fill:url(#SVGID_00000046333324055261375760000004851377720774717883_);}
	.st19{display:none;}
	.st20{display:inline;opacity:0.68;}
	.st21{fill:url(#SVGID_00000142878469080973220760000005612598468298965434_);}
	.st22{display:inline;fill:url(#SVGID_00000044893134654797496310000010199409147394991020_);}
	.st23{display:inline;fill:url(#SVGID_00000045603186997663169520000000627579762175833472_);}
	.st24{display:inline;fill:url(#SVGID_00000072978302648522975880000014109658752876602280_);}
	.st25{display:inline;fill:url(#SVGID_00000013887612654060065170000004259084427744779679_);}
	.st26{display:inline;fill:url(#SVGID_00000049911028643953185560000005948876742188747146_);}
	.st27{display:inline;fill:url(#SVGID_00000008146028875695883680000010864966351575100555_);}
	.st28{display:inline;fill:url(#SVGID_00000124870826830460740850000011683065541409198757_);}
	.st29{display:inline;fill:#FFFFFF;}
	.st30{fill:url(#SVGID_00000139251855034354625580000011428958789215943040_);}
	.st31{display:inline;}
	.st32{fill:url(#SVGID_00000029004478566338534750000006831776967294168483_);}
	.st33{fill:url(#SVGID_00000117648480861965106650000004051049222827896979_);}
	.st34{fill:url(#SVGID_00000005232174207814981990000003304775138998834612_);}
	.st35{fill:url(#SVGID_00000172397795739833044810000005461309524210749102_);}
	.st36{fill:url(#SVGID_00000046325730965540969030000003692032377052123552_);}
	.st37{fill:url(#SVGID_00000127729297092881717030000002859914511531699594_);}
	.st38{fill:url(#SVGID_00000011000033240699572260000006074941395227913096_);}
	.st39{fill:#E9F1FF;}
	.st40{fill:url(#SVGID_00000034778182724567010670000012021910289978594480_);}
	.st41{fill:url(#SVGID_00000106106035419812797160000017030909729473470625_);}
	.st42{fill:url(#SVGID_00000127044671917982896090000015220757950930252193_);}
	.st43{fill:url(#SVGID_00000132783951522369260690000007740780258438924723_);}
	.st44{fill:url(#SVGID_00000077303031908266888920000018288892277915149464_);}
	.st45{fill:url(#SVGID_00000049935684341793587020000007830993603020241839_);}
	.st46{fill:url(#SVGID_00000077297437509954386150000002184322493207588527_);}
	.st47{fill:url(#SVGID_00000130607115609661056860000005354398196868715916_);}
	.st48{fill:url(#SVGID_00000163072480424203258370000014737211206042859944_);}
	.st49{fill:url(#SVGID_00000041289753669163446710000011864835287612870307_);}
	.st50{fill:url(#SVGID_00000031912213217739070580000005802851258605959595_);}
	.st51{fill:url(#SVGID_00000037662075236273112410000000565637514230384823_);}
	.st52{fill:url(#SVGID_00000060032810393099429650000017474650764749726867_);}
	.st53{fill:url(#SVGID_00000121957740465602370530000007079746046087063942_);}
	.st54{fill:url(#SVGID_00000152979966144130188860000005989429686572713896_);}
	.st55{fill:url(#SVGID_00000085218922455331506800000013518629157570300336_);}
	.st56{fill:url(#SVGID_00000031896026087977570030000014190207582201808801_);}
	.st57{display:inline;fill:url(#SVGID_00000037692978396205193290000012769929310326148505_);}
	.st58{opacity:0.8034;fill:url(#SVGID_00000146470740530971165430000006784315286299263654_);}
	.st59{fill:url(#SVGID_00000127015797870793982730000004093156391188001947_);}
	.st60{fill:url(#SVGID_00000000915978764157617680000015436790998892730041_);}
	.st61{fill:url(#SVGID_00000036945063816009722000000015595564672754622906_);}
	.st62{fill:url(#SVGID_00000161622535806122299050000000266574262286972049_);}
	.st63{fill:url(#SVGID_00000050658540116715492000000002161217625084883850_);}
	.st64{fill:url(#SVGID_00000178205382054040188640000015822149484466068611_);}
	.st65{fill:url(#SVGID_00000011000755532150486280000016113655243587108029_);}
	.st66{fill:url(#SVGID_00000036955014025238314150000008358219263457107611_);}
	.st67{fill:url(#SVGID_00000083089978759969239170000009344959972009228465_);}
	.st68{fill:url(#SVGID_00000119807270834922165890000011371638645100815750_);}
	.st69{fill:url(#SVGID_00000047756956870992955830000006612459451100356526_);}
	.st70{fill:url(#SVGID_00000021118007249136103560000016770095262713754515_);}
	.st71{fill:url(#SVGID_00000030470177128992966310000013769018808611057576_);}
	.st72{fill:url(#SVGID_00000134933786290612048500000000522901233967227276_);}
	.st73{fill:url(#SVGID_00000046335063100431330470000005869587640249028490_);}
	.st74{fill:url(#SVGID_00000018199645977286698460000013447406519833652392_);}
	.st75{fill:url(#SVGID_00000121985205258959291630000008507588024651008659_);}
	.st76{fill:url(#SVGID_00000045577735386597812280000010224106228662035341_);}
	.st77{fill:url(#SVGID_00000132082969237226546430000009594913960403044273_);}
	.st78{fill:url(#SVGID_00000078023792390426746450000018385827419347927476_);}
	.st79{fill:url(#SVGID_00000143611404106063746770000018212844758075676605_);}
	.st80{fill:url(#SVGID_00000181792319383992295020000003701242964848400800_);}
	.st81{fill:url(#SVGID_00000041277210056950985440000013251339762270925708_);}
	.st82{fill:url(#SVGID_00000018950736249338556100000012311825243655723659_);}
	.st83{fill:#8E8A8A;}
	.st84{fill:#E5E5E5;}
	.st85{fill:url(#SVGID_00000066510499313258527900000015956273229832914605_);}
	.st86{fill:#020202;}
	.st87{fill:url(#SVGID_00000105417604483102535980000009073303089630667197_);}
	.st88{fill:url(#SVGID_00000063608859858747072770000009642949677797760939_);}
	.st89{fill:url(#SVGID_00000164495038067922311860000014832740544197409421_);}
	.st90{fill:url(#SVGID_00000057860112322080898660000013563634107206839716_);}
	.st91{fill:url(#SVGID_00000041293336202252902750000001840999800476903571_);}
</style>
<g class="st0" id="缺省页底部">
	<path d="M999.57,2000.43L999.57,2000.43c-552.29,0-1000-447.71-1000-1000v0c0-552.28,447.71-1000,1000-1000h0
		c552.28,0,1000,447.71,1000,1000v0C1999.57,1552.71,1551.86,2000.43,999.57,2000.43z" class="st1"></path>
	<g>
		<g class="st2">
			<linearGradient y2="-411.5274" x2="1409.3662" y1="1235.6672" x1="1409.3662" gradientUnits="userSpaceOnUse" id="SVGID_1_">
				<stop style="stop-color:#FFFFFF" offset="0.2597"></stop>
				<stop style="stop-color:#6397F7" offset="1"></stop>
			</linearGradient>
			<ellipse ry="393.8" rx="251.83" cy="865.03" cx="1409.37" class="st3"></ellipse>
		</g>
		<g class="st2">
			
				<linearGradient y2="-303.9347" x2="1261.7755" y1="1343.2599" x1="1261.7755" gradientUnits="userSpaceOnUse" id="SVGID_00000025414494737108504370000013928571625270251693_">
				<stop style="stop-color:#FFFFFF" offset="0.2597"></stop>
				<stop style="stop-color:#6397F7" offset="1"></stop>
			</linearGradient>
			
				<ellipse ry="393.8" rx="251.83" cy="972.63" cx="1261.78" style="fill:url(#SVGID_00000025414494737108504370000013928571625270251693_);"></ellipse>
		</g>
		<g>
			
				<linearGradient y2="448.4529" x2="461.4511" y1="1490.1254" x1="461.4511" gradientUnits="userSpaceOnUse" id="SVGID_00000173842729643634365380000005392011259222648742_">
				<stop style="stop-color:#FFFFFF" offset="0.2597"></stop>
				<stop style="stop-color:#6397F7" offset="1"></stop>
			</linearGradient>
			<path d="M509.97,1006.7h-97.03
				c-10.38,0-18.8,8.42-18.8,18.8v460.47c0,10.38,8.42,18.8,18.8,18.8h97.03c10.38,0,18.8-8.42,18.8-18.8v-460.47
				C528.77,1015.12,520.35,1006.7,509.97,1006.7z M447.31,1183.27h-20.07v-41.2h20.07V1183.27z M447.31,1100.87h-20.07v-41.2h20.07
				V1100.87z" style="fill:url(#SVGID_00000173842729643634365380000005392011259222648742_);"></path>
			
				<linearGradient y2="282.8588" x2="763.0895" y1="1478.3972" x1="763.0895" gradientUnits="userSpaceOnUse" id="SVGID_00000121992051126943279300000007873825647724118169_">
				<stop style="stop-color:#FFFFFF" offset="0.2597"></stop>
				<stop style="stop-color:#6397F7" offset="1"></stop>
			</linearGradient>
			<path d="M763.46,923.57l-67.68,73.57v498.07
				h134.63l0,0V997.14L763.46,923.57z M747.27,1078.49H725.2v-45.3h22.07V1078.49z" style="fill:url(#SVGID_00000121992051126943279300000007873825647724118169_);"></path>
			
				<linearGradient y2="213.298" x2="604.1776" y1="1390.3724" x1="604.1776" gradientUnits="userSpaceOnUse" id="SVGID_00000065786592150925668310000009371094190394220946_">
				<stop style="stop-color:#FFFFFF" offset="0.2597"></stop>
				<stop style="stop-color:#6397F7" offset="1"></stop>
			</linearGradient>
			<path d="M686.54,844.11H521.82
				c-10.38,0-18.8,8.42-18.8,18.8v525.21c0,10.38,8.42,18.8,18.8,18.8h164.72c10.38,0,18.8-8.42,18.8-18.8V862.92
				C705.34,852.53,696.92,844.11,686.54,844.11z M535.39,900.76h27.96v57.38h-27.96V900.76z M590.57,1089.84h-27.96v-57.38h27.96
				V1089.84z" style="fill:url(#SVGID_00000065786592150925668310000009371094190394220946_);"></path>
		</g>
		<g class="st8">
			
				<linearGradient y2="313.982" x2="1002.5714" y1="1961.1766" x1="1002.5714" gradientUnits="userSpaceOnUse" id="SVGID_00000140006958065012849110000005425609763515731598_">
				<stop style="stop-color:#FFFFFF" offset="0.2597"></stop>
				<stop style="stop-color:#6397F7" offset="1"></stop>
			</linearGradient>
			
				<ellipse ry="393.8" rx="699" cy="1590.54" cx="1002.57" style="fill:url(#SVGID_00000140006958065012849110000005425609763515731598_);"></ellipse>
		</g>
		<g>
			
				<linearGradient y2="457.513" x2="425.065" y1="753.3054" x1="417.1141" gradientUnits="userSpaceOnUse" id="SVGID_00000145738740898088409040000006997781100038797239_">
				<stop style="stop-color:#FFFFFF" offset="0"></stop>
				<stop style="stop-color:#6397F7" offset="1"></stop>
			</linearGradient>
			<path d="M512.97,705.32
				c0-22.47-18.17-40.69-40.62-40.77c-6.92-23.39-28.57-40.46-54.2-40.46c-22.37,0-41.7,13-50.86,31.85
				c-24.09,0.92-43.34,20.74-43.34,45.06c0,24.9,20.19,45.09,45.09,45.09c0.1,0,0.21,0,0.31,0v0.62h103.47v-0.63
				C495.05,745.75,512.97,727.63,512.97,705.32z" style="fill:url(#SVGID_00000145738740898088409040000006997781100038797239_);"></path>
		</g>
		<g class="st11">
			
				<linearGradient y2="252.8081" x2="1144.2908" y1="447.7749" x1="1144.2908" gradientUnits="userSpaceOnUse" id="SVGID_00000162347677062868353470000008733973169254066604_">
				<stop style="stop-color:#FFFFFF" offset="0"></stop>
				<stop style="stop-color:#6397F7" offset="1"></stop>
			</linearGradient>
			<path d="M1212.93,430.48
				c0-11.72-9.5-21.23-21.23-21.23c-1.45,0-2.87,0.15-4.24,0.43c-4.84-8.54-14-14.31-24.52-14.31c-0.27,0-0.55,0.01-0.82,0.02
				c-0.51-16.09-13.71-28.98-29.93-28.98c-16.23,0-29.43,12.9-29.93,29.01c-14.83,0.81-26.61,13.09-26.61,28.12
				c0,14.75,11.35,26.85,25.79,28.06v0.11h90.46v-0.01C1203.53,451.6,1212.93,442.14,1212.93,430.48z" style="fill:url(#SVGID_00000162347677062868353470000008733973169254066604_);"></path>
		</g>
		<g>
			<g>
				
					<linearGradient y2="1259.2766" x2="1400.1569" y1="1350.1316" x1="1400.1569" gradientUnits="userSpaceOnUse" id="SVGID_00000083049980774205604060000012149837876812989119_">
					<stop style="stop-color:#FFFFFF" offset="0"></stop>
					<stop style="stop-color:#6397F7" offset="1"></stop>
				</linearGradient>
				
					<rect height="43.44" width="10.15" style="fill:url(#SVGID_00000083049980774205604060000012149837876812989119_);" y="1307.97" x="1395.08"></rect>
			</g>
			<g>
				
					<linearGradient y2="1423.9939" x2="1398.943" y1="1236.2418" x1="1400.4244" gradientUnits="userSpaceOnUse" id="SVGID_00000098929138832336093220000003562267294334686866_">
					<stop style="stop-color:#FFFFFF" offset="0"></stop>
					<stop style="stop-color:#6397F7" offset="1"></stop>
				</linearGradient>
				<path d="M1421.59,1262.95
					c-3.15-8.79-11.56-15.07-21.43-15.07c-10.96,0-20.11,7.75-22.28,18.07c-9.98,2.41-17.39,11.4-17.39,22.12
					c0,12.57,10.19,22.76,22.76,22.76c0.45,0,0.89-0.01,1.34-0.04c3.94,3.27,9.01,5.24,14.53,5.24c6.97,0,13.21-3.13,17.38-8.07
					c0.1,0,0.2,0,0.31,0c12.57,0,22.76-10.19,22.76-22.76C1439.57,1274.28,1431.86,1265.15,1421.59,1262.95z" style="fill:url(#SVGID_00000098929138832336093220000003562267294334686866_);"></path>
			</g>
		</g>
		<g>
			<g>
				
					<linearGradient y2="1303.1254" x2="649.985" y1="1392.7062" x1="649.985" gradientUnits="userSpaceOnUse" id="SVGID_00000174580329468945531120000005745231317212703381_">
					<stop style="stop-color:#FFFFFF" offset="0"></stop>
					<stop style="stop-color:#6397F7" offset="1"></stop>
				</linearGradient>
				
					<rect height="36.63" width="8.55" style="fill:url(#SVGID_00000174580329468945531120000005745231317212703381_);" y="1350.04" x="645.71"></rect>
			</g>
			<g>
				
					<linearGradient y2="1447.8809" x2="648.9615" y1="1289.5624" x1="650.2107" gradientUnits="userSpaceOnUse" id="SVGID_00000112629143527801897280000011119895368749643666_">
					<stop style="stop-color:#FFFFFF" offset="0"></stop>
					<stop style="stop-color:#6397F7" offset="1"></stop>
				</linearGradient>
				<path d="M668.05,1312.08
					c-2.66-7.41-9.74-12.71-18.07-12.71c-9.24,0-16.96,6.53-18.78,15.23c-8.42,2.03-14.67,9.61-14.67,18.66
					c0,10.6,8.59,19.19,19.19,19.19c0.38,0,0.75-0.01,1.13-0.03c3.32,2.76,7.59,4.42,12.25,4.42c5.88,0,11.14-2.64,14.66-6.8
					c0.09,0,0.17,0,0.26,0c10.6,0,19.19-8.59,19.19-19.19C683.22,1321.63,676.72,1313.93,668.05,1312.08z" style="fill:url(#SVGID_00000112629143527801897280000011119895368749643666_);"></path>
			</g>
		</g>
		<g>
			<g>
				
					<linearGradient y2="1499.9371" x2="453.2552" y1="1614.964" x1="453.2552" gradientUnits="userSpaceOnUse" id="SVGID_00000052068804031915943110000013374417878791695506_">
					<stop style="stop-color:#FFFFFF" offset="0"></stop>
					<stop style="stop-color:#6397F7" offset="1"></stop>
				</linearGradient>
				
					<rect height="55" width="12.84" style="fill:url(#SVGID_00000052068804031915943110000013374417878791695506_);" y="1561.58" x="446.83"></rect>
			</g>
			<g>
				
					<linearGradient y2="1708.4773" x2="451.7185" y1="1470.7739" x1="453.594" gradientUnits="userSpaceOnUse" id="SVGID_00000162350000769509204750000014518224332738575275_">
					<stop style="stop-color:#FFFFFF" offset="0"></stop>
					<stop style="stop-color:#6397F7" offset="1"></stop>
				</linearGradient>
				<path d="M480.38,1504.59
					c-3.99-11.12-14.63-19.08-27.13-19.08c-13.88,0-25.46,9.81-28.2,22.87c-12.64,3.05-22.02,14.43-22.02,28.01
					c0,15.92,12.9,28.82,28.82,28.82c0.57,0,1.13-0.02,1.69-0.05c4.99,4.14,11.4,6.64,18.4,6.64c8.82,0,16.72-3.97,22.01-10.21
					c0.13,0,0.26,0.01,0.39,0.01c15.92,0,28.82-12.9,28.82-28.82C503.15,1518.93,493.39,1507.37,480.38,1504.59z" style="fill:url(#SVGID_00000162350000769509204750000014518224332738575275_);"></path>
			</g>
		</g>
	</g>
</g>
<g class="st19" id="空空如也">
	<g class="st20">
		
			<linearGradient y2="1574.8956" x2="1084.3688" y1="1360.3961" x1="1084.3688" gradientUnits="userSpaceOnUse" id="SVGID_00000183942264183187377960000013019672591256309950_">
			<stop style="stop-color:#5A91F7" offset="0"></stop>
			<stop style="stop-color:#A2C1FB;stop-opacity:0.8034" offset="0.2039"></stop>
			<stop style="stop-color:#FFFFFF;stop-opacity:0.54" offset="0.9749"></stop>
		</linearGradient>
		<path d="M1230.69,1358.02
			c-9.73-8.57-23.22-12.57-36-12.97c-134.7,0-269.41,0-404.11,0c-12.79,0-17.41,5.81-10.32,12.97
			c22.47,22.7,44.94,45.41,67.41,68.11c0.39,0,0.58,0,0.96,0c0.84,1.48,2.29,3.07,4.38,4.68c55.57,42.96,111.14,85.92,166.71,128.87
			c8.72,6.32,19.73,9.61,30.44,9.81c109.74,0,219.49,0,329.23,0c10.26,0,14.92-4.14,11.03-9.81
			c-29.47-42.96-58.93-85.92-88.4-128.87c-1.11-1.61-2.8-3.2-4.89-4.68c0.39,0,0.58,0,0.96,0
			C1275.64,1403.42,1253.16,1380.72,1230.69,1358.02z M954.42,1426.13c0.04,0.08,0.06,0.12,0.09,0.2c-0.38,0-0.57,0-0.95,0
			c-0.04-0.08-0.05-0.12-0.09-0.2C953.85,1426.13,954.04,1426.13,954.42,1426.13z M953.05,1426.13c0.08,0.08,0.12,0.12,0.2,0.2
			c-0.17,0-0.26,0-0.43,0c-0.09-0.08-0.13-0.12-0.22-0.2C952.78,1426.13,952.87,1426.13,953.05,1426.13z" style="fill:url(#SVGID_00000183942264183187377960000013019672591256309950_);"></path>
	</g>
	
		<linearGradient y2="1159.9939" x2="998.09" y1="968.1964" x1="998.09" gradientUnits="userSpaceOnUse" id="SVGID_00000021816622550061936460000017892924722463239314_">
		<stop style="stop-color:#5A91F7" offset="0"></stop>
		<stop style="stop-color:#2B62BA" offset="0.8751"></stop>
	</linearGradient>
	<polygon points="1181.92,1213.41 
		814.26,1212.32 852.18,980.83 1145.38,981.71" style="display:inline;fill:url(#SVGID_00000021816622550061936460000017892924722463239314_);"></polygon>
	
		<linearGradient gradientTransform="matrix(1 2.228313e-05 2.226995e-05 0.9925 -0.039 13.1207)" y2="1091.8766" x2="889.0921" y1="1091.8766" x1="813.0113" gradientUnits="userSpaceOnUse" id="SVGID_00000019658285420134044420000010289956091988579229_">
		<stop style="stop-color:#5A91F7" offset="0"></stop>
		<stop style="stop-color:#2B62BA" offset="0.8751"></stop>
	</linearGradient>
	<polygon points="857.49,1211.7 
		813,1212.42 851.65,981.27 889.08,1049.11" style="display:inline;fill:url(#SVGID_00000019658285420134044420000010289956091988579229_);"></polygon>
	
		<linearGradient gradientTransform="matrix(-1 2.228308e-05 -2.226999e-05 0.9925 -829.0014 13.1207)" y2="1091.9401" x2="-1938.0026" y1="1091.9401" x1="-2012.8663" gradientUnits="userSpaceOnUse" id="SVGID_00000031898478957894435820000007191024570256829606_">
		<stop style="stop-color:#5A91F7" offset="0"></stop>
		<stop style="stop-color:#2B62BA" offset="0.8751"></stop>
	</linearGradient>
	<polygon points="1139.34,1211.7 
		1183.84,1212.42 1145.19,981.27 1108.98,1049.11" style="display:inline;fill:url(#SVGID_00000031898478957894435820000007191024570256829606_);"></polygon>
	
		<linearGradient y2="1375.5145" x2="998.4423" y1="1232.9486" x1="998.4423" gradientUnits="userSpaceOnUse" id="SVGID_00000020372888215117898390000015663102045490515372_">
		<stop style="stop-color:#5A91F7" offset="0"></stop>
		<stop style="stop-color:#2B62BA" offset="1"></stop>
	</linearGradient>
	<path d="M1205.95,1359.08H790.94
		c-11.05,0-20-8.95-20-20v-126.21h455.01v126.21C1225.95,1350.13,1216.99,1359.08,1205.95,1359.08z" style="display:inline;fill:url(#SVGID_00000020372888215117898390000015663102045490515372_);"></path>
	
		<linearGradient y2="1255.6781" x2="1117.1658" y1="1255.6781" x1="877.3794" gradientUnits="userSpaceOnUse" id="SVGID_00000051351499599911710950000010591676029694204819_">
		<stop style="stop-color:#91D3F8" offset="0"></stop>
		<stop style="stop-color:#D9F3FF" offset="1"></stop>
	</linearGradient>
	<polygon points="1095.66,1282.11 
		898.88,1282.11 877.45,1211.7 877.38,1211.7 877.38,1229.24 877.45,1229.24 898.88,1299.66 1095.66,1299.66 1117.1,1229.24 
		1117.17,1229.24 1117.17,1211.7 1117.1,1211.7" style="display:inline;fill:url(#SVGID_00000051351499599911710950000010591676029694204819_);"></polygon>
	
		<linearGradient y2="1284.6483" x2="998.4423" y1="1066.734" x1="998.4423" gradientUnits="userSpaceOnUse" id="SVGID_00000168824624972364886370000015624058106037045151_">
		<stop style="stop-color:#91D3F8" offset="0"></stop>
		<stop style="stop-color:#5A91F7" offset="0.8519"></stop>
	</linearGradient>
	<polygon points="1138.22,1211.7 
		1108.41,1049.47 888.82,1048.75 858.66,1210.53 878.09,1210.61 899.4,1282.76 1096.18,1282.76 1116.99,1211.61" style="display:inline;fill:url(#SVGID_00000168824624972364886370000015624058106037045151_);"></polygon>
	
		<linearGradient y2="1207.8019" x2="998.4423" y1="912.9735" x1="998.4423" gradientUnits="userSpaceOnUse" id="SVGID_00000134928551082687504390000008499593631305826703_">
		<stop style="stop-color:#91D3F8" offset="0"></stop>
		<stop style="stop-color:#D9F3FF" offset="1"></stop>
	</linearGradient>
	<path d="M1116.82,1229.24h87.46
		c13.16,0,23.16-11.84,20.95-24.82l-39.55-232.38c-1.74-10.21-10.59-17.68-20.95-17.68H832.16c-10.36,0-19.21,7.47-20.95,17.68
		l-39.55,232.38c-2.21,12.97,7.79,24.82,20.95,24.82h83.69l0.69-17.91l-37.74-0.11c-13.1-0.04-23.04-11.8-20.9-24.72l30.88-186.67
		c1.7-10.28,10.61-17.81,21.03-17.78l257.04,0.76c10.42,0.03,19.28,7.61,20.92,17.91l29.77,186.85
		c2.06,12.93-7.95,24.63-21.05,24.59l-41.52-0.12L1116.82,1229.24z" style="display:inline;fill:url(#SVGID_00000134928551082687504390000008499593631305826703_);"></path>
	<polygon points="955.87,1026.2 965.36,1052.49 991.65,1061.98 965.36,1071.47 955.87,1097.76 946.38,1071.47 
		920.09,1061.98 946.38,1052.49" class="st29"></polygon>
	<polygon points="1066.87,1087.9 1073.92,1107.44 1093.46,1114.49 1073.92,1121.54 1066.87,1141.08 1059.82,1121.54 
		1040.28,1114.49 1059.82,1107.44" class="st29"></polygon>
	<polygon points="995.5,1145.89 999.86,1157.97 1011.94,1162.33 999.86,1166.69 995.5,1178.77 991.14,1166.69 
		979.06,1162.33 991.14,1157.97" class="st29"></polygon>
</g>
<g class="st19" id="暂无消息">
	<g class="st20">
		
			<linearGradient y2="1565.3729" x2="1151.203" y1="1247.4656" x1="1151.203" gradientUnits="userSpaceOnUse" id="SVGID_00000168079305931978110860000010272355414761483397_">
			<stop style="stop-color:#5A91F7" offset="0"></stop>
			<stop style="stop-color:#A2C1FB;stop-opacity:0.8034" offset="0.2039"></stop>
			<stop style="stop-color:#FFFFFF;stop-opacity:0.54" offset="0.9749"></stop>
		</linearGradient>
		<path d="M1433.89,1540.91
			c-100.3,0-200.6,0-300.89,0c-19.83-0.61-38.68-3.46-58-8.05c-29.97-6.97-62.26-19.56-84.62-41.41
			c-28.03-28.32-56.07-56.65-84.1-84.97c-26.71,0-53.42,0-80.13,0c-4.16,0-9.39-1.87-11.66-4.17c-2.28-2.3-0.75-4.17,3.41-4.17
			c83.44,0,166.88,0,250.32,0c1.37,0,2.85,0.2,4.3,0.56c1.57,0,2.35,0,3.92,0c14,0,28,0,41.99,0
			c-47.65-48.15-95.31-96.29-142.96-144.44c19.81,0,39.61,0,59.42,0c47.65,48.15,95.31,96.29,142.96,144.44
			c57.81,0,115.62,0,173.42,0c18.33,0.17,40.46,6.31,54.02,19.3c23.59,23.83,47.18,47.67,70.77,71.5
			C1512.54,1524.64,1463.23,1539.68,1433.89,1540.91z" style="fill:url(#SVGID_00000168079305931978110860000010272355414761483397_);"></path>
	</g>
	<g class="st31">
		
			<linearGradient y2="1016.64" x2="1005.3931" y1="1235.7972" x1="1005.3931" gradientUnits="userSpaceOnUse" id="SVGID_00000062192770168995917790000015338502970549970595_">
			<stop style="stop-color:#99C0FF" offset="0"></stop>
			<stop style="stop-color:#2B62BA" offset="1"></stop>
		</linearGradient>
		<polygon points="1034.94,963.09 1034.94,1254.09 
			975.84,1254.09 975.84,963.09" style="fill:url(#SVGID_00000062192770168995917790000015338502970549970595_);"></polygon>
		
			<linearGradient y2="988.1281" x2="999.9742" y1="725.1569" x1="999.9742" gradientUnits="userSpaceOnUse" id="SVGID_00000069388963911062926270000009805334113447171999_">
			<stop style="stop-color:#91D3F8" offset="0"></stop>
			<stop style="stop-color:#5A91F7" offset="0.9944"></stop>
		</linearGradient>
		<path d="M850.32,738.09h299.3
			c51.12,0,92.57,41.44,92.57,92.57v128.7c0,19.18-15.55,34.74-34.74,34.74H792.49c-19.18,0-34.74-15.55-34.74-34.74v-128.7
			C757.76,779.53,799.2,738.09,850.32,738.09z" style="fill:url(#SVGID_00000069388963911062926270000009805334113447171999_);"></path>
		
			<linearGradient y2="836.4604" x2="1210.7784" y1="836.4604" x1="972.6937" gradientUnits="userSpaceOnUse" id="SVGID_00000101786202192571381880000000615087357280069526_">
			<stop style="stop-color:#91D3F8" offset="0"></stop>
			<stop style="stop-color:#D9F3FF" offset="1"></stop>
		</linearGradient>
		<path d="M974.61,824.06h223.77
			c6.85,0,12.4,5.55,12.4,12.4l0,0c0,6.85-5.55,12.4-12.4,12.4H974.61c-1.06,0-1.92-0.86-1.92-1.92v-20.96
			C972.69,824.92,973.55,824.06,974.61,824.06z" style="fill:url(#SVGID_00000101786202192571381880000000615087357280069526_);"></path>
		
			<linearGradient y2="834.8071" x2="1207.4717" y1="834.8071" x1="972.6937" gradientUnits="userSpaceOnUse" id="SVGID_00000098941582130894960650000013111283760367235725_">
			<stop style="stop-color:#5A91F7" offset="0"></stop>
			<stop style="stop-color:#2B62BA" offset="1"></stop>
		</linearGradient>
		<path d="M972.69,824.06h224.03
			c5.94,0,10.75,4.81,10.75,10.75l0,0c0,5.94-4.81,10.75-10.75,10.75H972.69V824.06z" style="fill:url(#SVGID_00000098941582130894960650000013111283760367235725_);"></path>
		
			<linearGradient y2="867.7385" x2="934.0714" y1="867.7385" x1="757.161" gradientUnits="userSpaceOnUse" id="SVGID_00000157284352926967963480000014132876442500220850_">
			<stop style="stop-color:#91D3F8" offset="0"></stop>
			<stop style="stop-color:#D9F3FF" offset="1"></stop>
		</linearGradient>
		<path d="M842.9,741.39h5.43
			c47.35,0,85.74,38.39,85.74,85.74v166.95H757.16V827.13C757.16,779.78,795.55,741.39,842.9,741.39z" style="fill:url(#SVGID_00000157284352926967963480000014132876442500220850_);"></path>
		
			<linearGradient y2="869.2516" x2="931.2505" y1="869.2516" x1="785.0644" gradientUnits="userSpaceOnUse" id="SVGID_00000119093537784202361380000005633720714576978071_">
			<stop style="stop-color:#5A91F7" offset="0"></stop>
			<stop style="stop-color:#2B62BA" offset="1"></stop>
		</linearGradient>
		<path d="M843.73,748.96L843.73,748.96
			c44.74,0,81.02,36.27,81.02,81.01v159.57H762.72V829.97C762.72,785.23,798.99,748.96,843.73,748.96z" style="fill:url(#SVGID_00000119093537784202361380000005633720714576978071_);"></path>
		
			<linearGradient y2="987.5851" x2="933.9445" y1="987.5851" x1="669.9445" gradientUnits="userSpaceOnUse" id="SVGID_00000045580098312996508290000017639147665398655415_">
			<stop style="stop-color:#5A91F7" offset="0"></stop>
			<stop style="stop-color:#2B62BA" offset="1"></stop>
		</linearGradient>
		<path d="M677.44,980.09h249
			c4.14,0,7.5,3.36,7.5,7.5l0,0c0,4.14-3.36,7.5-7.5,7.5h-249c-4.14,0-7.5-3.36-7.5-7.5l0,0
			C669.94,983.44,673.3,980.09,677.44,980.09z" style="fill:url(#SVGID_00000045580098312996508290000017639147665398655415_);"></path>
		<polygon points="776.05,774.5 784.16,796.98 806.64,805.09 784.16,813.2 776.05,835.67 767.94,813.2 745.46,805.09 
			767.94,796.98" class="st1"></polygon>
		<polygon points="840.94,847.25 846.97,863.95 863.68,869.98 846.97,876.01 840.94,892.71 834.92,876.01 
			818.21,869.98 834.92,863.95" class="st1"></polygon>
		<polygon points="790.93,885.27 794.66,895.6 804.98,899.33 794.66,903.05 790.93,913.38 787.2,903.05 776.88,899.33 
			787.2,895.6" class="st1"></polygon>
		<g>
			<path d="M1162.57,899.54c-7.42,0-13.44-6.02-13.44-13.44c0-7.42,6.02-13.44,13.44-13.44
				c7.42,0,13.44,6.02,13.44,13.44C1175.99,893.52,1169.99,899.52,1162.57,899.54L1162.57,899.54z M1162.57,877.42
				c-4.8,0-8.68,3.89-8.68,8.68c0,4.8,3.89,8.68,8.68,8.68c4.8,0,8.68-3.89,8.68-8.68C1171.25,881.31,1167.36,877.42,1162.57,877.42
				L1162.57,877.42z M1162.57,877.42" class="st39"></path>
			<path d="M1147.22,951.37h-107.56c-11.15,0-20.2-9.04-20.2-20.2v-29.7c0-11.15,9.04-20.2,20.2-20.2h100.93
				c1.31,0,2.38,1.06,2.38,2.38c0,1.31-1.06,2.38-2.38,2.38h-100.96c-8.53,0-15.44,6.91-15.44,15.44v29.7
				c0,8.53,6.91,15.44,15.44,15.44h107.56c4.1,0,8.02-1.63,10.92-4.52c2.9-2.9,4.52-6.82,4.52-10.92v-22.94
				c0-1.31,1.06-2.38,2.38-2.38c1.31,0,2.38,1.06,2.38,2.38v22.95C1167.38,942.32,1158.36,951.35,1147.22,951.37L1147.22,951.37z
				 M1147.22,951.37" class="st39"></path>
			<g>
				<path d="M1103.75,933.59c-1.4,0.79-2.84,1.37-4.34,1.73c-1.49,0.36-3.06,0.53-4.71,0.53
					c-2.33,0-4.54-0.36-6.64-1.07c-2.1-0.71-3.94-1.79-5.53-3.23c-1.59-1.44-2.85-3.25-3.78-5.43c-0.93-2.18-1.4-4.72-1.4-7.63
					c0-3.21,0.55-6.13,1.65-8.76c1.1-2.63,2.58-4.89,4.46-6.76s4.06-3.32,6.56-4.34c2.49-1.01,5.14-1.52,7.94-1.52
					c2.47,0,4.7,0.4,6.7,1.19c2,0.8,3.71,1.91,5.12,3.35s2.5,3.16,3.25,5.16c0.75,2,1.13,4.2,1.13,6.58c0,2.11-0.32,3.96-0.95,5.55
					c-0.63,1.59-1.44,2.91-2.43,3.97c-0.99,1.06-2.09,1.85-3.31,2.39c-1.22,0.53-2.42,0.8-3.6,0.8c-1.32,0-2.46-0.3-3.43-0.91
					c-0.97-0.6-1.57-1.48-1.79-2.63h-0.08c-0.33,0.47-0.72,0.89-1.17,1.28s-0.93,0.71-1.42,0.99c-0.49,0.27-1,0.49-1.52,0.64
					c-0.52,0.15-1.03,0.23-1.52,0.23c-1.78,0-3.23-0.62-4.34-1.85c-1.11-1.23-1.67-2.92-1.67-5.06c0-1.37,0.23-2.73,0.7-4.07
					c0.47-1.34,1.11-2.55,1.93-3.62c0.82-1.07,1.8-1.93,2.94-2.59s2.38-0.99,3.72-0.99c0.79,0,1.49,0.19,2.1,0.56
					s1.1,0.95,1.48,1.75h0.08l0.66-1.93h3.74l-2.02,10.03c-0.71,2.93,0.03,4.4,2.22,4.4c0.71,0,1.41-0.21,2.1-0.62
					c0.68-0.41,1.3-0.99,1.85-1.75c0.55-0.75,0.99-1.67,1.32-2.73c0.33-1.07,0.49-2.28,0.49-3.62c0-1.73-0.25-3.37-0.74-4.92
					c-0.49-1.55-1.26-2.91-2.3-4.07c-1.04-1.17-2.36-2.08-3.97-2.75c-1.6-0.67-3.53-1.01-5.78-1.01c-2,0-3.96,0.41-5.88,1.23
					c-1.92,0.82-3.63,2-5.14,3.52s-2.71,3.36-3.62,5.51c-0.9,2.15-1.36,4.56-1.36,7.22c0,2.3,0.36,4.31,1.09,6.02
					c0.73,1.71,1.71,3.15,2.96,4.3c1.25,1.15,2.71,2.01,4.38,2.59c1.67,0.58,3.44,0.86,5.31,0.86c1.26,0,2.53-0.18,3.8-0.53
					c1.28-0.36,2.41-0.81,3.39-1.36L1103.75,933.59z M1091.49,918.46c0,1.15,0.25,2.01,0.76,2.57c0.51,0.56,1.16,0.84,1.95,0.84
					c0.55,0,1.09-0.18,1.62-0.53c0.53-0.36,1.13-0.95,1.79-1.77l1.19-6.58c-0.6-1.01-1.41-1.52-2.43-1.52
					c-0.74,0-1.41,0.23-2.01,0.68c-0.6,0.45-1.12,1.02-1.54,1.71c-0.42,0.69-0.75,1.44-0.99,2.26
					C1091.61,916.94,1091.49,917.72,1091.49,918.46z" class="st39"></path>
			</g>
		</g>
	</g>
</g>
<g id="暂无任务">
	<g class="st8">
		
			<linearGradient y2="1497.1644" x2="1073.7732" y1="1297.5992" x1="1073.7732" gradientUnits="userSpaceOnUse" id="SVGID_00000149381785101913285210000001947875252805443741_">
			<stop style="stop-color:#5A91F7" offset="0"></stop>
			<stop style="stop-color:#A2C1FB;stop-opacity:0.8034" offset="0.2039"></stop>
			<stop style="stop-color:#FFFFFF;stop-opacity:0.54" offset="0.9749"></stop>
		</linearGradient>
		<path d="M1212.18,1323.79L1212.18,1323.79
			c-7.87-7.95-15.74-15.9-23.61-23.85c-12.84-12.02-33.93-17.69-51.21-17.54c-24.68,0-49.37,0-74.05,0c-58.54,0-117.08,0-175.62,0
			c-22.64,0-45.28,0-67.92,0h0c-0.71,0-1.06,0-1.77,0c0.01,0.01,0.01,0.01,0.02,0.02c-8.31-0.55-27.82,6.73-14.64,17.41
			c19.87,20.08,39.74,40.16,59.62,60.23c22.42,0,44.85,0,67.27,0c-0.36-0.36-0.54-0.55-0.9-0.91c0.17,0,0.26,0,0.43,0
			c32.2,32.53,64.39,65.06,96.59,97.59c12.51,12.38,34.3,17.37,51.22,17.54c83.22,0,166.45,0,249.67,0
			c6.63-0.77,31.79-5.07,16.49-17.54c-0.05-0.05-0.08-0.08-0.14-0.14c0,0,0,0,0,0C1299.81,1412.33,1255.99,1368.06,1212.18,1323.79z" style="fill:url(#SVGID_00000149381785101913285210000001947875252805443741_);"></path>
	</g>
	<g>
		
			<linearGradient gradientTransform="matrix(-1 0 0 1 1685.0243 0)" y2="891.9064" x2="668.2876" y1="1279.9517" x1="668.2876" gradientUnits="userSpaceOnUse" id="SVGID_00000119107577505813120870000007250829340394643132_">
			<stop style="stop-color:#91D3F8" offset="0"></stop>
			<stop style="stop-color:#5A91F7" offset="0.9944"></stop>
		</linearGradient>
		<path d="M895.96,1298.88h198.39h83.66
			c21.12,0,38.24-17.12,38.24-38.24v-341.8c0-21.12-17.12-38.24-38.24-38.24H895.96c-21.12,0-38.24,17.12-38.24,38.24v212.73h-40.49
			v167.32H895.96z" style="fill:url(#SVGID_00000119107577505813120870000007250829340394643132_);"></path>
		
			<linearGradient gradientTransform="matrix(-1 0 0 1 1685.0243 0)" y2="1214.2252" x2="828.6398" y1="1214.2252" x1="904.6398" gradientUnits="userSpaceOnUse" id="SVGID_00000106118897634420782160000015394039331812361096_">
			<stop style="stop-color:#5A91F7" offset="0"></stop>
			<stop style="stop-color:#2B62BA" offset="1"></stop>
		</linearGradient>
		<path d="M819.22,1298.88L819.22,1298.88
			c-20.99,0-38-17.01-38-38v-131.3h76v131.3C857.22,1281.86,840.21,1298.88,819.22,1298.88z" style="fill:url(#SVGID_00000106118897634420782160000015394039331812361096_);"></path>
		
			<linearGradient gradientTransform="matrix(-1 0 0 1 1685.0243 0)" y2="1184.535" x2="618.2755" y1="885.535" x1="618.2755" gradientUnits="userSpaceOnUse" id="SVGID_00000013161693030993474020000017155425391818676387_">
			<stop style="stop-color:#91D3F8" offset="0"></stop>
			<stop style="stop-color:#D9F3FF" offset="1"></stop>
		</linearGradient>
		<path d="M1216.25,919.13v289.5
			c-9.53,1.02-19.2,1.55-29,1.55c-149.12,0-270-120.88-270-270c0-20.37,2.27-40.22,6.55-59.3h254.21
			C1199.13,880.88,1216.25,898.01,1216.25,919.13z" style="fill:url(#SVGID_00000013161693030993474020000017155425391818676387_);"></path>
		<g>
			<path d="M942.96,1249.97h6.11c3.96,0,7.17,3.21,7.17,7.17l0,0c0,3.96-3.21,7.17-7.17,7.17h-6.11
				c-3.96,0-7.17-3.21-7.17-7.17l0,0C935.79,1253.18,939,1249.97,942.96,1249.97z" class="st39"></path>
		</g>
		<g>
			<path d="M914.96,1249.97h6.11c3.96,0,7.17,3.21,7.17,7.17l0,0c0,3.96-3.21,7.17-7.17,7.17h-6.11
				c-3.96,0-7.17-3.21-7.17-7.17l0,0C907.79,1253.18,911,1249.97,914.96,1249.97z" class="st39"></path>
		</g>
		<g>
			<path d="M1088.96,1012.3H896.3c-3.96,0-7.17,3.21-7.17,7.17l0,0c0,3.96,3.21,7.17,7.17,7.17h192.66
				c3.96,0,7.17-3.21,7.17-7.17l0,0C1096.13,1015.51,1092.92,1012.3,1088.96,1012.3z" class="st39"></path>
		</g>
		<g>
			<path d="M1088.96,976.64H896.3c-3.96,0-7.17,3.21-7.17,7.17l0,0c0,3.96,3.21,7.17,7.17,7.17h192.66
				c3.96,0,7.17-3.21,7.17-7.17l0,0C1096.13,979.85,1092.92,976.64,1088.96,976.64z" class="st39"></path>
		</g>
		<g>
			<path d="M1002.84,940.98H896.3c-3.96,0-7.17,3.21-7.17,7.17l0,0c0,3.96,3.21,7.17,7.17,7.17h106.54
				c3.96,0,7.17-3.21,7.17-7.17l0,0C1010.01,944.19,1006.8,940.98,1002.84,940.98z" class="st39"></path>
		</g>
		
			<linearGradient y2="1170.5686" x2="1179.2587" y1="1170.5686" x1="1005.3921" gradientUnits="userSpaceOnUse" id="SVGID_00000104701001462146138620000013871949624606958731_">
			<stop style="stop-color:#5A91F7" offset="0"></stop>
			<stop style="stop-color:#2B62BA" offset="1"></stop>
		</linearGradient>
		<path d="M1144.19,1103.09
			c-26.97-33.58-76.05-38.95-109.64-11.98c-33.58,26.97-38.95,76.05-11.98,109.64c23.05,28.71,62.27,36.79,94.15,21.69
			c0.39,0.63,0.82,1.25,1.3,1.85l28.67,36.08c6.33,7.88,17.84,9.14,25.72,2.81l0,0c7.88-6.33,9.14-17.84,2.81-25.72l-28.67-36.08
			c-0.48-0.6-0.99-1.15-1.52-1.67C1166.66,1171.84,1167.24,1131.8,1144.19,1103.09z M1120.59,1198.26
			c-25.6,20.55-63.01,16.46-83.56-9.13c-20.55-25.6-16.46-63.01,9.13-83.56s63.01-16.46,83.56,9.13
			C1150.28,1140.3,1146.19,1177.71,1120.59,1198.26z" style="fill:url(#SVGID_00000104701001462146138620000013871949624606958731_);"></path>
		
			<linearGradient y2="1170.5686" x2="1170.2587" y1="1170.5686" x1="996.3921" gradientUnits="userSpaceOnUse" id="SVGID_00000052100075306474751130000016398430273562732956_">
			<stop style="stop-color:#91D3F8" offset="0"></stop>
			<stop style="stop-color:#5A91F7" offset="0.9944"></stop>
		</linearGradient>
		<path d="M1135.19,1103.09
			c-26.97-33.58-76.05-38.95-109.64-11.98c-33.58,26.97-38.95,76.05-11.98,109.64c23.05,28.71,62.27,36.79,94.15,21.69
			c0.39,0.63,0.82,1.25,1.3,1.85l28.67,36.08c6.33,7.88,17.84,9.14,25.72,2.81l0,0c7.88-6.33,9.14-17.84,2.81-25.72l-28.67-36.08
			c-0.48-0.6-0.99-1.15-1.52-1.67C1157.66,1171.84,1158.24,1131.8,1135.19,1103.09z M1111.59,1198.26
			c-25.6,20.55-63.01,16.46-83.56-9.13c-20.55-25.6-16.46-63.01,9.13-83.56s63.01-16.46,83.56,9.13
			C1141.28,1140.3,1137.19,1177.71,1111.59,1198.26z" style="fill:url(#SVGID_00000052100075306474751130000016398430273562732956_);"></path>
	</g>
	<g>
		<polygon points="1142.81,1068.33 1149.97,1088.16 1169.8,1095.32 1149.97,1102.48 1142.81,1122.31 1135.65,1102.48 
			1115.82,1095.32 1135.65,1088.16" class="st1"></polygon>
		<polygon points="1086.19,1108.04 1089.91,1118.37 1100.24,1122.1 1089.91,1125.82 1086.19,1136.15 1082.46,1125.82 
			1072.13,1122.1 1082.46,1118.37" class="st1"></polygon>
	</g>
</g>
<g class="st19" id="暂无带货视频">
	<g class="st20">
		
			<linearGradient y2="1587.7534" x2="1194.4661" y1="1254.8022" x1="1194.4661" gradientUnits="userSpaceOnUse" id="SVGID_00000176738257597341478220000004708349236506342806_">
			<stop style="stop-color:#5A91F7" offset="0"></stop>
			<stop style="stop-color:#A2C1FB;stop-opacity:0.8034" offset="0.2039"></stop>
			<stop style="stop-color:#FFFFFF;stop-opacity:0.54" offset="0.9749"></stop>
		</linearGradient>
		<path d="M1556.82,1515.8
			c3.64,4.08,1.02,7.37-6.24,7.49c-47.94,0.78-95.88,1.57-143.82,2.35c-7.65,0.12-17.55-3.32-22.11-7.7c-3.2-3.08-4.8-4.62-8.01-7.7
			c-0.3-0.29-0.56-0.57-0.8-0.85c-47.49-28.3-94.98-56.59-142.47-84.89c0.41,2.13,0.32,4.13-0.23,5.97
			c3.44,16.82-18.48,18.52-29.77,19.41c-64.4,0-128.8,0-193.21,0c-29.39-0.16-65.65-11.69-86.62-33.14
			c-16.98-17.16-33.97-34.32-50.95-51.48c-7.7-7.78-10.41-14.92-8.72-20.58c-3.39-16.95,18.73-18.54,29.77-19.41
			c64.4,0,128.81,0,193.21,0c27.72,0.39,58.62,10.13,80.4,27.61c1.06,0.48,2.07,1,3.02,1.57c79.08,47.12,158.16,94.24,237.24,141.36
			c2.73-0.04,4.09-0.07,6.82-0.11c-98.85-59.85-197.69-119.71-296.53-179.56c-1.35-0.8-2.46-1.62-3.34-2.44
			c-85.59,0-171.17,0-256.76,0c-7.46,0-16.88-3.4-21.04-7.6c-1.58-1.59-2.37-2.39-3.94-3.98c-2.49-2.52-2.51-4.74-0.53-6.13
			c-3.78-4.07-1.07-7.33,6.23-7.33c14.34,0,28.68,0,43.02,0c-6.83-2.99-12.88-6.78-16.96-10.9c-6.17-6.23-6.3-11.71-1.42-14.82
			c1.83-3.41,7.12-5.51,15.29-5.54c15.84-0.05,34.67,6.53,45.88,17.55c5.49,5.4,6.2,10.49,2.85,13.71c42.8,0,85.59,0,128.39,0
			c-8.02-3.15-15.26-7.42-19.92-12.13c-6.17-6.23-6.3-11.71-1.42-14.82c1.83-3.41,7.12-5.51,15.29-5.54
			c15.84-0.05,34.67,6.53,45.88,17.55c6.17,6.06,6.3,11.71,1.42,14.82c-0.02,0.04-0.04,0.08-0.07,0.12c10.63,0,15.94,0,26.56,0
			c7.46,0,16.88,3.4,21.04,7.6c1.58,1.59,2.37,2.39,3.94,3.98c0.92,0.93,1.51,1.82,1.78,2.65
			c105.73,63.98,211.47,127.97,317.2,191.95c19.55-0.32,39.09-0.64,58.64-0.96c7.65-0.12,17.55,3.32,22.11,7.7
			c3.2,3.08,4.8,4.62,8.01,7.7C1558.66,1511.93,1558.82,1514.31,1556.82,1515.8z" style="fill:url(#SVGID_00000176738257597341478220000004708349236506342806_);"></path>
	</g>
	<g class="st31">
		
			<linearGradient y2="1253.1974" x2="866.9962" y1="1201.8378" x1="866.9962" gradientUnits="userSpaceOnUse" id="SVGID_00000148649143669730129930000000384621330145673366_">
			<stop style="stop-color:#5A91F7" offset="0"></stop>
			<stop style="stop-color:#2B62BA" offset="1"></stop>
		</linearGradient>
		<circle r="29.57" cy="1227.01" cx="867" style="fill:url(#SVGID_00000148649143669730129930000000384621330145673366_);"></circle>
		
			<linearGradient y2="1205.1555" x2="872.7137" y1="1256.515" x1="872.7137" gradientUnits="userSpaceOnUse" id="SVGID_00000183971003880500138630000001564907339531230869_">
			<stop style="stop-color:#5A91F7" offset="0"></stop>
			<stop style="stop-color:#2B62BA" offset="1"></stop>
		</linearGradient>
		<circle r="29.57" cy="1231.74" cx="872.71" style="fill:url(#SVGID_00000183971003880500138630000001564907339531230869_);"></circle>
		
			<linearGradient y2="1255.2675" x2="1045.7158" y1="1203.908" x1="1045.7158" gradientUnits="userSpaceOnUse" id="SVGID_00000060020619205227210490000001673748803061283753_">
			<stop style="stop-color:#5A91F7" offset="0"></stop>
			<stop style="stop-color:#2B62BA" offset="1"></stop>
		</linearGradient>
		<circle r="29.57" cy="1229.08" cx="1045.72" style="fill:url(#SVGID_00000060020619205227210490000001673748803061283753_);"></circle>
		
			<linearGradient y2="1207.2256" x2="1051.4332" y1="1258.5851" x1="1051.4332" gradientUnits="userSpaceOnUse" id="SVGID_00000163074463143836081390000010905930991106836103_">
			<stop style="stop-color:#5A91F7" offset="0"></stop>
			<stop style="stop-color:#2B62BA" offset="1"></stop>
		</linearGradient>
		<circle r="29.57" cy="1233.81" cx="1051.43" style="fill:url(#SVGID_00000163074463143836081390000010905930991106836103_);"></circle>
		
			<linearGradient y2="829.0334" x2="1045.3698" y1="1167.193" x1="1045.3698" gradientUnits="userSpaceOnUse" id="SVGID_00000132792986565855869370000003264578071319104918_">
			<stop style="stop-color:#91D3F8" offset="0"></stop>
			<stop style="stop-color:#D9F3FF" offset="1"></stop>
		</linearGradient>
		<path d="M1297.08,813.3l-151.61-3.96
			c-8.07-0.21-14.8,5.6-15.03,12.97l-0.41,12.97c-0.02,0.48,0,0.96,0.04,1.43l-100.4,236.84c-2.92,6.88,0.82,14.62,8.35,17.28
			l13.23,4.69c7.53,2.67,15.99-0.75,18.91-7.63l100.96-238.17l16.83,0.44l-127.17,312.16c-0.57,1.35-0.89,2.74-0.97,4.11H793.48
			c-7.74,0-14.02,5.74-14.02,12.81v6.71c0,7.08,6.28,12.81,14.02,12.81h295.44c7.74,0,14.02-5.74,14.02-12.81v-6.71
			c0-1.57-0.31-3.07-0.88-4.46l131.97-323.42l61.82,1.62c8.07,0.21,14.8-5.6,15.03-12.97l0.41-12.97
			C1311.5,819.66,1305.15,813.51,1297.08,813.3z" style="fill:url(#SVGID_00000132792986565855869370000003264578071319104918_);"></path>
		
			<linearGradient y2="1209.475" x2="1051.0892" y1="871.3154" x1="1051.0892" gradientUnits="userSpaceOnUse" id="SVGID_00000107559197039815873940000017271171436845405577_">
			<stop style="stop-color:#91D3F8" offset="0"></stop>
			<stop style="stop-color:#5A91F7" offset="0.5708"></stop>
		</linearGradient>
		<path d="M1302.8,823.18l-151.61-3.96
			c-8.07-0.21-14.8,5.6-15.03,12.97l-0.41,12.97c-0.02,0.48,0,0.96,0.04,1.43l-100.4,236.84c-2.92,6.88,0.82,14.62,8.35,17.28
			l13.23,4.69c7.53,2.67,15.99-0.75,18.91-7.63l100.96-238.17l16.83,0.44l-127.17,312.16c-0.57,1.35-0.89,2.74-0.97,4.11H799.2
			c-7.74,0-14.02,5.74-14.02,12.81v6.71c0,7.08,6.28,12.81,14.02,12.81h295.44c7.74,0,14.02-5.74,14.02-12.81v-6.71
			c0-1.57-0.31-3.07-0.88-4.46l131.97-323.42l61.82,1.62c8.07,0.21,14.8-5.6,15.03-12.97l0.41-12.97
			C1317.22,829.54,1310.87,823.39,1302.8,823.18z" style="fill:url(#SVGID_00000107559197039815873940000017271171436845405577_);"></path>
		
			<linearGradient y2="947.0281" x2="912.0451" y1="1119.3134" x1="912.0451" gradientUnits="userSpaceOnUse" id="SVGID_00000116193107124315002240000002000062052886053262_">
			<stop style="stop-color:#91D3F8" offset="0"></stop>
			<stop style="stop-color:#D9F3FF" offset="1"></stop>
		</linearGradient>
		<path d="M1012.26,1135.4H811.83
			c-30.84,0-55.83-25-55.83-55.83v-86.74c0-30.84,25-55.83,55.83-55.83h200.43c30.84,0,55.83,25,55.83,55.83v86.74
			C1068.09,1110.4,1043.09,1135.4,1012.26,1135.4z" style="fill:url(#SVGID_00000116193107124315002240000002000062052886053262_);"></path>
		
			<linearGradient y2="1131.5725" x2="919.11" y1="959.2872" x1="919.11" gradientUnits="userSpaceOnUse" id="SVGID_00000155125818344964375340000017153059383451372178_">
			<stop style="stop-color:#91D3F8" offset="0"></stop>
			<stop style="stop-color:#5A91F7" offset="0.9944"></stop>
		</linearGradient>
		<path d="M1019.32,1146.94H818.9
			c-30.84,0-55.83-25-55.83-55.83v-86.74c0-30.84,25-55.83,55.83-55.83h200.43c30.84,0,55.83,25,55.83,55.83v86.74
			C1075.16,1121.94,1050.16,1146.94,1019.32,1146.94z" style="fill:url(#SVGID_00000155125818344964375340000017153059383451372178_);"></path>
		
			<linearGradient y2="1135.9246" x2="917.9099" y1="973.7758" x1="920.1165" gradientUnits="userSpaceOnUse" id="SVGID_00000000928983896666584390000018152246831299811465_">
			<stop style="stop-color:#5A91F7" offset="0"></stop>
			<stop style="stop-color:#2B62BA" offset="1"></stop>
		</linearGradient>
		<path d="M1026.18,1132.25H812.04
			c-18.72,0-33.89-15.17-33.89-33.89V997.1c0-18.72,15.17-33.89,33.89-33.89h214.15c18.72,0,33.89,15.17,33.89,33.89v101.26
			C1060.07,1117.08,1044.9,1132.25,1026.18,1132.25z" style="fill:url(#SVGID_00000000928983896666584390000018152246831299811465_);"></path>
		
			<linearGradient y2="967.6772" x2="1040.5822" y1="1059.474" x1="933.2607" gradientUnits="userSpaceOnUse" id="SVGID_00000023963035568906337800000004988160561438727348_">
			<stop style="stop-color:#91D3F8" offset="0"></stop>
			<stop style="stop-color:#5A91F7" offset="0.9944"></stop>
		</linearGradient>
		<path d="M1027.11,962.38H874.05
			c-0.95,6.33-1.44,12.81-1.44,19.4c0,71.8,58.2,130,130,130c20.99,0,40.82-4.98,58.38-13.82c0-0.15,0.01-0.29,0.01-0.43V996.27
			C1061,977.55,1045.83,962.38,1027.11,962.38z" style="fill:url(#SVGID_00000023963035568906337800000004988160561438727348_);"></path>
		<path d="M947.55,1032.76l-22.87-12.91c-11.48-6.48-25.68,1.81-25.68,14.99v25.82c0,13.18,14.2,21.47,25.68,14.99
			l22.87-12.91C959.22,1056.16,959.22,1039.35,947.55,1032.76z" class="st39"></path>
	</g>
</g>
<g class="st19" id="网络异常">
	
		<linearGradient gradientTransform="matrix(-0.7071 -0.7071 0.1061 -0.1061 7686.1587 4659.8975)" y2="-13611.9688" x2="7314.4502" y1="-14079.2324" x1="7291.9878" gradientUnits="userSpaceOnUse" id="SVGID_00000090989006114443471640000015702034213015030931_">
		<stop style="stop-color:#91D3F8" offset="0"></stop>
		<stop style="stop-color:#D9F3FF" offset="1"></stop>
	</linearGradient>
	<path d="M872.89,827.29
		c13.71-13.71,98.87,49.23,190.22,140.57c91.34,91.34,154.28,176.51,140.57,190.22L872.89,827.29z" style="display:inline;fill:url(#SVGID_00000090989006114443471640000015702034213015030931_);"></path>
	<g class="st20">
		
			<linearGradient y2="1530.6615" x2="1178.0283" y1="1271.0015" x1="1178.0283" gradientUnits="userSpaceOnUse" id="SVGID_00000086679521926598436150000007890887216110020241_">
			<stop style="stop-color:#5A91F7" offset="0"></stop>
			<stop style="stop-color:#A2C1FB;stop-opacity:0.8034" offset="0.2039"></stop>
			<stop style="stop-color:#FFFFFF;stop-opacity:0.54" offset="0.9749"></stop>
		</linearGradient>
		<path d="M1524.17,1507.03
			c-33.2-7.86-66.39-15.72-99.59-23.58c-5.15-1.22-7.72-1.83-12.87-3.05c6.91-3,10.37-4.49,17.28-7.49
			c5.36,1.15,8.04,1.72,13.4,2.86c-0.19-5.29-1.33-10.86-3.54-16.39c-7.24-18.1-21.19-32.05-35.63-44.46
			c-2.07-1.78-5.56-3.23-9.21-4.09c-3.78-1.39-8.31-2.15-12.05-1.85c-2.96,0.24-4.87,1.09-5.57,2.28c-0.69,1.18-0.11,2.7,1.72,4.28
			c11.92,10.3,23.33,21.54,30.39,36.27c1.28,0.05,1.92,0.07,3.2,0.12c0.16,0.33,0.33,0.66,0.48,0.98c2.91,0.11,4.37,0.16,7.28,0.27
			c2.34,7.45,3.52,11.18,5.86,18.63c-5.72,2.9-8.57,4.35-14.29,7.25c-1.38-7.21-2.07-10.82-3.45-18.03
			c-4.34-0.27-6.51-0.4-10.84-0.67c-12.36-0.77-24.73-1.54-37.09-2.31c-6.11-0.38-9.17-0.57-15.28-0.95
			c0.01-3.29,0.02-4.94,0.03-8.24c9.78,0.36,14.67,0.54,24.45,0.9c-5.65-13.3-15.76-23.26-26.24-32.34
			c-2.05-1.78-5.56-3.23-9.21-4.09c-3.78-1.39-8.31-2.15-12.05-1.85c-5.92,0.47-7.42,3.39-3.84,6.55
			c9.13,8.07,18.99,17.38,23.21,29.72c1.29,3.72,1.94,5.59,3.24,9.31c-3.68-0.23-5.52-0.34-9.2-0.57
			c-11.93-0.74-23.86-1.48-35.79-2.22c-10.14-0.63-15.21-0.95-25.34-1.58c-0.67-0.04-1-0.06-1.67-0.1c1.8-2.92,2.69-4.38,4.49-7.29
			c0.61-0.16,0.91-0.24,1.51-0.4c0,0,0.47-0.06,1.07-0.16c0.55,0.02,0.83,0.03,1.38,0.05c0.05,0.32,0.09,0.65,0.12,0.97
			c9.96,0.37,14.93,0.55,24.89,0.92c-2.46-9.79-10.26-17.12-17.19-23.28c-2-1.78-5.56-3.23-9.21-4.09
			c-3.78-1.39-8.31-2.16-12.05-1.85c-5.92,0.47-7.64,3.41-3.85,6.56c8.49,7.04,13.14,14.08,13.71,20.51
			c-0.14,0.25-0.21,0.38-0.35,0.63c-2.17,2.95-3.26,4.43-5.43,7.38c-6.05-0.38-9.08-0.56-15.13-0.94c3.66,0.87,5.49,1.3,9.15,2.17
			c-5.57-0.35-8.35-0.52-13.92-0.87c-8.06-1.39-12.09-2.09-20.16-3.48c-1.87-0.44-2.81-0.67-4.68-1.11
			c-2.74-0.65-4.11-0.97-6.84-1.62c-1.92-0.45-2.88-0.68-4.8-1.14c-1.31-0.31-1.97-0.47-3.28-0.78c1.35,0.08,2.02,0.13,3.37,0.21
			c1.93,0.12,2.89,0.18,4.82,0.3c2.72,0.17,4.08,0.25,6.8,0.42c1.89,0.12,2.84,0.18,4.73,0.29c2.82,0.18,4.23,0.26,7.05,0.44
			c0.33,0.02,0.49,0.03,0.82,0.05c-0.56-1.98-1.99-4.1-4.38-6.29c-4.67-4.28-12.13-8.01-20.52-10.64
			c30.7-27.55,61.41-55.11,92.11-82.66c3.75-3.36-1.17-8.82-10.98-12.18s-20.81-3.36-24.56,0c-1.64,1.48-2.47,2.21-4.11,3.69
			c-69.86-20.76-143.64-33.46-216.74-29.38c1.28-10.74,2.56-21.48,3.84-32.22c-8.88-2.98-13.32-4.47-22.2-7.45
			c-74.78,0-124.75,20.28-199.53,20.28c43.84,22.8,62.87,25.32,106.71,48.11c-3.51,2.35-6.76,4.84-9.69,7.45
			c-79.33,70.76,95.7,152.92,140.06,170.48c-1.64,1.48-2.47,2.21-4.11,3.69c-3.75,3.36,1.17,8.81,10.98,12.18
			c9.81,3.36,20.81,3.36,24.55,0c29.37-26.35,58.74-52.71,88.11-79.06c10.34,3.81,21.53,5.9,32.51,5.42
			c7.06-0.31,12.29-1.89,15.28-4.21c-1.1-0.07-1.65-0.1-2.75-0.17c-0.23-1.23-0.35-1.84-0.59-3.07c8.36,1.24,12.54,1.85,20.89,3.09
			c5.6,1.33,8.4,1.99,14,3.31c-2.32,3.15-3.48,4.73-5.8,7.88c0.13,0.01,0.2,0.01,0.33,0.02c-0.01,0.02-0.02,0.03-0.03,0.06
			c-0.12-0.03-0.18-0.05-0.3-0.08c-0.67,1.82-1.73,3.66-3.19,5.19c-10.48,10.97-28.18,12.4-42.75,13.16
			c-3.05,0.16-5.28,0.82-6.26,1.93c-0.98,1.1-0.78,2.58,0.85,4.17c0.35,0.34,0.76,0.67,1.2,0.99c0.17,0.21,0.35,0.42,0.57,0.63
			c3.25,3.18,11.04,5.7,17.16,5.41c18.23-0.87,42-2.5,55.27-17.01c1.83-2,3.18-4.24,4.05-6.52c-0.9-0.23-1.34-0.34-2.24-0.56
			c0.16-0.35,0.33-0.7,0.47-1.06c-9.08-2.28-13.62-3.42-22.7-5.71c-0.1-0.2-0.15-0.29-0.25-0.49c0.06,0,0.09,0.01,0.15,0.01
			c1.9-3.08,2.85-4.62,4.74-7.71c9.8,2.32,14.7,3.48,24.5,5.8c12,2.84,24,5.68,36,8.52c10.14,2.4,15.21,3.6,25.35,6
			c3.63,0.86,5.45,1.29,9.08,2.15c0,0,0,0.01,0,0.01c-6.71,3.49-10.06,5.24-16.77,8.73c-0.32-0.08-0.49-0.12-0.81-0.2
			c0.16-0.35,0.31-0.71,0.45-1.06c-10.09-2.54-15.14-3.8-25.23-6.34c-13.03,29.14-56.77,31.71-83.39,32.91
			c-3.07,0.14-5.28,0.82-6.26,1.93c-0.98,1.1-0.77,2.58,0.85,4.17c0.35,0.34,0.76,0.67,1.2,0.99c0.17,0.21,0.35,0.42,0.57,0.63
			c3.25,3.18,11,5.67,17.16,5.41c28.98-1.22,69.42-3.93,90.4-27.82c2.85-3.24,5.03-6.67,6.46-10.25c-0.54-0.14-0.81-0.2-1.35-0.34
			c6.78-2.97,10.17-4.46,16.96-7.43c1.37,7.17,2.06,10.76,3.43,17.93c7.14,0.44,10.7,0.67,17.84,1.11c6.47,0.4,9.7,0.6,16.17,1.01
			c-0.05,0.44-0.07,0.66-0.12,1.1c0.53,3.91,0.8,5.86,1.33,9.77c-10.75-0.83-16.12-1.25-26.87-2.09
			c-26.39,27.79-73.04,31.3-108.32,32.72c-6.17,0.25-8.66,2.92-5.41,6.09c0.35,0.34,0.76,0.67,1.2,0.99
			c0.17,0.21,0.35,0.42,0.57,0.63c3.25,3.18,10.98,5.64,17.16,5.41c25.69-0.97,52.29-3.29,76.49-11.38
			c16.12-5.39,33.59-12.75,45.29-26.09c1.29-1.47,2.5-2.98,3.59-4.51c-1.13-0.09-1.7-0.13-2.83-0.22c0.36-0.47,0.72-0.93,1.06-1.4
			c-0.75-0.06-1.12-0.09-1.87-0.14c-0.36-4.34-0.55-6.51-0.91-10.85c4.79,0.3,7.19,0.45,11.98,0.74c35.1,2.18,70.2,4.37,105.3,6.55
			c-3.66-0.87-5.49-1.3-9.15-2.17C1515.82,1506.51,1518.6,1506.68,1524.17,1507.03z" style="opacity:0.8034;fill:url(#SVGID_00000086679521926598436150000007890887216110020241_);"></path>
	</g>
	<g class="st31">
		
			<linearGradient y2="1128.4519" x2="952.2895" y1="1294.2905" x1="949.5678" gradientUnits="userSpaceOnUse" id="SVGID_00000033355776360360913770000007804147568010671777_">
			<stop style="stop-color:#91D3F8" offset="0"></stop>
			<stop style="stop-color:#D9F3FF" offset="1"></stop>
		</linearGradient>
		<polygon points="1053.35,1275.79 949.87,1071.45 
			846.39,1275.79 1023.21,1275.79 1039.06,1289.64" style="fill:url(#SVGID_00000033355776360360913770000007804147568010671777_);"></polygon>
		
			<linearGradient y2="1139.4962" x2="938.0491" y1="1297.1538" x1="935.4617" gradientUnits="userSpaceOnUse" id="SVGID_00000023274050985810675810000014394681141829011857_">
			<stop style="stop-color:#99C0FF" offset="0"></stop>
			<stop style="stop-color:#2B62BA" offset="1"></stop>
		</linearGradient>
		<polygon points="935.58,1085.3 832.11,1289.64 
			1039.06,1289.64" style="fill:url(#SVGID_00000023274050985810675810000014394681141829011857_);"></polygon>
		
			<linearGradient gradientTransform="matrix(0.7071 0.7071 -0.7071 0.7071 2226.0759 -79.2592)" y2="2015.98" x2="-62.052" y1="1548.7167" x1="-84.5143" gradientUnits="userSpaceOnUse" id="SVGID_00000022541869315233628260000001735577204220907683_">
			<stop style="stop-color:#91D3F8" offset="0"></stop>
			<stop style="stop-color:#5A91F7" offset="0.5708"></stop>
		</linearGradient>
		<path d="M1212.18,1148.57
			c-91.34,91.34-239.44,91.34-330.79,0s-91.34-239.44,0-330.79L1212.18,1148.57z" style="fill:url(#SVGID_00000022541869315233628260000001735577204220907683_);"></path>
		<g>
			
				<linearGradient gradientTransform="matrix(0.6374 0.7705 -0.7705 0.6374 2576.491 -156.6438)" y2="1823.2712" x2="-71.4472" y1="1823.2712" x1="-89.3818" gradientUnits="userSpaceOnUse" id="SVGID_00000073680371079484775570000012700156788502772376_">
				<stop style="stop-color:#91D3F8" offset="0"></stop>
				<stop style="stop-color:#5A91F7" offset="0.9944"></stop>
			</linearGradient>
			<path d="M1132,945.69l-22.07,2.93
				c-0.89-1.88-1.87-3.73-2.92-5.54l18.33-11.13C1127.94,936.37,1130.17,940.96,1132,945.69z" style="fill:url(#SVGID_00000073680371079484775570000012700156788502772376_);"></path>
			
				<linearGradient gradientTransform="matrix(0.6374 0.7705 -0.7705 0.6374 2576.491 -156.6438)" y2="1724.0416" x2="-20.8371" y1="1724.0416" x1="-104.9372" gradientUnits="userSpaceOnUse" id="SVGID_00000062875076507343494550000011527849656761082535_">
				<stop style="stop-color:#91D3F8" offset="0"></stop>
				<stop style="stop-color:#5A91F7" offset="0.9944"></stop>
			</linearGradient>
			<path d="M1226.58,933.12l-9.44,1.25
				c-7.32-26.45-20.35-50.75-37.79-71.33l24.84-3.3c7.45,10.01,13.94,20.59,19.43,31.67l-9.67,5.87L1226.58,933.12z" style="fill:url(#SVGID_00000062875076507343494550000011527849656761082535_);"></path>
			<g>
				
					<linearGradient gradientTransform="matrix(0.6638 0.7479 -0.7479 0.6638 2482.9961 -211.6406)" y2="1816.4775" x2="-92.9961" y1="1779.6572" x1="-129.8164" gradientUnits="userSpaceOnUse" id="SVGID_00000018230642821703998460000010991437748050327962_">
					<stop style="stop-color:#91D3F8" offset="0"></stop>
					<stop style="stop-color:#D9F3FF" offset="1"></stop>
				</linearGradient>
				<path d="M1107.19,914.47l-17.94,11.76
					c-2.13-3.38-4.55-6.61-7.26-9.65c-12.98-14.62-30.87-23.31-50.38-24.47c-2.95-0.18-5.56-1.53-7.38-3.58
					c-1.82-2.05-2.86-4.8-2.68-7.76c0.35-5.91,5.43-10.41,11.33-10.06c25.23,1.5,48.36,12.74,65.14,31.64
					C1101.42,906.18,1104.48,910.23,1107.19,914.47z" style="fill:url(#SVGID_00000018230642821703998460000010991437748050327962_);"></path>
				
					<linearGradient gradientTransform="matrix(0.6638 0.7479 -0.7479 0.6638 2482.9961 -211.6406)" y2="1732.7286" x2="-133.2523" y1="1679.959" x1="-186.0219" gradientUnits="userSpaceOnUse" id="SVGID_00000047750686253762150420000009311643296938745270_">
					<stop style="stop-color:#91D3F8" offset="0"></stop>
					<stop style="stop-color:#D9F3FF" offset="1"></stop>
				</linearGradient>
				<path d="M1181.69,838.26l-24.71,4.16
					c-31.71-34.84-76.51-57.85-127.15-60.86c-5.91-0.35-10.41-5.43-10.06-11.33c0.35-5.91,5.43-10.41,11.33-10.06
					c28.09,1.67,55.02,8.8,80.03,21.18c24.16,11.96,45.52,28.29,63.49,48.53C1177.07,832.62,1179.42,835.41,1181.69,838.26z" style="fill:url(#SVGID_00000047750686253762150420000009311643296938745270_);"></path>
				
					<linearGradient gradientTransform="matrix(0.6638 0.7479 -0.7479 0.6638 2482.9961 -211.6406)" y2="1782.5135" x2="-104.6331" y1="1728.5276" x1="-158.619" gradientUnits="userSpaceOnUse" id="SVGID_00000071553857267139578090000015507882540006291352_">
					<stop style="stop-color:#91D3F8" offset="0"></stop>
					<stop style="stop-color:#D9F3FF" offset="1"></stop>
				</linearGradient>
				<path d="M1148.95,884.61l-18,11.8
					c-22.25-34.64-60.16-58.59-104.31-61.22c-2.96-0.18-5.56-1.53-7.38-3.59c-1.82-2.05-2.86-4.79-2.68-7.75
					c0.35-5.91,5.42-10.41,11.33-10.06c41.26,2.46,79.1,20.83,106.54,51.75C1139.81,871.58,1144.65,877.96,1148.95,884.61z" style="fill:url(#SVGID_00000071553857267139578090000015507882540006291352_);"></path>
			</g>
			<g>
				
					<linearGradient gradientTransform="matrix(0.6638 0.7479 -0.7479 0.6638 2482.9961 -211.6406)" y2="1814.261" x2="-95.0637" y1="1777.4407" x1="-131.884" gradientUnits="userSpaceOnUse" id="SVGID_00000083074517873236475780000006696243789240900267_">
					<stop style="stop-color:#91D3F8" offset="0"></stop>
					<stop style="stop-color:#5A91F7" offset="0.9944"></stop>
				</linearGradient>
				<path d="M1107.47,911.45l-17.94,11.76
					c-2.13-3.38-4.55-6.61-7.26-9.65c-12.98-14.62-30.87-23.31-50.38-24.47c-2.95-0.18-5.56-1.53-7.38-3.58
					c-1.82-2.05-2.86-4.8-2.68-7.76c0.35-5.91,5.43-10.41,11.33-10.06c25.23,1.5,48.36,12.74,65.14,31.64
					C1101.71,903.16,1104.77,907.22,1107.47,911.45z" style="fill:url(#SVGID_00000083074517873236475780000006696243789240900267_);"></path>
				
					<linearGradient gradientTransform="matrix(0.6638 0.7479 -0.7479 0.6638 2482.9961 -211.6406)" y2="1730.5121" x2="-135.3199" y1="1677.7424" x1="-188.0895" gradientUnits="userSpaceOnUse" id="SVGID_00000046340775360052239930000007702261146937328806_">
					<stop style="stop-color:#91D3F8" offset="0"></stop>
					<stop style="stop-color:#5A91F7" offset="0.9944"></stop>
				</linearGradient>
				<path d="M1181.98,835.24l-24.71,4.16
					c-31.71-34.84-76.51-57.85-127.15-60.86c-5.91-0.35-10.41-5.43-10.06-11.33c0.35-5.91,5.43-10.41,11.33-10.06
					c28.09,1.67,55.02,8.8,80.03,21.18c24.16,11.96,45.52,28.29,63.49,48.53C1177.35,829.6,1179.7,832.4,1181.98,835.24z" style="fill:url(#SVGID_00000046340775360052239930000007702261146937328806_);"></path>
				
					<linearGradient gradientTransform="matrix(0.6638 0.7479 -0.7479 0.6638 2482.9961 -211.6406)" y2="1780.297" x2="-106.7006" y1="1726.311" x1="-160.6866" gradientUnits="userSpaceOnUse" id="SVGID_00000079461019267237814620000001007841544609160126_">
					<stop style="stop-color:#91D3F8" offset="0"></stop>
					<stop style="stop-color:#5A91F7" offset="0.9944"></stop>
				</linearGradient>
				<path d="M1149.23,881.6l-18,11.8
					c-22.25-34.64-60.16-58.59-104.31-61.22c-2.96-0.18-5.56-1.53-7.38-3.59c-1.82-2.05-2.86-4.79-2.68-7.75
					c0.35-5.91,5.43-10.41,11.33-10.06c41.26,2.46,79.1,20.83,106.54,51.75C1140.1,868.56,1144.94,874.94,1149.23,881.6z" style="fill:url(#SVGID_00000079461019267237814620000001007841544609160126_);"></path>
			</g>
			<g>
				
					<linearGradient gradientTransform="matrix(0.5939 0.8045 -0.8045 0.5939 2734.96 -73.1916)" y2="1938.1328" x2="-80.2007" y1="1900.6428" x1="-117.6908" gradientUnits="userSpaceOnUse" id="SVGID_00000016760109950718183930000003481362061601408175_">
					<stop style="stop-color:#91D3F8" offset="0"></stop>
					<stop style="stop-color:#D9F3FF" offset="1"></stop>
				</linearGradient>
				<path d="M1133.11,1014.16
					c-5.86-0.89-9.88-6.34-9-12.2c1.99-13.19,0.39-26.37-4.52-38.4l22.19-1.71c4.49,13.8,5.74,28.54,3.52,43.31
					C1144.42,1011.02,1138.96,1015.05,1133.11,1014.16z" style="fill:url(#SVGID_00000016760109950718183930000003481362061601408175_);"></path>
				
					<linearGradient gradientTransform="matrix(0.5939 0.8045 -0.8045 0.5939 2734.96 -73.1916)" y2="1859.5159" x2="-3.3608" y1="1774.3253" x1="-88.5514" gradientUnits="userSpaceOnUse" id="SVGID_00000052087521238271465400000007909787028310237629_">
					<stop style="stop-color:#91D3F8" offset="0"></stop>
					<stop style="stop-color:#D9F3FF" offset="1"></stop>
				</linearGradient>
				<path d="M1246.26,1029.93
					c-2.93-0.44-5.4-2.03-7.03-4.23c-1.63-2.2-2.41-5.03-1.97-7.96c3.48-23.11,2.56-45.87-2.15-67.46l9.5-0.73l-10.63-36.47
					l9.97-5.33c4.23,9.84,7.69,20.02,10.38,30.49c6.92,27.04,8.31,54.86,4.12,82.69
					C1257.57,1026.78,1252.12,1030.81,1246.26,1029.93z" style="fill:url(#SVGID_00000052087521238271465400000007909787028310237629_);"></path>
				
					<linearGradient gradientTransform="matrix(0.5939 0.8045 -0.8045 0.5939 2734.96 -73.1916)" y2="1900.8297" x2="-38.9747" y1="1851.4814" x1="-88.3229" gradientUnits="userSpaceOnUse" id="SVGID_00000168103980410850542850000002086797412223840421_">
					<stop style="stop-color:#91D3F8" offset="0"></stop>
					<stop style="stop-color:#D9F3FF" offset="1"></stop>
				</linearGradient>
				<path d="M1188.26,1025.27
					c-5.85-0.88-9.88-6.34-9-12.19c2.87-19.06,1.53-37.8-3.32-55.28l21.81-1.68c4.79,19.42,5.77,39.78,2.7,60.15
					C1199.57,1022.13,1194.11,1026.15,1188.26,1025.27z" style="fill:url(#SVGID_00000168103980410850542850000002086797412223840421_);"></path>
			</g>
			<g>
				
					<linearGradient gradientTransform="matrix(0.5939 0.8045 -0.8045 0.5939 2734.96 -73.1916)" y2="1934.9227" x2="-80.3783" y1="1897.4326" x1="-117.8683" gradientUnits="userSpaceOnUse" id="SVGID_00000042004913094754719120000013365497383520726421_">
					<stop style="stop-color:#5A91F7" offset="0"></stop>
					<stop style="stop-color:#2B62BA" offset="1"></stop>
				</linearGradient>
				<path d="M1135.59,1012.11
					c-5.86-0.89-9.88-6.34-9-12.2c1.99-13.19,0.39-26.37-4.52-38.4l22.19-1.71c4.49,13.8,5.74,28.54,3.52,43.31
					C1146.9,1008.97,1141.44,1013,1135.59,1012.11z" style="fill:url(#SVGID_00000042004913094754719120000013365497383520726421_);"></path>
				
					<linearGradient gradientTransform="matrix(0.5939 0.8045 -0.8045 0.5939 2734.96 -73.1916)" y2="1856.3058" x2="-3.5383" y1="1771.1151" x1="-88.7289" gradientUnits="userSpaceOnUse" id="SVGID_00000043435254578520519400000014151262766589051071_">
					<stop style="stop-color:#5A91F7" offset="0"></stop>
					<stop style="stop-color:#2B62BA" offset="1"></stop>
				</linearGradient>
				<path d="M1248.74,1027.88
					c-2.93-0.44-5.4-2.03-7.03-4.23c-1.63-2.2-2.41-5.03-1.97-7.96c3.48-23.11,2.56-45.87-2.15-67.46l9.5-0.73l-10.63-36.47
					l9.97-5.33c4.23,9.84,7.69,20.02,10.38,30.49c6.92,27.04,8.31,54.86,4.12,82.69
					C1260.05,1024.74,1254.59,1028.76,1248.74,1027.88z" style="fill:url(#SVGID_00000043435254578520519400000014151262766589051071_);"></path>
				
					<linearGradient gradientTransform="matrix(0.5939 0.8045 -0.8045 0.5939 2734.96 -73.1916)" y2="1897.6196" x2="-39.1522" y1="1848.2714" x1="-88.5005" gradientUnits="userSpaceOnUse" id="SVGID_00000134938555576805201190000003052695906915548050_">
					<stop style="stop-color:#5A91F7" offset="0"></stop>
					<stop style="stop-color:#2B62BA" offset="1"></stop>
				</linearGradient>
				<path d="M1190.73,1023.22
					c-5.85-0.88-9.88-6.34-9-12.19c2.87-19.06,1.53-37.8-3.32-55.28l21.81-1.68c4.79,19.42,5.77,39.78,2.7,60.15
					C1202.04,1020.08,1196.59,1024.11,1190.73,1023.22z" style="fill:url(#SVGID_00000134938555576805201190000003052695906915548050_);"></path>
			</g>
			
				<linearGradient gradientTransform="matrix(0.6374 0.7705 -0.7705 0.6374 2576.491 -156.6438)" y2="1774.7537" x2="-43.1709" y1="1774.7537" x1="-81.8371" gradientUnits="userSpaceOnUse" id="SVGID_00000040559175756729129970000007251615733711825838_">
				<stop style="stop-color:#91D3F8" offset="0"></stop>
				<stop style="stop-color:#5A91F7" offset="0.9944"></stop>
			</linearGradient>
			<path d="M1184.84,938.67l-21.68,2.88
				c-3.01-8.92-6.94-17.44-11.7-25.45l18.39-11.16C1176.22,915.6,1181.24,926.92,1184.84,938.67z" style="fill:url(#SVGID_00000040559175756729129970000007251615733711825838_);"></path>
			
				<linearGradient gradientTransform="matrix(0.6374 0.7705 -0.7705 0.6374 2576.491 -156.6438)" y2="1780.2579" x2="-24.0534" y1="1694.2797" x1="-110.0317" gradientUnits="userSpaceOnUse" id="SVGID_00000043440324737067607400000006546932760950029466_">
				<stop style="stop-color:#91D3F8" offset="0"></stop>
				<stop style="stop-color:#D9F3FF" offset="1"></stop>
			</linearGradient>
			<polygon points="1226.58,933.12 1217.14,934.38 
				1184.84,938.67 1163.16,941.55 1132,945.69 1109.93,948.62 1094.51,950.67 1107.01,943.08 1125.35,931.95 1151.46,916.1 
				1169.86,904.94 1176.45,900.94 1163.82,865.11 1179.35,863.05 1204.19,859.75 1295.89,847.57 1223.62,891.42 1213.96,897.29" style="fill:url(#SVGID_00000043440324737067607400000006546932760950029466_);"></polygon>
			
				<linearGradient gradientTransform="matrix(0.6374 0.7705 -0.7705 0.6374 2576.491 -156.6438)" y2="1782.9371" x2="-29.4118" y1="1696.9589" x1="-115.3901" gradientUnits="userSpaceOnUse" id="SVGID_00000051362121389591665120000008140720203708837505_">
				<stop style="stop-color:#91D3F8" offset="0"></stop>
				<stop style="stop-color:#5A91F7" offset="0.9944"></stop>
			</linearGradient>
			<polygon points="1221.1,930.7 1211.66,931.96 
				1179.36,936.25 1157.68,939.13 1126.52,943.27 1104.45,946.2 1089.03,948.25 1101.53,940.66 1119.87,929.53 1145.98,913.68 
				1164.38,902.52 1170.97,898.52 1158.34,862.69 1173.87,860.63 1198.71,857.33 1290.41,845.14 1218.14,889 1208.48,894.87" style="fill:url(#SVGID_00000051362121389591665120000008140720203708837505_);"></polygon>
			
				<linearGradient gradientTransform="matrix(0.6374 0.7705 -0.7705 0.6374 2576.491 -156.6438)" y2="1890.5792" x2="-72.8038" y1="1890.5792" x1="-133.2454" gradientUnits="userSpaceOnUse" id="SVGID_00000013886316570599667710000007927748344257936285_">
				<stop style="stop-color:#5A91F7" offset="0"></stop>
				<stop style="stop-color:#2B62BA" offset="1"></stop>
			</linearGradient>
			<path d="M1084.33,971.87
				c0.38-4.07-0.06-8.03-1.19-11.71l-0.71,0.09l-6.14,0.82l-4.12,0.55l-5.92,0.79l-4.2,0.56l-2.93,0.39l2.38-1.44l3.49-2.12
				l4.97-3.01l3.5-2.12l1.25-0.76l-2.4-6.81l2.4-0.32c-4.69-4.31-10.77-7.19-17.6-7.83c-16.62-1.57-31.36,10.63-32.93,27.24
				c-1.57,16.62,10.63,31.36,27.24,32.93C1068.02,1000.69,1082.76,988.49,1084.33,971.87z" style="fill:url(#SVGID_00000013886316570599667710000007927748344257936285_);"></path>
		</g>
		
			<linearGradient gradientTransform="matrix(0.7071 0.7071 -0.7071 0.7071 2226.0759 -79.2592)" y2="1587.7362" x2="176.2629" y1="1587.7362" x1="-341.5146" gradientUnits="userSpaceOnUse" id="SVGID_00000178894186327627999000000001236620073286546309_">
			<stop style="stop-color:#5A91F7" offset="0"></stop>
			<stop style="stop-color:#2B62BA" offset="1"></stop>
		</linearGradient>
		<path d="M1205.36,1168.08L861.89,824.61
			c-6.26-6.26-6.26-16.4,0-22.65l0,0c6.26-6.26,16.4-6.26,22.65,0l343.47,343.47c6.26,6.26,6.26,16.4,0,22.65h0
			C1221.76,1174.33,1211.62,1174.33,1205.36,1168.08z" style="fill:url(#SVGID_00000178894186327627999000000001236620073286546309_);"></path>
	</g>
</g>
<g class="st19" id="暂无账单明细">
	<g class="st20">
		
			<linearGradient y2="1560.2372" x2="1096.099" y1="1285.4744" x1="1096.099" gradientUnits="userSpaceOnUse" id="SVGID_00000021115659833510513200000002512831572895167922_">
			<stop style="stop-color:#5A91F7" offset="0"></stop>
			<stop style="stop-color:#A2C1FB;stop-opacity:0.8034" offset="0.2039"></stop>
			<stop style="stop-color:#FFFFFF;stop-opacity:0.54" offset="0.9749"></stop>
		</linearGradient>
		<path d="M1240.07,1310.12
			c-5.32-5.38-7.98-8.07-13.31-13.44c-14.5-13.96-37.9-21.08-57.64-21.29c-12.35,0-24.7,0-37.05,0c0.07,0.07,0.1,0.1,0.17,0.17
			c-96.11,0-192.21,0-288.32,0c-0.07,0-0.1,0-0.17,0c0.01,0,0.03,0,0.04,0c-13.56-1.4-28.57,8.73-15.38,21.28
			c25.04,25.3,50.09,50.61,75.13,75.91l0,0c35.52,35.89,71.04,71.78,106.56,107.66c-24.54,0-49.08,0-73.62,0
			c3.54,3.58,5.32,5.37,8.86,8.95c14.5,13.96,37.9,21.08,57.64,21.29c0.19,0,0.28,0,0.47,0c1.26,0,2.46-0.04,3.62-0.11
			c78.91,0,157.81,0,236.72,0c3.15,0,5.99-0.23,8.47-0.67c31.85,0,63.7,0,95.55,0c12.27,0.19,30.27-8.27,15.51-21.29
			c-4.93-4.98-7.39-7.47-12.32-12.45c0.03-0.01,0.05-0.01,0.08-0.02c-0.05-0.01-0.07-0.01-0.12-0.02
			c-46.08-46.55-92.15-93.11-138.23-139.66c-8.68-8.77-17.37-17.55-26.05-26.32C1204.48,1310.12,1222.28,1310.12,1240.07,1310.12z
			 M1018.89,1489.27c-0.01,0-0.02,0-0.03,0c-0.26-0.27-0.4-0.4-0.66-0.67C1018.42,1488.82,1018.66,1489.05,1018.89,1489.27z" style="fill:url(#SVGID_00000021115659833510513200000002512831572895167922_);"></path>
	</g>
	<g class="st31">
		
			<linearGradient y2="1519.9667" x2="958.8484" y1="1084.9423" x1="958.8484" gradientUnits="userSpaceOnUse" id="SVGID_00000106866656585001220110000016093304070277575336_">
			<stop style="stop-color:#91D3F8" offset="0"></stop>
			<stop style="stop-color:#D9F3FF" offset="1"></stop>
		</linearGradient>
		<path d="M1138.36,876.39h-99.26
			c-3.03-0.78-6.21-1.2-9.49-1.2H779.34c-20.99,0-38,17.01-38,38l0,0h76.52c-0.01,0.4-0.03,0.79-0.03,1.2v342.29
			c0,20.99,17.01,38,38,38h320.54V914.39C1176.36,893.41,1159.35,876.39,1138.36,876.39z" style="fill:url(#SVGID_00000106866656585001220110000016093304070277575336_);"></path>
		<polygon points="1126.21,1050.07 1101.12,1033.34 1076.02,1050.07 1076.02,1004.9 1076.02,959.72 1101.12,959.72 
			1126.21,959.72 1126.21,1004.9" class="st83"></polygon>
		<circle r="39.44" cy="964.98" cx="1102.31" class="st84"></circle>
		<g>
			
				<linearGradient y2="1286.0992" x2="1043.735" y1="1223.0986" x1="1043.735" gradientUnits="userSpaceOnUse" id="SVGID_00000172415777748933550190000008988171564264559039_">
				<stop style="stop-color:#91D3F8" offset="0"></stop>
				<stop style="stop-color:#5A91F7" offset="0.9944"></stop>
			</linearGradient>
			<path d="M1172.36,1232.99h-17.02H891.56v23.76
				c0,20.29-15.9,36.85-35.91,37.94h299.69v0.3h38.49c20.99,0,38-17.01,38-38v-24H1172.36z" style="fill:url(#SVGID_00000172415777748933550190000008988171564264559039_);"></path>
		</g>
		<g>
			<rect height="14.34" width="58.34" class="st86" y="978.25" x="879.67"></rect>
		</g>
		<g>
			<rect height="14.34" width="207" class="st86" y="1033.92" x="879.67"></rect>
		</g>
		<g>
			<rect height="14.34" width="207" class="st86" y="1089.58" x="879.67"></rect>
		</g>
		<g>
			<rect height="14.34" width="166.29" class="st86" y="1145.24" x="879.67"></rect>
		</g>
		
			<linearGradient y2="1405.152" x2="959.5663" y1="1047.5929" x1="959.5663" gradientUnits="userSpaceOnUse" id="SVGID_00000000916226324173286810000002087023970830934656_">
			<stop style="stop-color:#91D3F8" offset="0"></stop>
			<stop style="stop-color:#5A91F7" offset="0.9944"></stop>
		</linearGradient>
		<path d="M1138.36,876.39h-99.26
			c-3.03-0.78-6.21-1.2-9.49-1.2H779.34c-16.59,0-30.68,10.63-35.87,25.44c-0.32,4.16-0.55,8.35-0.7,12.56h75.08
			c-0.01,0.4-0.03,0.79-0.03,1.2v206.78c54.2,60.63,133,98.81,220.73,98.81c49.76,0,96.64-12.3,137.8-33.99v-271.6
			C1176.36,893.41,1159.35,876.39,1138.36,876.39z" style="fill:url(#SVGID_00000000916226324173286810000002087023970830934656_);"></path>
		
			<linearGradient y2="901.9954" x2="817.824" y1="901.9954" x1="741.3362" gradientUnits="userSpaceOnUse" id="SVGID_00000091706094989385419440000016836335762600290976_">
			<stop style="stop-color:#5A91F7" offset="0"></stop>
			<stop style="stop-color:#2B62BA" offset="1"></stop>
		</linearGradient>
		<path d="M779.34,875h0.49c20.99,0,38,17.01,38,38
			v15.98h-76.49V913C741.34,892.02,758.35,875,779.34,875z" style="fill:url(#SVGID_00000091706094989385419440000016836335762600290976_);"></path>
		
			<linearGradient y2="995.4111" x2="1149.4581" y1="995.4111" x1="1099.2629" gradientUnits="userSpaceOnUse" id="SVGID_00000163751446585806117190000005135721643044158621_">
			<stop style="stop-color:#5A91F7" offset="0"></stop>
			<stop style="stop-color:#2B62BA" offset="1"></stop>
		</linearGradient>
		<polygon points="1149.46,1040.59 
			1124.36,1023.85 1099.26,1040.59 1099.26,995.41 1099.26,950.24 1124.36,950.24 1149.46,950.24 1149.46,995.41" style="fill:url(#SVGID_00000163751446585806117190000005135721643044158621_);"></polygon>
		
			<linearGradient y2="960.494" x2="1160.9946" y1="960.494" x1="1082.1167" gradientUnits="userSpaceOnUse" id="SVGID_00000100375760214762258420000002465563074188422536_">
			<stop style="stop-color:#91D3F8" offset="0"></stop>
			<stop style="stop-color:#D9F3FF" offset="1"></stop>
		</linearGradient>
		<circle r="39.44" cy="960.49" cx="1121.56" style="fill:url(#SVGID_00000100375760214762258420000002465563074188422536_);"></circle>
		
			<linearGradient y2="963.6542" x2="1164.6614" y1="963.6542" x1="1085.7833" gradientUnits="userSpaceOnUse" id="SVGID_00000131359763429432352100000009926272267293607821_">
			<stop style="stop-color:#91D3F8" offset="0"></stop>
			<stop style="stop-color:#5A91F7" offset="0.9944"></stop>
		</linearGradient>
		<circle r="39.44" cy="963.65" cx="1125.22" style="fill:url(#SVGID_00000131359763429432352100000009926272267293607821_);"></circle>
		<g>
			<path d="M1134.05,1055.37h6.11c3.96,0,7.17,3.21,7.17,7.17l0,0c0,3.96-3.21,7.17-7.17,7.17h-6.11
				c-3.96,0-7.17-3.21-7.17-7.17l0,0C1126.88,1058.58,1130.09,1055.37,1134.05,1055.37z" class="st39"></path>
		</g>
		<g>
			<path d="M1106.05,1055.37h6.11c3.96,0,7.17,3.21,7.17,7.17l0,0c0,3.96-3.21,7.17-7.17,7.17h-6.11
				c-3.96,0-7.17-3.21-7.17-7.17l0,0C1098.88,1058.58,1102.09,1055.37,1106.05,1055.37z" class="st39"></path>
		</g>
		<g>
			<path d="M1134.05,1083.37h6.11c3.96,0,7.17,3.21,7.17,7.17l0,0c0,3.96-3.21,7.17-7.17,7.17h-6.11
				c-3.96,0-7.17-3.21-7.17-7.17l0,0C1126.88,1086.58,1130.09,1083.37,1134.05,1083.37z" class="st39"></path>
		</g>
		<g>
			<path d="M1106.05,1083.37h6.11c3.96,0,7.17,3.21,7.17,7.17l0,0c0,3.96-3.21,7.17-7.17,7.17h-6.11
				c-3.96,0-7.17-3.21-7.17-7.17l0,0C1098.88,1086.58,1102.09,1083.37,1106.05,1083.37z" class="st39"></path>
		</g>
		<g>
			<path d="M942.71,990.86c-1.07,1-1.6,2.1-1.6,3.3v40.16c0,1.33,0.53,2.63,1.6,3.9c1.06,1.27,2.46,1.9,4.2,1.9h77.12
				c1.73,0,3.43,0.33,5.09,1c1.66,0.67,3.13,1.6,4.4,2.8c1.26,1.2,2.3,2.57,3.1,4.09c0.8,1.53,1.2,3.17,1.2,4.9v52.14
				c0,1.33-0.4,2.66-1.2,4c-0.8,1.33-1.83,2.53-3.1,3.6c-1.27,1.06-2.73,1.93-4.4,2.6c-1.67,0.67-3.37,1-5.09,1h-34.56V1137h-31.57
				v-20.78h-49.55l5.99-11.19h87.5c1.06,0,2.03-0.43,2.9-1.3c0.86-0.87,1.3-2.23,1.3-4.1v-43.15c0-1.2-0.43-2.36-1.3-3.5
				c-0.87-1.13-1.83-1.7-2.9-1.7h-78.51c-4.26,0-7.63-1.2-10.09-3.6c-2.47-2.4-3.7-5.73-3.7-9.99v-47.75c0-2.93,1.23-5.63,3.7-8.09
				c2.46-2.46,5.82-3.7,10.09-3.7h34.56v-21.78h31.57v21.78h48.35v11.19h-90.9C945.17,989.36,943.77,989.86,942.71,990.86z" class="st39"></path>
		</g>
		<polygon points="1151.44,911.63 1158.08,930.02 1176.47,936.65 1158.08,943.29 1151.44,961.68 1144.81,943.29 
			1126.42,936.65 1144.81,930.02" class="st1"></polygon>
	</g>
</g>
</svg>
