<?xml version="1.0" encoding="iso-8859-1"?>
<!-- Generator: Adobe Illustrator 23.0.0, SVG Export Plug-In . SVG Version: 6.00 Build 0)  -->
<svg version="1.1" id="&#x56FE;&#x5C42;_1" xmlns="http://www.w3.org/2000/svg" xmlns:xlink="http://www.w3.org/1999/xlink" x="0px"
	 y="0px" viewBox="0 0 1040 720" style="enable-background:new 0 0 1040 720;" xml:space="preserve">
<g>
	<path style="fill:#F0F0FF;" d="M6.159,419.905c0-121.455,189.111-241.038,340.75-241.038S506.465,10,764.855,10
		c87.768,0,269.987,34.26,269.987,185.754s-59.104,212.033-59.104,284.863C975.738,544.37,823.701,711,643.476,711
		c-351.071,0-363.95-36.99-442.115-36.99S6.159,582.853,6.159,419.905z"/>
	<path style="fill:#C7D0FF;" d="M30.282,419.466c0-121.455,164.987-240.598,316.626-240.598S505.906,25.278,764.296,25.278
		c87.768,0,247.426,21.796,247.426,173.29s-35.985,209.219-35.985,282.048C975.738,544.37,823.701,711,643.476,711
		c-351.071,0-363.95-36.99-442.115-36.99S30.282,582.414,30.282,419.466z"/>
	<g>
		<defs>
			<path id="SVGID_1_" d="M48.978,419.466c0-121.455,151.193-222.378,302.832-222.378S505.906,25.278,764.296,25.278
				c87.768,0,237.174,29.391,237.174,180.885s-47.345,196.229-47.345,269.059C954.125,538.975,823.701,711,643.476,711
				c-351.071,0-355.091-46.032-433.255-46.032S48.978,582.414,48.978,419.466z"/>
		</defs>
		<clipPath id="SVGID_2_">
			<use xlink:href="#SVGID_1_"  style="overflow:visible;"/>
		</clipPath>
		<linearGradient id="SVGID_3_" gradientUnits="userSpaceOnUse" x1="399.8273" y1="193.7996" x2="779.7759" y2="643.4592">
			<stop  offset="0" style="stop-color:#160154"/>
			<stop  offset="0.715" style="stop-color:#050D3C"/>
		</linearGradient>
		<path style="clip-path:url(#SVGID_2_);fill:url(#SVGID_3_);" d="M48.978,419.466c0-121.455,151.193-222.378,302.832-222.378
			S505.906,25.278,764.296,25.278c87.768,0,237.174,29.391,237.174,180.885s-47.345,196.229-47.345,269.059
			C954.125,538.975,823.701,711,643.476,711c-351.071,0-355.091-46.032-433.255-46.032S48.978,582.414,48.978,419.466z"/>
		<g style="clip-path:url(#SVGID_2_);">
			<circle style="opacity:0.1;fill:#FFFFFF;" cx="152.51" cy="437.395" r="1.005"/>
			<circle style="opacity:0.1;fill:#FFFFFF;" cx="153.716" cy="548.365" r="1.005"/>
			<circle style="opacity:0.1;fill:#FFFFFF;" cx="279.764" cy="525.246" r="1.005"/>
			<circle style="opacity:0.1;fill:#FFFFFF;" cx="389.728" cy="615.51" r="1.005"/>
			<circle style="opacity:0.1;fill:#FFFFFF;" cx="361.785" cy="502.328" r="1.005"/>
			<circle style="opacity:0.1;fill:#FFFFFF;" cx="391.739" cy="570.478" r="1.005"/>
			<circle style="opacity:0.1;fill:#FFFFFF;" cx="432.548" cy="644.659" r="1.005"/>
			<circle style="opacity:0.1;fill:#FFFFFF;" cx="372.641" cy="687.278" r="1.005"/>
			<circle style="opacity:0.1;fill:#FFFFFF;" cx="530.652" cy="694.716" r="1.005"/>
			<circle style="opacity:0.1;fill:#FFFFFF;" cx="498.286" cy="537.71" r="1.005"/>
			<circle style="opacity:0.1;fill:#FFFFFF;" cx="526.229" cy="461.117" r="1.005"/>
			<circle style="opacity:0.1;fill:#FFFFFF;" cx="682.03" cy="608.674" r="1.005"/>
			<circle style="opacity:0.1;fill:#FFFFFF;" cx="602.421" cy="664.159" r="1.005"/>
			<circle style="opacity:0.1;fill:#FFFFFF;" cx="731.886" cy="669.587" r="1.005"/>
			<circle style="opacity:0.1;fill:#FFFFFF;" cx="763.649" cy="509.566" r="1.005"/>
			<circle style="opacity:0.1;fill:#FFFFFF;" cx="657.102" cy="483.431" r="1.005"/>
			<circle style="opacity:0.1;fill:#FFFFFF;" cx="814.108" cy="433.173" r="1.005"/>
			<circle style="opacity:0.1;fill:#FFFFFF;" cx="952.217" cy="357.786" r="1.005"/>
			<circle style="opacity:0.1;fill:#FFFFFF;" cx="907.186" cy="387.941" r="1.005"/>
			<circle style="opacity:0.1;fill:#FFFFFF;" cx="717.21" cy="318.786" r="1.005"/>
			<circle style="opacity:0.1;fill:#FFFFFF;" cx="585.936" cy="333.059" r="1.005"/>
			<circle style="opacity:0.1;fill:#FFFFFF;" cx="488.837" cy="335.471" r="1.005"/>
			<circle style="opacity:0.1;fill:#FFFFFF;" cx="352.738" cy="354.972" r="1.005"/>
			<circle style="opacity:0.1;fill:#FFFFFF;" cx="222.268" cy="274.961" r="1.005"/>
			<circle style="opacity:0.1;fill:#FFFFFF;" cx="165.778" cy="363.616" r="1.005"/>
			<circle style="opacity:0.1;fill:#FFFFFF;" cx="80.139" cy="368.24" r="1.005"/>
			<circle style="opacity:0.1;fill:#FFFFFF;" cx="94.613" cy="522.834" r="1.005"/>
			<circle style="opacity:0.1;fill:#FFFFFF;" cx="261.269" cy="428.75" r="1.005"/>
			<circle style="opacity:0.1;fill:#FFFFFF;" cx="901.356" cy="222.692" r="1.005"/>
			<circle style="opacity:0.1;fill:#FFFFFF;" cx="786.968" cy="170.223" r="1.005"/>
			<circle style="opacity:0.1;fill:#FFFFFF;" cx="913.418" cy="118.759" r="1.005"/>
			<circle style="opacity:0.1;fill:#FFFFFF;" cx="763.448" cy="80.763" r="1.005"/>
			<circle style="opacity:0.1;fill:#FFFFFF;" cx="708.968" cy="46.588" r="1.005"/>
			<circle style="opacity:0.1;fill:#FFFFFF;" cx="714.999" cy="113.331" r="1.005"/>
			<circle style="opacity:0.1;fill:#FFFFFF;" cx="910" cy="301.095" r="1.005"/>
			<circle style="opacity:0.1;fill:#FFFFFF;" cx="805.262" cy="354.771" r="1.005"/>
			<circle style="opacity:0.1;fill:#FFFFFF;" cx="614.081" cy="437.395" r="1.005"/>
			<circle style="opacity:0.1;fill:#FFFFFF;" cx="411.842" cy="430.56" r="1.005"/>
		</g>
		<g style="opacity:0.4;clip-path:url(#SVGID_2_);">
			<ellipse style="fill:#FFFFFF;" cx="745.154" cy="632.597" rx="1.809" ry="2.211"/>
			<ellipse style="fill:#FFFFFF;" cx="671.576" cy="667.376" rx="1.809" ry="2.211"/>
			<ellipse style="fill:#FFFFFF;" cx="723.442" cy="547.762" rx="1.809" ry="2.211"/>
			<ellipse style="fill:#FFFFFF;" cx="937.341" cy="452.07" rx="1.809" ry="2.211"/>
			<ellipse style="fill:#FFFFFF;" cx="764.654" cy="232.141" rx="1.809" ry="2.211"/>
			<ellipse style="fill:#FFFFFF;" cx="630.766" cy="287.827" rx="1.809" ry="2.211"/>
			<ellipse style="fill:#FFFFFF;" cx="427.925" cy="356.58" rx="1.809" ry="2.211"/>
			<ellipse style="fill:#FFFFFF;" cx="388.321" cy="307.327" rx="1.809" ry="2.211"/>
			<ellipse style="fill:#FFFFFF;" cx="301.073" cy="242.796" rx="1.809" ry="2.211"/>
			<ellipse style="fill:#FFFFFF;" cx="675.999" cy="66.088" rx="1.809" ry="2.211"/>
			<ellipse style="fill:#FFFFFF;" cx="660.72" cy="133.233" rx="1.809" ry="2.211"/>
			<ellipse style="fill:#FFFFFF;" cx="830.995" cy="104.284" rx="1.809" ry="2.211"/>
			<ellipse style="fill:#FFFFFF;" cx="403.399" cy="665.165" rx="1.809" ry="2.211"/>
			<ellipse style="fill:#FFFFFF;" cx="112.907" cy="583.344" rx="1.809" ry="2.211"/>
			<ellipse style="fill:#FFFFFF;" cx="197.34" cy="493.483" rx="1.809" ry="2.211"/>
			<ellipse style="fill:#FFFFFF;" cx="342.888" cy="581.133" rx="1.809" ry="2.211"/>
			<ellipse style="fill:#FFFFFF;" cx="477.178" cy="690.294" rx="1.809" ry="2.211"/>
			<ellipse style="fill:#FFFFFF;" cx="417.27" cy="599.829" rx="1.809" ry="2.211"/>
			<ellipse style="fill:#FFFFFF;" cx="78.329" cy="405.23" rx="1.809" ry="2.211"/>
		</g>
		<g style="clip-path:url(#SVGID_2_);">
			<ellipse style="fill:#FFFFFF;" cx="124.969" cy="489.06" rx="1.809" ry="2.211"/>
			<ellipse style="fill:#FFFFFF;" cx="470.744" cy="642.046" rx="1.809" ry="2.211"/>
			<ellipse style="fill:#FFFFFF;" cx="757.216" cy="442.019" rx="1.809" ry="2.211"/>
			<ellipse style="fill:#FFFFFF;" cx="884.469" cy="460.313" rx="1.809" ry="2.211"/>
			<ellipse style="fill:#FFFFFF;" cx="525.224" cy="368.24" rx="1.809" ry="2.211"/>
			<ellipse style="fill:#FFFFFF;" cx="759.427" cy="121.171" rx="1.809" ry="2.211"/>
			<ellipse style="fill:#FFFFFF;" cx="951.413" cy="174.646" rx="1.809" ry="2.211"/>
			<ellipse style="fill:#FFFFFF;" cx="270.516" cy="305.116" rx="1.809" ry="2.211"/>
			<ellipse style="fill:#FFFFFF;" cx="127.783" cy="353.765" rx="1.809" ry="2.211"/>
			<circle style="fill:#FFFFFF;" cx="356.357" cy="451.668" r="1.809"/>
			<circle style="fill:#FFFFFF;" cx="567.039" cy="555.401" r="1.809"/>
		</g>
		
			<linearGradient id="SVGID_4_" gradientUnits="userSpaceOnUse" x1="1857.1837" y1="4401.5112" x2="1963.7308" y2="4401.5112" gradientTransform="matrix(0.7071 -0.7071 0.7071 0.7071 -3714.4636 -1063.5084)">
			<stop  offset="0" style="stop-color:#401D61"/>
			<stop  offset="1" style="stop-color:#090B3D"/>
		</linearGradient>
		<circle style="clip-path:url(#SVGID_2_);fill:url(#SVGID_4_);" cx="748.772" cy="697.933" r="53.274"/>
		
			<linearGradient id="SVGID_5_" gradientUnits="userSpaceOnUse" x1="1966.6683" y1="-2028.9861" x2="2053.7153" y2="-2028.9861" gradientTransform="matrix(1 0 0 1 -1223.3239 2054.365)">
			<stop  offset="0" style="stop-color:#003C5F"/>
			<stop  offset="1" style="stop-color:#0E0128"/>
		</linearGradient>
		<circle style="clip-path:url(#SVGID_2_);fill:url(#SVGID_5_);" cx="786.868" cy="25.379" r="43.524"/>
		<g style="clip-path:url(#SVGID_2_);">
			<g>
				
					<linearGradient id="SVGID_6_" gradientUnits="userSpaceOnUse" x1="-1519.1066" y1="-2219.9736" x2="-1519.1066" y2="-2265.6877" gradientTransform="matrix(0.7071 0.7071 -0.7071 0.7071 355.994 2793.4539)">
					<stop  offset="0" style="stop-color:#FFFFFF;stop-opacity:0.3"/>
					<stop  offset="1" style="stop-color:#FFFFFF;stop-opacity:0"/>
				</linearGradient>
				<path style="fill:url(#SVGID_6_);" d="M875.575,141.193c-8.926,8.926-19.668,12.656-23.993,8.331
					c-4.325-4.325-0.595-15.067,8.331-23.993s19.668-12.656,23.993-8.331C888.232,121.525,884.501,132.267,875.575,141.193z"/>
				
					<linearGradient id="SVGID_7_" gradientUnits="userSpaceOnUse" x1="-1519.1066" y1="-2219.9736" x2="-1519.1066" y2="-2251.9485" gradientTransform="matrix(0.7071 0.7071 -0.7071 0.7071 355.994 2793.4539)">
					<stop  offset="0" style="stop-color:#FFFFFF;stop-opacity:0.3"/>
					<stop  offset="1" style="stop-color:#FFFFFF;stop-opacity:0"/>
				</linearGradient>
				<path style="fill:url(#SVGID_7_);" d="M867.736,143.07c-6.243,6.243-13.476,9.134-16.154,6.455
					c-2.678-2.678,0.212-9.911,6.455-16.154c6.243-6.243,13.476-9.134,16.154-6.455C876.87,129.594,873.98,136.826,867.736,143.07z"
					/>
				
					<linearGradient id="SVGID_8_" gradientUnits="userSpaceOnUse" x1="-1519.1066" y1="-2219.9736" x2="-1519.1066" y2="-2394.3367" gradientTransform="matrix(0.7071 0.7071 -0.7071 0.7071 355.994 2793.4539)">
					<stop  offset="0" style="stop-color:#FFFFFF"/>
					<stop  offset="0.2169" style="stop-color:#FFFFFF;stop-opacity:0.2349"/>
					<stop  offset="1" style="stop-color:#FFFFFF;stop-opacity:0"/>
				</linearGradient>
				<path style="fill:url(#SVGID_8_);" d="M860.465,145.234c0,0-7.615,5.559-8.883,4.291c-1.268-1.268,4.291-8.883,4.291-8.883
					S973.607,24.963,974.875,26.232C976.143,27.5,860.465,145.234,860.465,145.234z"/>
				
					<radialGradient id="SVGID_9_" cx="-1519.1066" cy="-2226.0522" r="14.0723" gradientTransform="matrix(0.7071 0.7071 -0.7071 0.7071 355.994 2793.4539)" gradientUnits="userSpaceOnUse">
					<stop  offset="0" style="stop-color:#FFFFFF;stop-opacity:0.5"/>
					<stop  offset="1" style="stop-color:#FFFFFF;stop-opacity:0"/>
				</radialGradient>
				<circle style="fill:url(#SVGID_9_);" cx="855.88" cy="145.227" r="14.072"/>
			</g>
			<g>
				
					<linearGradient id="SVGID_10_" gradientUnits="userSpaceOnUse" x1="-1249.1611" y1="-1773.4762" x2="-1249.1611" y2="-1819.1903" gradientTransform="matrix(0.7071 0.7071 -0.7071 0.7071 355.994 2793.4539)">
					<stop  offset="0" style="stop-color:#FFFFFF;stop-opacity:0.3"/>
					<stop  offset="1" style="stop-color:#FFFFFF;stop-opacity:0"/>
				</linearGradient>
				<path style="fill:url(#SVGID_10_);" d="M750.734,647.795c-8.926,8.926-19.668,12.656-23.993,8.331
					c-4.325-4.325-0.595-15.067,8.331-23.993c8.926-8.926,19.668-12.656,23.993-8.331
					C763.39,628.127,759.66,638.869,750.734,647.795z"/>
				
					<linearGradient id="SVGID_11_" gradientUnits="userSpaceOnUse" x1="-1249.1611" y1="-1773.4762" x2="-1249.1611" y2="-1805.451" gradientTransform="matrix(0.7071 0.7071 -0.7071 0.7071 355.994 2793.4539)">
					<stop  offset="0" style="stop-color:#FFFFFF;stop-opacity:0.3"/>
					<stop  offset="1" style="stop-color:#FFFFFF;stop-opacity:0"/>
				</linearGradient>
				<path style="fill:url(#SVGID_11_);" d="M742.895,649.671c-6.243,6.243-13.476,9.134-16.154,6.455
					c-2.678-2.678,0.212-9.911,6.455-16.154c6.243-6.243,13.476-9.134,16.154-6.455
					C752.029,636.195,749.139,643.428,742.895,649.671z"/>
				
					<linearGradient id="SVGID_12_" gradientUnits="userSpaceOnUse" x1="-1249.1611" y1="-1773.4762" x2="-1249.1611" y2="-1947.8391" gradientTransform="matrix(0.7071 0.7071 -0.7071 0.7071 355.994 2793.4539)">
					<stop  offset="0" style="stop-color:#FFFFFF"/>
					<stop  offset="0.2169" style="stop-color:#FFFFFF;stop-opacity:0.2349"/>
					<stop  offset="1" style="stop-color:#FFFFFF;stop-opacity:0"/>
				</linearGradient>
				<path style="fill:url(#SVGID_12_);" d="M735.624,651.836c0,0-7.615,5.559-8.883,4.291s4.291-8.883,4.291-8.883
					s117.734-115.678,119.003-114.41C851.302,534.101,735.624,651.836,735.624,651.836z"/>
				
					<radialGradient id="SVGID_13_" cx="-1249.1611" cy="-1779.5548" r="14.0723" gradientTransform="matrix(0.7071 0.7071 -0.7071 0.7071 355.994 2793.4539)" gradientUnits="userSpaceOnUse">
					<stop  offset="0" style="stop-color:#FFFFFF;stop-opacity:0.5"/>
					<stop  offset="1" style="stop-color:#FFFFFF;stop-opacity:0"/>
				</radialGradient>
				<circle style="fill:url(#SVGID_13_);" cx="731.039" cy="651.828" r="14.072"/>
			</g>
			<g>
				
					<linearGradient id="SVGID_14_" gradientUnits="userSpaceOnUse" x1="-1768.7244" y1="-1739.5021" x2="-1768.7244" y2="-1785.2161" gradientTransform="matrix(0.7071 0.7071 -0.7071 0.7071 355.994 2793.4539)">
					<stop  offset="0" style="stop-color:#FFFFFF;stop-opacity:0.3"/>
					<stop  offset="1" style="stop-color:#FFFFFF;stop-opacity:0"/>
				</linearGradient>
				<path style="fill:url(#SVGID_14_);" d="M359.324,304.432c-8.926,8.926-19.668,12.656-23.993,8.331
					c-4.325-4.325-0.595-15.067,8.331-23.993c8.926-8.926,19.668-12.656,23.993-8.331
					C371.98,284.763,368.25,295.505,359.324,304.432z"/>
				
					<linearGradient id="SVGID_15_" gradientUnits="userSpaceOnUse" x1="-1768.7244" y1="-1739.5021" x2="-1768.7244" y2="-1771.4769" gradientTransform="matrix(0.7071 0.7071 -0.7071 0.7071 355.994 2793.4539)">
					<stop  offset="0" style="stop-color:#FFFFFF;stop-opacity:0.3"/>
					<stop  offset="1" style="stop-color:#FFFFFF;stop-opacity:0"/>
				</linearGradient>
				<path style="fill:url(#SVGID_15_);" d="M351.485,306.308c-6.243,6.243-13.476,9.134-16.154,6.455
					c-2.678-2.678,0.212-9.911,6.455-16.154c6.243-6.243,13.476-9.134,16.154-6.455
					C360.619,292.832,357.729,300.064,351.485,306.308z"/>
				
					<linearGradient id="SVGID_16_" gradientUnits="userSpaceOnUse" x1="-1768.7244" y1="-1739.5021" x2="-1768.7244" y2="-1913.865" gradientTransform="matrix(0.7071 0.7071 -0.7071 0.7071 355.994 2793.4539)">
					<stop  offset="0" style="stop-color:#FFFFFF"/>
					<stop  offset="0.2169" style="stop-color:#FFFFFF;stop-opacity:0.2349"/>
					<stop  offset="1" style="stop-color:#FFFFFF;stop-opacity:0"/>
				</linearGradient>
				<path style="fill:url(#SVGID_16_);" d="M344.214,308.473c0,0-7.615,5.559-8.883,4.291c-1.268-1.268,4.291-8.883,4.291-8.883
					s117.734-115.678,119.003-114.41C459.892,190.738,344.214,308.473,344.214,308.473z"/>
				
					<radialGradient id="SVGID_17_" cx="-1768.7244" cy="-1745.5806" r="14.0723" gradientTransform="matrix(0.7071 0.7071 -0.7071 0.7071 355.994 2793.4539)" gradientUnits="userSpaceOnUse">
					<stop  offset="0" style="stop-color:#FFFFFF;stop-opacity:0.5"/>
					<stop  offset="1" style="stop-color:#FFFFFF;stop-opacity:0"/>
				</radialGradient>
				<circle style="fill:url(#SVGID_17_);" cx="339.629" cy="308.465" r="14.072"/>
			</g>
			<g>
				
					<linearGradient id="SVGID_18_" gradientUnits="userSpaceOnUse" x1="46.2471" y1="-6795.6162" x2="46.2471" y2="-6841.3306" gradientTransform="matrix(0.4162 0.4162 -0.3754 0.3754 -2457.5476 3143.7915)">
					<stop  offset="0" style="stop-color:#FFFFFF;stop-opacity:0.3"/>
					<stop  offset="1" style="stop-color:#FFFFFF;stop-opacity:0"/>
				</linearGradient>
				<path style="fill:url(#SVGID_18_);" d="M125.651,608.311c-4.738,4.738-10.643,6.516-13.189,3.97
					c-2.546-2.546-0.768-8.451,3.97-13.189c4.738-4.738,10.643-6.516,13.189-3.97C132.167,597.668,130.39,603.573,125.651,608.311z"
					/>
				
					<linearGradient id="SVGID_19_" gradientUnits="userSpaceOnUse" x1="46.2471" y1="-6795.6162" x2="46.2471" y2="-6827.5913" gradientTransform="matrix(0.4162 0.4162 -0.3754 0.3754 -2457.5476 3143.7915)">
					<stop  offset="0" style="stop-color:#FFFFFF;stop-opacity:0.3"/>
					<stop  offset="1" style="stop-color:#FFFFFF;stop-opacity:0"/>
				</linearGradient>
				<path style="fill:url(#SVGID_19_);" d="M121.318,609.134c-3.314,3.314-7.279,4.723-8.856,3.146
					c-1.577-1.577-0.168-5.541,3.146-8.856c3.314-3.314,7.279-4.723,8.856-3.146C126.041,601.855,124.632,605.82,121.318,609.134z"
					/>
				
					<linearGradient id="SVGID_20_" gradientUnits="userSpaceOnUse" x1="46.2471" y1="-6795.6162" x2="46.2471" y2="-6969.9795" gradientTransform="matrix(0.4162 0.4162 -0.3754 0.3754 -2457.5476 3143.7915)">
					<stop  offset="0" style="stop-color:#FFFFFF"/>
					<stop  offset="0.2169" style="stop-color:#FFFFFF;stop-opacity:0.2349"/>
					<stop  offset="1" style="stop-color:#FFFFFF;stop-opacity:0"/>
				</linearGradient>
				<path style="fill:url(#SVGID_20_);" d="M117.311,610.136c0,0-4.102,2.891-4.848,2.145s2.145-4.848,2.145-4.848
					s62.556-61.346,63.303-60.6S117.311,610.136,117.311,610.136z"/>
				
					<radialGradient id="SVGID_21_" cx="46.2471" cy="-6801.6948" r="14.0723" gradientTransform="matrix(0.4162 0.4162 -0.3754 0.3754 -2457.5476 3143.7915)" gradientUnits="userSpaceOnUse">
					<stop  offset="0" style="stop-color:#FFFFFF;stop-opacity:0.5"/>
					<stop  offset="1" style="stop-color:#FFFFFF;stop-opacity:0"/>
				</radialGradient>
				<path style="fill:url(#SVGID_21_);" d="M120.601,615.856c-2.917,2.917-7.905,2.66-11.139-0.575s-3.492-8.222-0.575-11.139
					c2.917-2.917,7.905-2.66,11.139,0.575S123.518,612.939,120.601,615.856z"/>
			</g>
			<g style="opacity:0.5;">
				
					<linearGradient id="SVGID_22_" gradientUnits="userSpaceOnUse" x1="481.6537" y1="-7219.5288" x2="481.6537" y2="-7265.2432" gradientTransform="matrix(0.4162 0.4162 -0.3754 0.3754 -2457.5476 3143.7915)">
					<stop  offset="0" style="stop-color:#FFFFFF;stop-opacity:0.3"/>
					<stop  offset="1" style="stop-color:#FFFFFF;stop-opacity:0"/>
				</linearGradient>
				<path style="fill:url(#SVGID_22_);" d="M465.999,630.424c-4.738,4.738-10.643,6.516-13.189,3.97
					c-2.546-2.546-0.768-8.451,3.97-13.189c4.738-4.738,10.643-6.516,13.189-3.97C472.515,619.781,470.738,625.686,465.999,630.424z
					"/>
				
					<linearGradient id="SVGID_23_" gradientUnits="userSpaceOnUse" x1="481.6537" y1="-7219.5288" x2="481.6537" y2="-7251.5039" gradientTransform="matrix(0.4162 0.4162 -0.3754 0.3754 -2457.5476 3143.7915)">
					<stop  offset="0" style="stop-color:#FFFFFF;stop-opacity:0.3"/>
					<stop  offset="1" style="stop-color:#FFFFFF;stop-opacity:0"/>
				</linearGradient>
				<path style="fill:url(#SVGID_23_);" d="M461.666,631.248c-3.314,3.314-7.279,4.723-8.856,3.146s-0.168-5.541,3.146-8.856
					s7.279-4.723,8.856-3.146C466.389,623.969,464.98,627.934,461.666,631.248z"/>
				
					<linearGradient id="SVGID_24_" gradientUnits="userSpaceOnUse" x1="481.6537" y1="-7219.5288" x2="481.6537" y2="-7393.8916" gradientTransform="matrix(0.4162 0.4162 -0.3754 0.3754 -2457.5476 3143.7915)">
					<stop  offset="0" style="stop-color:#FFFFFF"/>
					<stop  offset="0.2169" style="stop-color:#FFFFFF;stop-opacity:0.2349"/>
					<stop  offset="1" style="stop-color:#FFFFFF;stop-opacity:0"/>
				</linearGradient>
				<path style="fill:url(#SVGID_24_);" d="M457.658,632.249c0,0-4.102,2.891-4.848,2.145s2.145-4.848,2.145-4.848
					s62.556-61.346,63.303-60.6S457.658,632.249,457.658,632.249z"/>
				
					<radialGradient id="SVGID_25_" cx="481.6537" cy="-7225.6074" r="14.0723" gradientTransform="matrix(0.4162 0.4162 -0.3754 0.3754 -2457.5476 3143.7915)" gradientUnits="userSpaceOnUse">
					<stop  offset="0" style="stop-color:#FFFFFF;stop-opacity:0.5"/>
					<stop  offset="1" style="stop-color:#FFFFFF;stop-opacity:0"/>
				</radialGradient>
				<path style="fill:url(#SVGID_25_);" d="M460.949,637.97c-2.917,2.917-7.905,2.66-11.139-0.575s-3.492-8.222-0.575-11.139
					s7.905-2.66,11.139,0.575S463.866,635.053,460.949,637.97z"/>
			</g>
			<g style="opacity:0.5;">
				
					<linearGradient id="SVGID_26_" gradientUnits="userSpaceOnUse" x1="337.9671" y1="-7568.4438" x2="337.9671" y2="-7600.3335" gradientTransform="matrix(0.4162 0.4162 -0.3754 0.3754 -2457.5476 3143.7915)">
					<stop  offset="0" style="stop-color:#FFFFFF;stop-opacity:0.3"/>
					<stop  offset="1" style="stop-color:#FFFFFF;stop-opacity:0"/>
				</linearGradient>
				<path style="fill:url(#SVGID_26_);" d="M533.17,440.851c-3.305,3.305-7.425,4.545-9.201,2.769
					c-1.776-1.776-0.536-5.895,2.769-9.201c3.305-3.305,7.425-4.545,9.201-2.769C537.715,433.427,536.476,437.546,533.17,440.851z"
					/>
				
					<linearGradient id="SVGID_27_" gradientUnits="userSpaceOnUse" x1="337.9671" y1="-7568.4438" x2="337.9671" y2="-7590.749" gradientTransform="matrix(0.4162 0.4162 -0.3754 0.3754 -2457.5476 3143.7915)">
					<stop  offset="0" style="stop-color:#FFFFFF;stop-opacity:0.3"/>
					<stop  offset="1" style="stop-color:#FFFFFF;stop-opacity:0"/>
				</linearGradient>
				<path style="fill:url(#SVGID_27_);" d="M530.147,441.426c-2.312,2.312-5.078,3.295-6.178,2.195
					c-1.1-1.1-0.117-3.866,2.195-6.178c2.312-2.312,5.078-3.295,6.178-2.195C533.442,436.348,532.459,439.114,530.147,441.426z"/>
				
					<linearGradient id="SVGID_28_" gradientUnits="userSpaceOnUse" x1="337.9671" y1="-7568.4438" x2="337.9671" y2="-7690.0771" gradientTransform="matrix(0.4162 0.4162 -0.3754 0.3754 -2457.5476 3143.7915)">
					<stop  offset="0" style="stop-color:#FFFFFF"/>
					<stop  offset="0.2169" style="stop-color:#FFFFFF;stop-opacity:0.2349"/>
					<stop  offset="1" style="stop-color:#FFFFFF;stop-opacity:0"/>
				</linearGradient>
				<path style="fill:url(#SVGID_28_);" d="M527.352,442.124c0,0-2.861,2.017-3.382,1.496c-0.521-0.521,1.496-3.382,1.496-3.382
					s43.638-42.794,44.159-42.273C570.146,398.486,527.352,442.124,527.352,442.124z"/>
				
					<radialGradient id="SVGID_29_" cx="337.9671" cy="-7572.6841" r="9.8166" gradientTransform="matrix(0.4162 0.4162 -0.3754 0.3754 -2457.5476 3143.7915)" gradientUnits="userSpaceOnUse">
					<stop  offset="0" style="stop-color:#FFFFFF;stop-opacity:0.5"/>
					<stop  offset="1" style="stop-color:#FFFFFF;stop-opacity:0"/>
				</radialGradient>
				<path style="fill:url(#SVGID_29_);" d="M529.647,446.115c-2.035,2.035-5.514,1.855-7.771-0.401s-2.436-5.736-0.401-7.771
					c2.035-2.035,5.514-1.855,7.771,0.401C531.503,440.601,531.682,444.08,529.647,446.115z"/>
			</g>
			<g style="opacity:0.5;">
				
					<linearGradient id="SVGID_30_" gradientUnits="userSpaceOnUse" x1="-171.3354" y1="-7176.1309" x2="-171.3354" y2="-7208.02" gradientTransform="matrix(0.4162 0.4162 -0.3754 0.3754 -2457.5476 3143.7915)">
					<stop  offset="0" style="stop-color:#FFFFFF;stop-opacity:0.3"/>
					<stop  offset="1" style="stop-color:#FFFFFF;stop-opacity:0"/>
				</linearGradient>
				<path style="fill:url(#SVGID_30_);" d="M173.925,376.119c-3.305,3.305-7.425,4.545-9.201,2.769
					c-1.776-1.776-0.536-5.895,2.769-9.201c3.305-3.305,7.425-4.545,9.201-2.769C178.47,368.694,177.231,372.813,173.925,376.119z"
					/>
				
					<linearGradient id="SVGID_31_" gradientUnits="userSpaceOnUse" x1="-171.3354" y1="-7176.1309" x2="-171.3354" y2="-7198.436" gradientTransform="matrix(0.4162 0.4162 -0.3754 0.3754 -2457.5476 3143.7915)">
					<stop  offset="0" style="stop-color:#FFFFFF;stop-opacity:0.3"/>
					<stop  offset="1" style="stop-color:#FFFFFF;stop-opacity:0"/>
				</linearGradient>
				<path style="fill:url(#SVGID_31_);" d="M170.902,376.693c-2.312,2.312-5.078,3.295-6.178,2.195
					c-1.1-1.1-0.117-3.866,2.195-6.178s5.078-3.295,6.178-2.195C174.197,371.616,173.214,374.381,170.902,376.693z"/>
				
					<linearGradient id="SVGID_32_" gradientUnits="userSpaceOnUse" x1="-171.3354" y1="-7176.1309" x2="-171.3354" y2="-7297.7637" gradientTransform="matrix(0.4162 0.4162 -0.3754 0.3754 -2457.5476 3143.7915)">
					<stop  offset="0" style="stop-color:#FFFFFF"/>
					<stop  offset="0.2169" style="stop-color:#FFFFFF;stop-opacity:0.2349"/>
					<stop  offset="1" style="stop-color:#FFFFFF;stop-opacity:0"/>
				</linearGradient>
				<path style="fill:url(#SVGID_32_);" d="M168.107,377.392c0,0-2.861,2.017-3.382,1.496c-0.521-0.521,1.496-3.382,1.496-3.382
					s43.638-42.794,44.159-42.273C210.901,333.753,168.107,377.392,168.107,377.392z"/>
				
					<radialGradient id="SVGID_33_" cx="-171.3354" cy="-7180.3711" r="9.8166" gradientTransform="matrix(0.4162 0.4162 -0.3754 0.3754 -2457.5476 3143.7915)" gradientUnits="userSpaceOnUse">
					<stop  offset="0" style="stop-color:#FFFFFF;stop-opacity:0.5"/>
					<stop  offset="1" style="stop-color:#FFFFFF;stop-opacity:0"/>
				</radialGradient>
				<path style="fill:url(#SVGID_33_);" d="M170.402,381.382c-2.035,2.035-5.514,1.855-7.771-0.401
					c-2.257-2.257-2.436-5.736-0.401-7.771s5.514-1.855,7.771,0.401S172.437,379.347,170.402,381.382z"/>
			</g>
			<g>
				
					<radialGradient id="SVGID_34_" cx="-1367.8574" cy="-2097.8738" r="25.0646" gradientTransform="matrix(0.7071 0.7071 -0.7071 0.7071 355.994 2793.4539)" gradientUnits="userSpaceOnUse">
					<stop  offset="0" style="stop-color:#FFFFFF;stop-opacity:0.5"/>
					<stop  offset="1" style="stop-color:#FFFFFF;stop-opacity:0"/>
				</radialGradient>
				<circle style="fill:url(#SVGID_34_);" cx="872.193" cy="342.812" r="25.065"/>
				
					<linearGradient id="SVGID_35_" gradientUnits="userSpaceOnUse" x1="-1367.8574" y1="-2087.0471" x2="-1367.8574" y2="-2168.47" gradientTransform="matrix(0.7071 0.7071 -0.7071 0.7071 355.994 2793.4539)">
					<stop  offset="0" style="stop-color:#FFFFFF;stop-opacity:0.3"/>
					<stop  offset="1" style="stop-color:#FFFFFF;stop-opacity:0"/>
				</linearGradient>
				<path style="fill:url(#SVGID_35_);" d="M907.273,335.628c-15.899,15.899-35.032,22.543-42.735,14.839
					c-7.703-7.703-1.059-26.836,14.839-42.735s35.032-22.543,42.735-14.839S923.172,319.729,907.273,335.628z"/>
				
					<linearGradient id="SVGID_36_" gradientUnits="userSpaceOnUse" x1="-1367.8574" y1="-2087.0471" x2="-1367.8574" y2="-2143.9985" gradientTransform="matrix(0.7071 0.7071 -0.7071 0.7071 355.994 2793.4539)">
					<stop  offset="0" style="stop-color:#FFFFFF;stop-opacity:0.3"/>
					<stop  offset="1" style="stop-color:#FFFFFF;stop-opacity:0"/>
				</linearGradient>
				<path style="fill:url(#SVGID_36_);" d="M893.311,338.97c-11.12,11.12-24.003,16.268-28.773,11.498
					c-4.771-4.771,0.377-17.653,11.498-28.773c11.12-11.12,24.003-16.268,28.773-11.498
					C909.579,314.967,904.432,327.849,893.311,338.97z"/>
				
					<linearGradient id="SVGID_37_" gradientUnits="userSpaceOnUse" x1="-1367.8574" y1="-2087.0471" x2="-1367.8574" y2="-2397.6108" gradientTransform="matrix(0.7071 0.7071 -0.7071 0.7071 355.994 2793.4539)">
					<stop  offset="0" style="stop-color:#FFFFFF"/>
					<stop  offset="0.2169" style="stop-color:#FFFFFF;stop-opacity:0.2349"/>
					<stop  offset="1" style="stop-color:#FFFFFF;stop-opacity:0"/>
				</linearGradient>
				<path style="fill:url(#SVGID_37_);" d="M880.36,342.825c0,0-13.563,9.901-15.822,7.642c-2.259-2.259,7.642-15.822,7.642-15.822
					s209.701-206.038,211.96-203.78C1086.398,133.125,880.36,342.825,880.36,342.825z"/>
			</g>
		</g>
	</g>
</g>
</svg>
