<?xml version="1.0" standalone="no"?><!DOCTYPE svg PUBLIC "-//W3C//DTD SVG 1.1//EN" "http://www.w3.org/Graphics/SVG/1.1/DTD/svg11.dtd"><svg t="1641559749125" class="icon" viewBox="0 0 1024 1024" version="1.1" xmlns="http://www.w3.org/2000/svg" p-id="14932" xmlns:xlink="http://www.w3.org/1999/xlink" width="200" height="200"><defs><style type="text/css"></style></defs><path d="M230.4 179.2h563.2c28.16 0 51.2 23.04 51.2 51.2v563.2c0 28.16-23.04 51.2-51.2 51.2H230.4c-28.16 0-51.2-23.04-51.2-51.2V230.4c0-28.16 23.04-51.2 51.2-51.2z" fill="#C5DDFB" p-id="14933"></path><path d="M732.16 701.44h-12.8l-189.44-460.8c-2.56-7.68-10.24-12.8-20.48-12.8-7.68 0-15.36 5.12-20.48 12.8l-184.32 460.8h-15.36c-7.68 0-15.36 5.12-17.92 12.8-5.12 12.8 5.12 28.16 20.48 28.16h61.44c10.24 0 20.48-7.68 20.48-17.92 2.56-10.24-5.12-20.48-17.92-23.04l38.4-92.16H563.2l35.84 92.16c-10.24 2.56-17.92 10.24-17.92 23.04 2.56 10.24 10.24 17.92 20.48 17.92h128c7.68 0 15.36-5.12 17.92-12.8 10.24-15.36 0-28.16-15.36-28.16z m-325.12-135.68l69.12-168.96 69.12 168.96h-138.24zM104.96 481.28c0 7.68 7.68 12.8 12.8 12.8s12.8-7.68 12.8-12.8v-28.16c0-7.68-7.68-12.8-12.8-12.8s-12.8 7.68-12.8 12.8v28.16z m0-89.6c0 7.68 7.68 12.8 12.8 12.8s12.8-7.68 12.8-12.8v-28.16c0-7.68-7.68-12.8-12.8-12.8s-12.8 7.68-12.8 12.8v28.16z m0 179.2c0 7.68 7.68 12.8 12.8 12.8s12.8-7.68 12.8-12.8v-28.16c0-7.68-7.68-12.8-12.8-12.8s-12.8 7.68-12.8 12.8v28.16z m12.8-256c7.68 0 12.8-7.68 12.8-12.8v-30.72c0-7.68-7.68-12.8-12.8-12.8s-12.8 7.68-12.8 15.36v28.16c0 7.68 5.12 12.8 12.8 12.8z m-12.8 345.6c0 7.68 7.68 12.8 12.8 12.8s12.8-7.68 12.8-12.8v-28.16c0-7.68-7.68-12.8-12.8-12.8s-12.8 7.68-12.8 12.8v28.16z m0 89.6c0 7.68 5.12 12.8 12.8 12.8s12.8-7.68 12.8-12.8v-28.16c0-7.68-7.68-12.8-12.8-12.8s-12.8 7.68-12.8 12.8v28.16z m785.92-268.8c0 7.68 7.68 12.8 12.8 12.8s12.8-7.68 12.8-12.8v-28.16c0-7.68-7.68-12.8-12.8-12.8s-12.8 7.68-12.8 12.8v28.16z m0-89.6c0 7.68 7.68 12.8 12.8 12.8s12.8-7.68 12.8-12.8v-28.16c0-7.68-7.68-12.8-12.8-12.8s-12.8 7.68-12.8 12.8v28.16z m0 179.2c0 7.68 7.68 12.8 12.8 12.8s12.8-7.68 12.8-12.8v-28.16c0-7.68-7.68-12.8-12.8-12.8s-12.8 7.68-12.8 12.8v28.16z m12.8-256c7.68 0 12.8-7.68 12.8-12.8v-30.72c0-7.68-7.68-12.8-12.8-12.8-7.68 0-12.8 7.68-12.8 12.8v28.16c0 10.24 5.12 15.36 12.8 15.36z m-12.8 345.6c0 7.68 7.68 12.8 12.8 12.8s12.8-7.68 12.8-12.8v-28.16c0-7.68-7.68-12.8-12.8-12.8s-12.8 7.68-12.8 12.8v28.16z m0 89.6c0 7.68 7.68 12.8 12.8 12.8s12.8-7.68 12.8-12.8v-28.16c0-7.68-7.68-12.8-12.8-12.8s-12.8 7.68-12.8 12.8v28.16z m-409.6 140.8h-28.16c-7.68 0-12.8 7.68-12.8 12.8s7.68 12.8 12.8 12.8h28.16c7.68 0 12.8-7.68 12.8-12.8s-5.12-12.8-12.8-12.8z m-89.6 0h-28.16c-7.68 0-12.8 7.68-12.8 12.8s7.68 12.8 12.8 12.8h28.16c7.68 0 12.8-7.68 12.8-12.8s-5.12-12.8-12.8-12.8z m179.2 0h-28.16c-7.68 0-12.8 7.68-12.8 12.8s7.68 12.8 12.8 12.8h28.16c7.68 0 12.8-7.68 12.8-12.8s-5.12-12.8-12.8-12.8z m-271.36 0h-28.16c-7.68 0-12.8 7.68-12.8 12.8s7.68 12.8 12.8 12.8h28.16c7.68 0 12.8-7.68 12.8-12.8s-2.56-12.8-12.8-12.8z m-87.04-10.24H168.96v-12.8c0-7.68-7.68-15.36-15.36-15.36h-20.48v-46.08c0-7.68-7.68-15.36-12.8-15.36s-12.8 7.68-12.8 15.36v46.08h-15.36c-7.68 0-15.36 7.68-15.36 15.36v61.44c0 10.24 7.68 17.92 15.36 17.92H153.6c7.68 0 15.36-7.68 15.36-15.36v-12.8h40.96c7.68-2.56 15.36-10.24 15.36-17.92 0-7.68-12.8-20.48-12.8-20.48z m448 10.24h-28.16c-7.68 0-12.8 7.68-12.8 12.8s7.68 12.8 12.8 12.8h28.16c7.68 0 12.8-7.68 12.8-12.8s-5.12-12.8-12.8-12.8z m89.6 0h-28.16c-7.68 0-12.8 7.68-12.8 12.8s7.68 12.8 12.8 12.8h28.16c7.68 0 12.8-7.68 12.8-12.8s-5.12-12.8-12.8-12.8zM453.12 133.12h28.16c7.68 0 12.8-7.68 12.8-12.8s-7.68-12.8-12.8-12.8h-28.16c-7.68 0-12.8 7.68-12.8 12.8s5.12 12.8 12.8 12.8z m-89.6 0h28.16c7.68 0 12.8-7.68 12.8-12.8s-7.68-12.8-12.8-12.8h-28.16c-7.68 0-12.8 7.68-12.8 12.8s5.12 12.8 12.8 12.8z m179.2 0h28.16c7.68 0 12.8-7.68 12.8-12.8s-7.68-12.8-12.8-12.8h-28.16c-7.68 0-12.8 7.68-12.8 12.8s5.12 12.8 12.8 12.8z m-268.8 0h28.16c7.68 0 12.8-7.68 12.8-12.8s-5.12-15.36-12.8-15.36h-28.16c-7.68 0-12.8 7.68-12.8 15.36s2.56 12.8 12.8 12.8zM209.92 104.96H168.96v-12.8c0-7.68-7.68-15.36-15.36-15.36H92.16c-7.68 0-15.36 7.68-15.36 15.36V153.6c0 7.68 7.68 15.36 15.36 15.36h12.8v40.96c2.56 7.68 10.24 15.36 17.92 15.36s20.48-15.36 20.48-15.36V168.96H153.6c7.68 0 15.36-7.68 15.36-15.36v-20.48h40.96c7.68 0 12.8-7.68 12.8-12.8 2.56-10.24-2.56-15.36-12.8-15.36z m422.4 28.16h28.16c7.68 0 12.8-7.68 12.8-12.8s-7.68-12.8-12.8-12.8h-28.16c-7.68 0-12.8 7.68-12.8 12.8s5.12 12.8 12.8 12.8z m89.6 0h28.16c7.68 0 12.8-5.12 12.8-12.8s-7.68-12.8-12.8-12.8h-28.16c-7.68 0-12.8 7.68-12.8 12.8s5.12 12.8 12.8 12.8zM931.84 76.8H870.4c-7.68 0-15.36 7.68-15.36 15.36v12.8h-40.96c-7.68 2.56-15.36 10.24-15.36 17.92s15.36 20.48 15.36 20.48h40.96V153.6c0 7.68 7.68 15.36 15.36 15.36h23.04v46.08c0 7.68 7.68 15.36 12.8 15.36s12.8-7.68 12.8-15.36V168.96h12.8c7.68 0 15.36-5.12 15.36-15.36V92.16c0-7.68-7.68-15.36-15.36-15.36z m0 775.68h-12.8v-40.96c-2.56-7.68-10.24-15.36-17.92-15.36-7.68 0-20.48 15.36-20.48 15.36v40.96h-12.8c-7.68 0-15.36 7.68-15.36 15.36v23.04h-40.96c-7.68 0-12.8 7.68-12.8 12.8s7.68 12.8 12.8 12.8h40.96v12.8c0 7.68 7.68 15.36 15.36 15.36h61.44c7.68 0 15.36-7.68 15.36-15.36V870.4c2.56-10.24-5.12-17.92-12.8-17.92z" fill="#2589FF" p-id="14934"></path></svg>