<?xml version="1.0" standalone="no"?><!DOCTYPE svg PUBLIC "-//W3C//DTD SVG 1.1//EN" "http://www.w3.org/Graphics/SVG/1.1/DTD/svg11.dtd"><svg t="1641559874243" class="icon" viewBox="0 0 1024 1024" version="1.1" xmlns="http://www.w3.org/2000/svg" p-id="21472" xmlns:xlink="http://www.w3.org/1999/xlink" width="200" height="200"><defs><style type="text/css"></style></defs><path d="M198.4 256h217.6v64H198.4zM198.4 416h217.6v64H198.4zM198.4 582.4h217.6v64H198.4zM198.4 742.4h512v64h-512zM537.6 601.6c-25.6 0-57.6-6.4-76.8-32-32-32-44.8-89.6-19.2-128l44.8-76.8c6.4-12.8 19.2-25.6 32-38.4L819.2 19.2c19.2-19.2 57.6-19.2 76.8 0L1004.8 128c19.2 19.2 19.2 57.6 0 76.8L710.4 512c-12.8 12.8-25.6 25.6-38.4 32l-83.2 44.8c-12.8 6.4-32 12.8-51.2 12.8z m320-544L556.8 364.8c-12.8 6.4-19.2 12.8-25.6 25.6l-38.4 76.8c-12.8 19.2-6.4 44.8 6.4 64 19.2 19.2 44.8 19.2 64 6.4l76.8-38.4c12.8-6.4 19.2-12.8 25.6-19.2l300.8-307.2L857.6 57.6z" fill="#DDB44E" p-id="21473"></path><path d="M568.128 349.312l114.56 111.808-35.84 36.608-114.496-111.744z" fill="#DDB44E" p-id="21474"></path><path d="M915.2 422.4v480c0 25.6-19.2 51.2-51.2 51.2L115.2 960c-12.8 0-25.6-6.4-32-12.8-6.4-6.4-12.8-19.2-12.8-32L64 160c0-32 19.2-51.2 51.2-51.2h486.4v-64H115.2C51.2 44.8 0 96 0 160l6.4 755.2c0 32 12.8 57.6 32 76.8 19.2 19.2 51.2 32 76.8 32l755.2-6.4c64 0 115.2-51.2 115.2-115.2V422.4h-70.4z" fill="#4488AD" p-id="21475"></path></svg>