<?xml version="1.0" standalone="no"?><!DOCTYPE svg PUBLIC "-//W3C//DTD SVG 1.1//EN" "http://www.w3.org/Graphics/SVG/1.1/DTD/svg11.dtd"><svg t="1641612260716" class="icon" viewBox="0 0 1024 1024" version="1.1" xmlns="http://www.w3.org/2000/svg" p-id="45439" xmlns:xlink="http://www.w3.org/1999/xlink" width="200" height="200"><defs><style type="text/css"></style></defs><path d="M962 690.5C962 738.2 861.1 840 717.3 840c-140.1 0-244.7-100.1-244.7-149.4 0-49.4 105-149.3 244.7-149.3 144.9 0 244.7 99.9 244.7 149.2z m-244.5-122c-65.1 0-117.9 54.7-117.9 122.1 0 67.4 52.8 122.1 117.9 122.1 65.2 0 117.9-54.7 117.9-122.1 0.1-67.4-52.7-122.1-117.9-122.1z m-0.2 44.2c-41.5 0-75.1 34.8-75.1 77.7 0 42.9 33.6 77.7 75.1 77.7s75.1-34.8 75.1-77.7c0-42.9-33.6-77.7-75.1-77.7z m0 0" fill="#FFA940" p-id="45440"></path><path d="M161 369v64.2h186.1V369h-186zM161 486.7v64.2h186.1v-64.2h-186zM161 604.4v64.2h186.1v-64.2h-186zM161 722.1v64.2h186.1v-64.2h-186z" fill="#9CBFF4" p-id="45441"></path><path d="M116.1 821.3V333.7h730.3v175.4c20.9 6.4 40.6 13.9 58.8 22.8V210.8c0-33.1-27.1-60.2-60.2-60.2H122.2c-33.1 0-60.2 27.1-60.2 60.2v602.3c0 33.1 27.1 60.2 60.2 60.2h509.3c-45.8-11.6-86.5-30-120.6-52.1H116.1z" fill="#FFA940" p-id="45442"></path><path d="M575.5 369H389.4v64.2h186.1zM575.5 486.7H389.4v64.2h130.2c17.2-10.5 35.8-19.9 55.9-28.3v-35.9zM389.4 604.4v64.2h18.8c6.3-19.5 20.9-41.7 42.8-64.2h-61.6z" fill="#9CBFF4" p-id="45443"></path><path d="M575.5 667.1v-12.4c-0.9 4.4-1.1 9.1-1.6 13.7 0.5-0.4 1.1-0.8 1.6-1.3z" fill="#387EE8" p-id="45444"></path><path d="M389.4 722.1v64.2h75.4c-24-21.8-41.4-43.9-51.3-64.2h-24.1zM803.9 369H617.8v64.2h186.1zM803.9 498.3v-11.6H617.8v20.9c34.3-10 70.9-16.9 110.2-16.9 26.6 0 51.7 3 75.9 7.6z" fill="#9CBFF4" p-id="45445"></path><path d="M575.5 667.1c-0.6 0.4-1.1 0.9-1.6 1.3v0.1h1.6v-1.4zM573.7 668.6h0.2v-0.1c-0.1 0-0.1 0.1-0.2 0.1z" p-id="45446"></path></svg>