<?xml version="1.0" standalone="no"?><!DOCTYPE svg PUBLIC "-//W3C//DTD SVG 1.1//EN" "http://www.w3.org/Graphics/SVG/1.1/DTD/svg11.dtd"><svg t="1642078898368" class="icon" viewBox="0 0 1024 1024" version="1.1" xmlns="http://www.w3.org/2000/svg" p-id="76569" xmlns:xlink="http://www.w3.org/1999/xlink" width="200" height="200"><defs><style type="text/css"></style></defs><path d="M768.4 903.2l-223-178.4c-13.8-11-33.9-8.8-45 5-1.3 1.6-2.4 3.3-3.3 5-0.9-1.7-2-3.4-3.3-5-11-13.8-31.2-16-45-5l-223 178.4c-13.8 11-16 31.2-5 45 6.3 7.9 15.6 12 25 12 7 0 14.1-2.3 20-7l223.1-178.4c3.5-2.8 6.3-6.2 8.3-10 2 3.8 4.8 7.2 8.3 10l223.1 178.4c5.9 4.7 13 7 20 7 9.4 0 18.7-4.1 25-12 10.9-13.8 8.6-33.9-5.2-45z" fill="#51D76A" p-id="76570"></path><path d="M98 208.2v526.9c0 18 14.9 32.7 33.2 32.7h763.6c18.3 0 33.2-14.6 33.2-32.7V208.2H98z" fill="#1680FA" p-id="76571"></path><path d="M660.7 208.2c27.3 74.8 42.6 158.3 42.6 246.4 0 115.3-26.2 222.8-71.3 313.2h262.8c18.3 0 33.2-14.6 33.2-32.7V208.2H660.7z" fill="#056BD1" p-id="76572"></path><path d="M923.4 127.8H567.7V97.5c0-18.6-15-33.6-33.6-33.6h-44.6c-18.6 0-33.6 15-33.6 33.6v30.4H100.1c-19.8 0-35.9 15.5-35.9 34.7v58.8c0 19.1 16.1 34.7 35.9 34.7h823.3c19.8 0 35.9-15.5 35.9-34.7v-58.8c0-19.3-16-34.8-35.9-34.8z" fill="#51D76A" p-id="76573"></path><path d="M384.1 640c70.6 0 127.8-57.2 127.8-127.8H384.1V640z" fill="#FFFFFF" p-id="76574"></path><path d="M321.3 448.5h127.6c0-70.5-57.1-127.6-127.6-127.6S193.7 378 193.7 448.5 250.8 576 321.3 576V448.5zM576.6 320.1H768v64H576.6zM576.6 415.8H768v64H576.6zM576.8 512.7h191.4v64H576.8z" fill="#FFFFFF" p-id="76575"></path><path d="M768.4 903.2L622.3 786.4c-10.4 19.2-21.7 37.5-33.8 54.9l139.9 111.9c5.9 4.7 13 7 20 7 9.4 0 18.7-4.1 25-12 11.1-13.8 8.8-33.9-5-45zM923.4 127.8H625c21 39.5 38.2 82.5 51.2 128.1h247.2c19.8 0 35.9-15.5 35.9-34.7v-58.8c0-19.1-16-34.6-35.9-34.6z" fill="#49B759" p-id="76576"></path></svg>