<?xml version="1.0" standalone="no"?><!DOCTYPE svg PUBLIC "-//W3C//DTD SVG 1.1//EN" "http://www.w3.org/Graphics/SVG/1.1/DTD/svg11.dtd"><svg t="1642079006616" class="icon" viewBox="0 0 1024 1024" version="1.1" xmlns="http://www.w3.org/2000/svg" p-id="82631" xmlns:xlink="http://www.w3.org/1999/xlink" width="200" height="200"><defs><style type="text/css"></style></defs><path d="M457.344 905.216l-364.8-249.728c-17.92-12.288-20.608-37.76-5.504-53.504 11.776-12.16 30.592-14.336 44.672-4.992l325.888 214.912c11.776 7.808 27.008 7.808 38.784 0L821.76 596.224c14.208-9.472 33.152-7.296 44.928 4.992l0.768 0.896c14.976 15.744 12.416 41.088-5.504 53.376l-364.8 249.856c-12.032 8.064-27.776 8.064-39.808-0.128z" fill="#BAE7FF" p-id="82632"></path><path d="M457.344 747.264l-364.8-249.728c-17.92-12.288-20.608-37.76-5.504-53.504 11.776-12.16 30.592-14.336 44.672-4.992l326.016 215.04c11.776 7.808 27.008 7.808 38.784 0L821.76 438.272c14.208-9.472 33.152-7.296 44.928 4.992l0.896 0.896c14.976 15.744 12.416 41.088-5.504 53.376l-364.8 249.856c-12.16 8.064-27.904 8.064-39.936-0.128z" fill="#99DBF2" p-id="82633"></path><path d="M457.344 589.184L100.736 345.088c-20.352-13.952-20.352-44.032 0-58.112L457.344 42.88c12.032-8.192 27.776-8.192 39.808 0L853.76 286.976c20.352 13.952 20.352 44.032 0 58.112L497.024 589.184c-11.904 8.192-27.648 8.192-39.68 0z" fill="#319EEC" p-id="82634"></path><path d="M700.928 567.04c4.224-2.048 9.088-2.432 13.568-1.024l253.952 76.416c9.728 2.944 15.36 13.056 12.544 22.656l-48.512 161.152c-2.944 9.6-13.184 14.976-22.912 12.032l-253.952-76.416c-4.48-1.408-8.32-4.352-10.752-8.32L580.992 646.4c-5.376-9.088-1.92-20.736 7.68-25.216l112.256-54.144z m-67.712 95.616c0.768 25.088 21.632 44.8 46.72 44.16s44.8-21.632 44.288-46.72c-0.64-25.088-21.632-44.8-46.72-44.288-25.088 0.768-44.928 21.76-44.288 46.848z" fill="#FFA000" p-id="82635"></path><path d="M744.704 565.12c5.632 0 11.136 2.304 15.36 6.272l235.52 221.312c9.088 8.576 9.728 22.656 1.408 31.488L856.448 973.824c-8.32 8.832-22.528 9.088-31.616 0.64l-235.52-221.312c-4.224-3.968-6.784-9.216-7.168-14.976l-11.392-151.552c-0.896-12.8 9.088-23.552 22.016-23.424l151.936 1.92z m-125.952 67.712c-12.8 27.648-0.768 60.672 26.88 73.6 27.648 12.928 60.672 0.768 73.6-26.88 12.928-27.648 0.768-60.672-26.88-73.6-27.648-13.056-60.544-0.896-73.6 26.88z" fill="#FFCA28" p-id="82636"></path><path d="M595.328 253.184L371.84 404.864c-14.336 9.728-34.048 6.016-43.904-8.448-9.728-14.336-6.016-34.048 8.448-43.904L559.872 200.96c14.336-9.728 34.048-6.016 43.904 8.448 9.6 14.336 5.888 34.048-8.448 43.776z" fill="#FFFFFF" p-id="82637"></path></svg>