<?xml version="1.0" standalone="no"?><!DOCTYPE svg PUBLIC "-//W3C//DTD SVG 1.1//EN" "http://www.w3.org/Graphics/SVG/1.1/DTD/svg11.dtd"><svg t="1642078597950" class="icon" viewBox="0 0 1024 1024" version="1.1" xmlns="http://www.w3.org/2000/svg" p-id="58914" xmlns:xlink="http://www.w3.org/1999/xlink" width="200" height="200"><defs><style type="text/css"></style></defs><path d="M0 0h1024v1024H0z" fill="#FFFFFF" fill-opacity="0" p-id="58915"></path><path d="M796.444444 56.888889a85.333333 85.333333 0 0 1 85.333334 85.333333v739.555556a85.333333 85.333333 0 0 1-85.333334 85.333333H227.555556a85.333333 85.333333 0 0 1-85.333334-85.333333V142.222222a85.333333 85.333333 0 0 1 85.333334-85.333333h568.888888zM430.705778 581.973333a28.444444 28.444444 0 0 0-48.924445 1.763556l-58.083555 106.524444H256l-3.328 0.199111A28.444444 28.444444 0 0 0 256 747.150222h84.622222l3.413334-0.199111a28.444444 28.444444 0 0 0 21.560888-14.620444l39.452445-72.448 81.265778 170.609777 1.792 3.242667a28.444444 28.444444 0 0 0 48.270222-0.853333l69.12-115.086222 31.687111 23.694222 3.072 1.991111a28.444444 28.444444 0 0 0 13.966222 3.697778h113.777778l3.328-0.227556a28.444444 28.444444 0 0 0 25.116444-28.245333l-0.199111-3.328a28.444444 28.444444 0 0 0-28.245333-25.116445h-104.334222l-49.294222-36.864-2.787556-1.848889a28.444444 28.444444 0 0 0-38.627556 9.955556L514.844444 758.215111l-82.432-173.084444zM426.666667 227.555556h-113.777778a56.888889 56.888889 0 0 0-56.888889 56.888888v113.777778a56.888889 56.888889 0 0 0 56.888889 56.888889h113.777778a56.888889 56.888889 0 0 0 56.888889-56.888889v-113.777778a56.888889 56.888889 0 0 0-56.888889-56.888888z m312.888889 170.666666h-170.666667a28.444444 28.444444 0 0 0 0 56.888889h170.666667a28.444444 28.444444 0 0 0 0-56.888889z m0-170.666666h-113.777778a28.444444 28.444444 0 0 0 0 56.888888h113.777778a28.444444 28.444444 0 0 0 0-56.888888z" fill="#48A8FF" p-id="58916"></path></svg>