<?xml version="1.0" standalone="no"?><!DOCTYPE svg PUBLIC "-//W3C//DTD SVG 1.1//EN" "http://www.w3.org/Graphics/SVG/1.1/DTD/svg11.dtd"><svg t="1642076989369" class="icon" viewBox="0 0 1024 1024" version="1.1" xmlns="http://www.w3.org/2000/svg" p-id="22182" xmlns:xlink="http://www.w3.org/1999/xlink" width="200" height="200"><defs><style type="text/css"></style></defs><path d="M896 829.8H192c-35.2 0-64-28.8-64-64V256.73c0-35.2 28.8-64 64-64h704c35.2 0 64 28.8 64 64V765.8c0 35.2-28.8 64-64 64z" fill="#FFC7CE" p-id="22183"></path><path d="M832 896H128c-35.2 0-64-28.8-64-64V326c0-35.2 28.8-64 64-64h704c35.2 0 64 28.8 64 64v506c0 35.2-28.8 64-64 64z" fill="#FF6073" p-id="22184"></path><path d="M544 512H224c-17.6 0-32-14.4-32-32s14.4-32 32-32h320c17.6 0 32 14.4 32 32s-14.4 32-32 32zM736 703.27H224c-17.6 0-32-14.4-32-32s14.4-32 32-32h512c17.6 0 32 14.4 32 32s-14.4 32-32 32z" fill="#FFFFFF" p-id="22185"></path></svg>