<?xml version="1.0" standalone="no"?><!DOCTYPE svg PUBLIC "-//W3C//DTD SVG 1.1//EN" "http://www.w3.org/Graphics/SVG/1.1/DTD/svg11.dtd"><svg t="1642078037808" class="icon" viewBox="0 0 1024 1024" version="1.1" xmlns="http://www.w3.org/2000/svg" p-id="53322" xmlns:xlink="http://www.w3.org/1999/xlink" width="200" height="200"><defs><style type="text/css"></style></defs><path d="M265.76 92m4 0l478.4 0q4 0 4 4l0 192.4q0 4-4 4l-478.4 0q-4 0-4-4l0-192.4q0-4 4-4Z" fill="#61D6C2" p-id="53323"></path><path d="M740.16 104v176.4h-462.4V104h462.4m8-24h-478.4a16 16 0 0 0-16 16v192.4a16 16 0 0 0 16 16h478.4a16 16 0 0 0 16-16V96a16 16 0 0 0-16-16z" fill="#333333" p-id="53324"></path><path d="M265.76 411.76m4 0l478.4 0q4 0 4 4l0 192.4q0 4-4 4l-478.4 0q-4 0-4-4l0-192.4q0-4 4-4Z" fill="#EDEDED" p-id="53325"></path><path d="M740.16 424v176h-462.4V424h462.4m8-24h-478.4a16 16 0 0 0-16 16v192a16 16 0 0 0 16 16h478.4a16 16 0 0 0 16-16V416a16 16 0 0 0-16-16z" fill="#333333" p-id="53326"></path><path d="M265.76 731.6m4 0l478.4 0q4 0 4 4l0 192.4q0 4-4 4l-478.4 0q-4 0-4-4l0-192.4q0-4 4-4Z" fill="#61D6C2" p-id="53327"></path><path d="M740.16 743.6V920h-462.4V743.6h462.4m8-24h-478.4a16 16 0 0 0-16 16V928a16 16 0 0 0 16 16h478.4a16 16 0 0 0 16-16V735.6a16 16 0 0 0-16-16zM795.92 507.04a12 12 0 0 1 0-24 124.56 124.56 0 1 0 0-249.12 12 12 0 0 1 0-24 148.56 148.56 0 1 1 0 297.12z" fill="#333333" p-id="53328"></path><path d="M826.72 528a11.92 11.92 0 0 1-6.16-1.68l-35.04-21.04a12 12 0 0 1-1.52-19.6l35.04-28a12 12 0 0 1 14.96 18.72l-21.52 17.2 20.24 12.16a12 12 0 0 1-6.16 22.32zM228.72 803.36a148.56 148.56 0 0 1 0-297.12 12 12 0 1 1 0 24 124.56 124.56 0 0 0 0 249.12 12 12 0 1 1 0 24z" fill="#333333" p-id="53329"></path><path d="M197.84 824a12 12 0 0 1-6.16-22.32l20.24-12.16-21.52-17.2a12 12 0 0 1 14.96-18.72L240 782a12 12 0 0 1-1.36 19.68l-35.04 21.04a11.92 11.92 0 0 1-5.76 1.28z" fill="#333333" p-id="53330"></path></svg>